{"glyphs":{"0":{"ha":801,"x_min":76,"x_max":776,"o":"m 314 -8 q 140 81 204 -8 q 76 308 76 171 q 143 590 76 446 q 317 830 210 735 q 542 925 425 925 q 714 836 651 925 q 776 611 776 747 q 711 327 776 472 q 539 87 646 182 q 314 -8 432 -8 m 342 125 q 489 198 419 125 q 601 379 558 271 q 643 583 643 488 q 608 733 643 675 q 513 792 574 792 q 365 718 435 792 q 253 536 296 644 q 211 332 211 428 q 246 183 211 242 q 342 125 281 125 z "},"1":{"ha":556,"x_min":28,"x_max":490,"o":"m 82 0 q 42 15 57 0 q 28 51 28 29 q 53 108 28 83 q 110 133 78 133 l 193 133 l 315 672 l 258 624 q 206 604 235 604 q 167 619 182 604 q 151 658 151 635 q 160 690 151 674 q 181 715 169 706 l 375 888 q 432 913 406 913 q 475 897 460 913 q 485 860 490 882 l 322 133 l 382 133 q 424 119 410 133 q 439 82 439 104 q 413 24 439 49 q 357 0 386 0 l 82 0 z "},"2":{"ha":700,"x_min":1,"x_max":704,"o":"m 13 56 q 116 290 40 199 q 349 471 192 382 q 465 542 425 515 q 537 606 506 568 q 568 689 568 644 q 535 754 568 729 q 453 779 503 779 q 347 751 396 779 q 268 694 299 722 q 238 672 251 679 q 204 664 225 664 q 165 680 179 664 q 150 718 150 696 q 165 762 150 743 q 211 804 181 781 q 482 913 353 913 q 644 858 583 913 q 704 718 704 803 q 664 573 704 636 q 563 464 624 510 q 410 365 501 418 q 249 255 306 307 q 167 132 193 203 l 529 132 q 567 117 551 132 q 582 79 582 101 q 556 23 582 46 q 501 0 531 0 l 1 0 l 13 56 z "},"3":{"ha":693,"x_min":4,"x_max":675,"o":"m 247 -8 q 131 17 188 -8 q 40 83 75 42 q 4 172 4 125 q 29 226 4 203 q 86 249 54 249 q 136 213 125 249 q 179 153 146 182 q 274 125 213 125 q 372 151 326 125 q 444 221 417 176 q 472 318 472 265 q 446 394 472 365 q 385 433 419 422 q 321 444 350 444 q 282 460 297 444 q 267 497 267 475 q 292 553 267 528 q 350 578 318 578 q 433 599 389 578 q 508 653 478 621 q 539 714 539 685 q 506 768 539 746 q 417 790 474 790 q 340 778 372 790 q 272 747 307 767 q 259 740 269 746 q 241 731 249 733 q 225 729 233 729 q 185 743 199 729 q 172 779 172 757 q 192 832 172 810 q 246 872 211 854 q 338 910 286 894 q 444 925 390 925 q 611 873 547 925 q 675 742 675 821 q 636 616 675 675 q 536 515 597 557 q 592 444 574 486 q 611 351 611 403 q 560 173 611 256 q 426 41 510 90 q 247 -8 342 -8 z "},"4":{"ha":660,"x_min":32,"x_max":649,"o":"m 392 -8 q 352 8 367 -8 q 338 46 338 25 q 339 58 338 54 l 371 203 l 86 207 q 46 221 60 207 q 32 257 32 235 q 53 310 32 286 l 526 888 q 589 919 553 919 q 633 899 618 919 q 643 853 649 878 l 533 333 l 547 333 q 585 319 571 333 q 599 283 599 304 q 572 226 599 251 q 513 200 546 200 l 504 200 l 474 58 q 443 12 468 32 q 392 -8 418 -8 m 458 614 l 233 340 l 399 336 l 458 614 z "},"5":{"ha":764,"x_min":53,"x_max":764,"o":"m 297 -8 q 139 39 208 -8 q 79 98 106 63 q 53 161 53 133 q 78 222 53 197 q 135 246 104 246 q 167 238 157 246 q 185 213 176 231 q 240 148 207 169 q 325 126 274 126 q 440 167 385 126 q 530 272 496 207 q 564 401 564 336 q 533 497 564 460 q 439 535 501 535 q 264 461 354 535 q 210 440 238 440 q 169 453 185 440 q 153 489 153 465 q 158 517 153 497 l 263 849 q 294 891 271 874 q 342 908 317 908 l 710 908 q 748 892 732 908 q 764 853 764 876 q 738 800 764 826 q 682 774 711 774 l 375 774 l 333 643 q 467 668 397 668 q 637 603 572 668 q 701 431 701 539 q 643 218 701 319 q 491 54 585 117 q 297 -8 397 -8 z "},"6":{"ha":733,"x_min":61,"x_max":671,"o":"m 306 -8 q 131 49 200 -8 q 61 233 61 107 q 137 526 61 378 q 335 774 213 674 q 478 874 403 831 q 588 918 554 918 q 624 904 610 918 q 639 868 639 890 q 624 825 639 846 q 588 794 610 804 q 324 599 428 729 q 451 619 386 619 q 610 565 550 619 q 671 411 671 511 q 621 212 671 310 q 487 53 571 114 q 306 -8 403 -8 m 333 122 q 436 162 389 122 q 511 262 483 201 q 539 381 539 322 q 509 461 539 433 q 424 489 479 489 q 221 415 319 489 q 201 335 208 379 q 193 261 193 292 q 231 156 193 190 q 333 122 268 122 z "},"7":{"ha":633,"x_min":32,"x_max":722,"o":"m 86 -7 q 47 8 63 -7 q 32 43 32 24 q 51 94 32 65 l 533 767 l 186 767 q 147 781 163 767 q 132 819 132 796 q 158 875 132 850 q 215 900 185 900 l 669 900 q 708 885 693 900 q 722 847 722 869 q 708 803 722 831 l 153 29 q 86 -7 126 -7 z "},"8":{"ha":719,"x_min":39,"x_max":704,"o":"m 281 -8 q 105 49 171 -8 q 39 197 39 106 q 93 364 39 288 q 235 492 147 440 q 169 619 169 540 q 215 770 169 700 q 335 883 260 840 q 493 925 410 925 q 647 876 590 925 q 704 743 704 826 q 664 605 704 667 q 551 500 624 543 q 636 322 636 429 q 587 158 636 235 q 456 37 538 82 q 281 -8 374 -8 m 408 567 q 571 717 571 626 q 541 770 571 750 q 464 790 511 790 q 392 774 429 790 q 331 726 356 757 q 306 656 306 696 q 329 605 306 626 q 408 567 353 583 m 308 125 q 403 146 358 125 q 474 205 447 167 q 501 292 501 243 q 469 374 501 339 q 386 426 436 408 q 235 344 297 396 q 174 224 174 293 q 211 153 174 181 q 308 125 249 125 z "},"9":{"ha":735,"x_min":111,"x_max":724,"o":"m 197 -8 q 158 5 172 -8 q 143 43 143 18 q 158 87 143 67 q 194 115 174 107 q 340 197 272 146 q 458 311 407 247 q 331 290 396 290 q 172 344 232 290 q 111 499 111 399 q 164 709 111 613 q 301 862 217 806 q 476 918 386 918 q 653 862 583 918 q 724 682 724 806 q 651 399 724 543 q 467 151 579 254 q 319 43 404 94 q 197 -8 233 -8 m 358 421 q 474 444 421 421 q 560 494 526 467 q 581 572 572 526 q 590 649 590 618 q 553 753 590 718 q 449 788 517 788 q 349 751 397 788 q 272 656 301 715 q 243 531 243 596 q 273 449 243 476 q 358 421 303 421 z "},"\r":{"ha":833,"x_min":0,"x_max":0,"o":""}," ":{"ha":494,"x_min":0,"x_max":0,"o":""},"!":{"ha":363,"x_min":44,"x_max":367,"o":"m 163 225 q 123 242 138 225 q 108 279 108 258 q 110 293 108 289 l 229 860 q 260 909 235 889 q 313 929 286 929 q 351 915 336 929 q 367 876 367 900 q 365 860 367 865 l 246 293 q 215 245 239 265 q 163 225 192 225 m 103 -8 q 60 9 76 -8 q 44 51 44 26 q 78 124 44 88 q 147 160 113 160 q 190 142 174 160 q 206 99 206 124 q 172 27 206 63 q 103 -8 139 -8 z "},"\"":{"ha":467,"x_min":143,"x_max":525,"o":"m 197 622 q 158 638 172 622 q 143 675 143 654 q 144 689 143 685 l 181 858 q 210 906 186 886 q 261 925 233 925 q 304 903 290 925 q 314 858 318 881 l 278 689 q 249 642 272 661 q 197 622 225 622 m 403 622 q 363 638 378 622 q 349 675 349 654 q 350 689 349 685 l 386 858 q 415 906 392 886 q 467 925 439 925 q 510 903 496 925 q 521 858 525 882 l 485 689 q 455 642 479 661 q 403 622 431 622 z "},"#":{"ha":1003,"x_min":72,"x_max":983,"o":"m 188 -8 q 149 6 164 -8 q 133 39 133 19 q 138 58 133 49 l 231 257 l 126 257 q 88 272 103 257 q 72 310 72 286 q 99 365 72 340 q 156 390 125 390 l 299 390 l 369 533 l 242 533 q 203 548 218 533 q 189 585 189 563 q 214 642 189 617 q 271 667 239 667 l 439 667 l 543 876 q 575 910 553 897 q 618 924 597 924 q 658 910 644 924 q 672 875 672 897 q 663 838 672 856 l 578 667 l 704 667 l 810 876 q 842 911 822 899 q 883 924 863 924 q 924 910 910 924 q 938 875 938 897 q 929 840 938 860 l 843 667 l 929 667 q 967 650 951 667 q 983 611 983 633 q 957 558 983 582 q 900 533 931 533 l 775 533 l 706 390 l 814 390 q 851 375 836 390 q 867 338 867 360 q 842 282 867 307 q 785 257 817 257 l 638 257 l 528 39 q 496 3 517 15 q 454 -8 475 -8 q 413 6 429 -8 q 397 40 397 19 q 403 61 397 47 l 497 257 l 371 257 l 263 39 q 230 3 251 15 q 188 -8 208 -8 m 565 390 l 636 533 l 508 533 l 439 390 l 565 390 z "},"$":{"ha":835,"x_min":39,"x_max":811,"o":"m 596 917 q 753 865 696 908 q 811 757 811 821 q 788 678 811 708 q 725 647 764 647 q 688 660 703 647 q 674 690 674 672 q 676 703 674 696 q 678 719 678 711 q 649 764 678 743 q 568 790 619 785 l 508 525 q 666 437 613 488 q 719 313 719 386 q 675 165 719 233 q 557 51 631 96 q 400 -7 483 6 l 394 -35 q 364 -83 389 -64 q 313 -101 339 -101 q 276 -88 292 -101 q 261 -53 261 -75 q 263 -37 261 -43 l 269 -4 q 105 73 171 14 q 39 206 39 132 q 62 265 39 240 q 115 289 85 289 q 157 275 142 289 q 175 239 172 261 q 215 164 182 193 q 297 122 249 135 l 365 428 q 224 511 276 461 q 171 643 171 561 q 250 817 171 743 q 463 911 329 890 l 468 936 q 497 984 474 965 q 547 1003 519 1003 q 591 984 575 1003 q 601 940 607 965 l 596 917 m 307 660 q 328 610 307 632 q 394 568 349 589 l 438 783 q 342 736 376 769 q 307 660 307 703 m 583 285 q 561 341 583 317 q 479 389 539 365 l 425 121 q 539 183 494 138 q 583 285 583 229 z "},"%":{"ha":942,"x_min":125,"x_max":874,"o":"m 304 524 q 187 570 233 524 q 140 686 140 617 q 176 804 140 747 q 270 896 213 861 q 390 931 328 931 q 509 885 463 931 q 556 769 556 839 q 519 650 556 707 q 425 558 483 593 q 304 524 367 524 m 178 -8 q 139 5 153 -8 q 125 39 125 18 q 150 97 125 63 l 758 893 q 821 925 783 925 q 859 909 844 925 q 874 874 874 893 q 853 824 874 850 l 240 25 q 213 1 229 11 q 178 -8 196 -8 m 332 656 q 394 682 367 656 q 421 743 421 708 q 404 783 421 767 q 363 799 388 799 q 302 772 329 799 q 275 713 275 746 q 291 672 275 689 q 332 656 307 656 m 601 -18 q 482 28 528 -18 q 436 143 436 74 q 472 262 436 206 q 565 353 507 318 q 688 388 624 388 q 806 342 760 388 q 851 226 851 296 q 816 108 851 165 q 722 17 781 51 q 601 -18 664 -18 m 629 113 q 690 139 663 113 q 717 200 717 165 q 701 240 717 224 q 660 257 685 257 q 598 231 625 257 q 571 169 571 204 q 588 129 571 146 q 629 113 604 113 z "},"&":{"ha":869,"x_min":44,"x_max":746,"o":"m 282 -8 q 165 18 219 -8 q 78 93 111 44 q 44 204 44 142 q 294 531 44 400 q 254 674 254 606 q 293 801 254 742 q 394 895 332 860 q 519 931 456 931 q 609 907 568 931 q 674 844 650 883 q 697 758 697 804 q 642 612 697 681 q 496 494 586 543 l 586 346 l 613 393 q 643 432 626 419 q 685 444 660 444 q 724 431 710 444 q 739 394 739 417 q 724 342 739 375 q 685 274 708 308 q 658 233 663 239 l 738 103 q 746 74 746 89 q 719 20 746 43 q 665 -3 692 -3 q 619 21 635 -3 l 560 118 q 428 26 499 60 q 282 -8 357 -8 m 428 594 q 529 659 494 626 q 564 733 564 692 q 542 780 564 760 q 492 800 521 800 q 419 772 451 800 q 388 704 388 744 q 428 594 388 656 m 310 124 q 496 221 404 124 l 365 431 q 228 344 278 390 q 178 231 178 297 q 219 152 178 181 q 310 124 261 124 z "},"'":{"ha":260,"x_min":129,"x_max":301,"o":"m 183 622 q 144 638 158 622 q 129 675 129 654 q 131 689 129 685 l 167 858 q 196 906 172 886 q 247 925 219 925 q 287 908 272 925 q 301 871 301 892 q 300 858 301 863 l 264 689 q 234 642 258 661 q 183 622 210 622 z "},"(":{"ha":496,"x_min":106,"x_max":601,"o":"m 275 -144 q 224 -115 242 -144 q 144 53 182 -49 q 106 294 106 154 q 203 690 106 500 q 451 1003 301 881 q 547 1058 521 1058 q 586 1043 571 1058 q 601 1004 601 1028 q 590 968 601 985 q 550 931 578 951 q 394 767 464 865 q 283 552 324 668 q 243 324 243 436 q 272 123 243 218 q 344 -29 301 28 q 358 -65 358 -49 q 331 -121 358 -97 q 275 -144 304 -144 z "},")":{"ha":497,"x_min":-37,"x_max":443,"o":"m 17 -144 q -22 -130 -6 -144 q -37 -92 -37 -115 q -28 -58 -37 -75 q -3 -26 -18 -40 q 153 149 82 46 q 265 370 224 253 q 307 599 307 488 q 276 792 307 701 q 192 935 244 882 q 172 976 172 954 q 199 1033 172 1007 q 256 1058 225 1058 q 304 1029 279 1058 q 406 848 369 953 q 443 625 443 743 q 342 228 443 417 q 79 -117 242 40 q 17 -144 49 -144 z "},"*":{"ha":529,"x_min":168,"x_max":574,"o":"m 214 608 q 181 619 193 608 q 169 649 169 631 q 218 722 169 688 q 296 768 260 753 q 249 772 274 768 q 208 781 224 775 q 168 828 168 794 q 188 876 168 854 q 239 897 208 897 q 292 875 264 897 q 340 831 321 851 q 331 892 331 858 q 352 967 331 939 q 407 994 374 994 q 440 982 429 994 q 451 946 451 969 q 438 892 451 919 q 401 829 425 864 q 526 894 481 894 q 560 883 547 894 q 574 847 574 871 q 556 801 574 822 q 506 775 538 781 q 446 772 485 772 q 415 771 436 771 q 440 752 421 767 q 476 721 460 738 q 497 676 497 700 q 477 631 497 653 q 429 608 457 608 q 371 654 386 608 q 350 736 361 683 q 293 656 336 713 q 255 621 276 633 q 214 608 233 608 z "},"+":{"ha":611,"x_min":63,"x_max":551,"o":"m 256 106 q 213 126 228 106 q 204 171 199 147 l 228 281 l 117 281 q 78 295 93 281 q 63 332 63 310 q 88 389 63 365 q 144 413 114 413 l 256 413 l 276 510 q 306 556 282 538 q 356 575 329 575 q 394 559 381 575 q 408 522 408 543 q 407 510 408 514 l 386 413 l 499 413 q 537 397 522 413 q 551 360 551 382 q 526 305 551 329 q 471 281 501 281 l 358 281 l 335 171 q 305 124 328 143 q 256 106 282 106 z "},",":{"ha":268,"x_min":-44,"x_max":161,"o":"m 6 -117 q -31 -103 -17 -117 q -44 -71 -44 -90 q -35 -36 -44 -53 l 4 29 q 0 53 0 42 q 32 126 0 92 q 103 160 64 160 q 144 144 128 160 q 161 104 161 128 q 142 40 161 75 q 81 -64 107 -25 q 45 -104 63 -92 q 6 -117 28 -117 z "},"-":{"ha":568,"x_min":64,"x_max":510,"o":"m 117 283 q 79 299 94 283 q 64 336 64 314 q 90 390 64 367 q 144 414 117 414 l 457 414 q 495 399 481 414 q 510 361 510 385 q 484 308 510 332 q 429 283 458 283 l 117 283 z "},".":{"ha":238,"x_min":-15,"x_max":144,"o":"m 43 0 q 1 17 17 0 q -15 60 -15 33 q 17 134 -15 100 q 88 168 49 168 q 128 151 113 168 q 144 108 144 135 q 113 34 144 68 q 43 0 82 0 z "},"/":{"ha":649,"x_min":-25,"x_max":729,"o":"m 31 -1 q -10 15 6 -1 q -25 53 -25 31 q -19 77 -25 64 q -8 97 -14 90 l 610 903 q 640 928 622 919 q 675 936 657 936 q 714 921 699 936 q 729 885 729 906 q 723 858 729 872 q 711 836 717 844 q 704 825 706 828 l 96 33 q 66 8 83 17 q 31 -1 49 -1 z "},":":{"ha":274,"x_min":-18,"x_max":275,"o":"m 172 443 q 130 460 146 443 q 114 503 114 478 q 147 576 114 542 q 217 611 179 611 q 258 594 242 611 q 275 551 275 576 q 242 477 275 511 q 172 443 208 443 m 39 -8 q -3 8 13 -8 q -18 50 -18 25 q 15 126 -18 92 q 85 160 49 160 q 125 143 110 160 q 140 101 140 126 q 108 25 140 58 q 39 -8 76 -8 z "},";":{"ha":328,"x_min":-44,"x_max":315,"o":"m 213 443 q 171 460 186 443 q 156 501 156 476 q 188 576 156 542 q 258 611 221 611 q 300 594 285 611 q 315 551 315 578 q 283 477 315 511 q 213 443 251 443 m 6 -117 q -31 -103 -17 -117 q -44 -71 -44 -90 q -35 -36 -44 -53 l 4 29 q 0 53 0 42 q 32 126 0 92 q 103 160 64 160 q 144 144 128 160 q 161 104 161 128 q 142 40 161 75 q 81 -64 107 -25 q 45 -104 63 -92 q 6 -117 28 -117 z "},"<":{"ha":629,"x_min":39,"x_max":660,"o":"m 442 10 q 407 21 422 10 l 63 283 q 39 329 39 301 q 83 400 39 375 l 558 668 q 606 683 585 683 q 644 668 629 683 q 660 631 660 653 q 648 590 660 610 q 615 560 636 569 l 221 336 l 496 125 q 515 85 515 110 q 492 31 515 53 q 442 10 469 10 z "},"=":{"ha":647,"x_min":50,"x_max":600,"o":"m 157 406 q 119 420 133 406 q 104 456 104 435 q 130 513 104 489 q 185 538 156 538 l 546 538 q 584 522 568 538 q 600 482 600 506 q 573 431 600 456 q 518 406 546 406 l 157 406 m 103 156 q 65 170 79 156 q 50 207 50 185 q 75 263 50 238 q 131 288 100 288 l 492 288 q 530 272 514 288 q 546 233 546 256 q 519 179 546 203 q 464 156 492 156 l 103 156 z "},">":{"ha":624,"x_min":-8,"x_max":588,"o":"m 46 10 q 8 26 24 10 q -8 65 -8 42 q 5 103 -8 86 q 36 132 18 121 l 407 347 l 108 565 q 89 607 89 581 q 113 662 89 640 q 165 683 136 683 q 199 672 183 683 l 568 400 q 588 356 588 386 q 576 317 588 336 q 544 288 564 299 l 97 28 q 46 10 67 10 z "},"?":{"ha":679,"x_min":64,"x_max":686,"o":"m 208 221 q 172 235 186 221 q 157 274 157 250 q 172 313 157 294 q 228 361 188 332 l 390 479 q 510 596 467 540 q 554 706 554 651 q 517 794 554 758 q 403 829 481 829 q 315 807 354 829 q 242 753 276 785 q 182 725 210 725 q 144 739 160 725 q 128 775 128 753 q 142 817 128 799 q 178 856 156 836 q 292 929 226 899 q 431 960 358 960 q 617 899 549 960 q 686 738 686 839 q 632 551 686 626 q 486 407 578 476 l 304 269 q 244 231 264 240 q 208 221 225 221 m 122 0 q 80 17 96 0 q 64 60 64 33 q 97 135 64 101 q 167 168 131 168 q 208 151 192 168 q 224 110 224 135 q 191 34 224 68 q 122 0 158 0 z "},"@":{"ha":1079,"x_min":50,"x_max":1046,"o":"m 760 501 q 747 463 760 481 q 715 435 735 444 q 738 389 738 419 q 725 347 738 372 q 717 328 724 344 q 710 292 710 311 q 725 250 710 265 q 767 235 740 235 q 845 270 813 235 q 894 359 878 306 q 910 465 910 413 q 839 650 910 583 q 646 717 768 717 q 417 654 522 717 q 248 485 311 592 q 185 256 185 379 q 265 51 185 117 q 489 -15 344 -15 q 667 32 588 -15 q 703 50 692 46 q 725 54 714 54 q 767 38 750 54 q 783 0 783 22 q 768 -43 783 -24 q 717 -83 753 -62 q 603 -126 672 -108 q 454 -143 535 -143 q 242 -99 333 -143 q 100 30 150 -54 q 50 229 50 114 q 136 534 50 392 q 366 763 222 676 q 675 849 510 849 q 864 801 779 849 q 997 674 949 754 q 1046 494 1046 593 q 1005 299 1046 388 q 896 161 964 211 q 750 111 828 111 q 654 140 694 111 q 601 213 614 169 q 439 129 522 129 q 335 169 376 129 q 294 283 294 208 q 340 426 294 353 q 457 548 385 500 q 606 596 529 596 q 719 564 676 596 q 751 533 743 546 q 760 501 760 519 m 613 394 q 657 436 629 422 l 639 449 q 626 457 636 450 q 603 468 615 464 q 579 472 592 472 q 508 447 543 472 q 451 383 474 422 q 429 303 429 343 q 468 260 429 260 q 538 301 496 260 q 613 394 581 343 z "},"A":{"ha":767,"x_min":-47,"x_max":697,"o":"m 618 -10 q 575 5 590 -10 q 557 46 560 19 l 518 326 l 221 264 l 82 36 q 10 -8 54 -8 q -31 8 -15 -8 q -47 47 -47 24 q -36 85 -47 65 l 57 238 l 51 240 q 21 289 21 254 q 41 341 21 318 q 90 371 61 364 l 143 382 l 460 904 q 493 935 472 924 q 535 947 514 947 q 572 936 557 947 q 589 901 586 925 l 696 97 q 697 79 697 90 q 675 15 697 39 q 618 -10 653 -10 m 499 456 l 472 679 l 313 417 l 499 456 z "},"B":{"ha":849,"x_min":43,"x_max":801,"o":"m 107 -11 q 43 40 43 -11 q 46 63 43 46 l 215 863 q 246 910 221 890 q 297 931 271 931 l 533 931 q 734 874 667 931 q 801 726 801 818 q 772 611 801 671 q 694 511 742 551 q 796 350 796 460 q 605 74 796 160 q 107 -11 414 -11 m 508 554 q 583 577 549 554 q 639 635 618 600 q 660 700 660 669 q 620 770 660 744 q 504 796 581 796 l 339 796 l 289 554 l 508 554 m 197 124 q 531 176 408 131 q 654 311 654 221 q 610 389 654 358 q 490 419 567 419 l 260 419 l 197 124 z "},"C":{"ha":810,"x_min":60,"x_max":871,"o":"m 386 -11 q 217 31 290 -11 q 101 147 143 72 q 60 315 60 221 q 144 593 60 446 q 357 840 228 740 q 611 939 486 939 q 702 926 660 939 q 774 892 744 913 q 817 907 796 907 q 856 892 840 907 q 871 853 871 876 q 869 838 871 843 l 847 754 q 817 705 839 725 q 761 685 794 685 q 722 702 738 685 q 711 742 707 719 l 713 749 q 583 804 669 804 q 408 727 497 804 q 261 540 319 650 q 203 340 203 431 q 263 181 203 239 q 415 124 324 124 q 661 238 551 124 q 721 265 689 265 q 761 249 744 265 q 778 210 778 233 q 754 154 778 181 q 581 32 676 75 q 386 -11 486 -11 z "},"D":{"ha":869,"x_min":42,"x_max":840,"o":"m 243 -21 q 82 3 176 -21 q 53 23 65 7 q 42 58 42 39 q 43 71 42 67 l 217 883 q 247 932 222 913 q 300 951 271 951 q 583 906 461 951 q 772 772 704 861 q 840 556 840 683 q 764 256 840 388 q 551 52 688 125 q 243 -21 415 -21 m 274 115 q 497 165 401 115 q 645 308 593 215 q 697 521 697 400 q 600 730 697 660 q 340 813 503 800 l 194 124 q 274 115 239 115 z "},"E":{"ha":828,"x_min":40,"x_max":908,"o":"m 101 0 q 56 19 72 0 q 46 64 40 38 l 215 861 q 246 910 222 890 q 299 931 269 931 l 853 931 q 893 915 878 931 q 908 876 908 900 q 882 818 908 844 q 824 792 856 792 l 338 792 l 285 544 l 707 544 q 747 530 732 544 q 761 492 761 515 q 736 433 761 458 q 678 407 711 407 l 256 407 l 199 139 l 682 139 q 722 124 707 139 q 736 85 736 108 q 711 26 736 51 q 653 0 686 0 l 101 0 z "},"F":{"ha":807,"x_min":43,"x_max":908,"o":"m 99 -10 q 58 6 72 -10 q 43 46 43 22 q 44 60 43 56 l 215 861 q 246 910 222 890 q 299 931 269 931 l 853 931 q 893 915 878 931 q 908 876 908 900 q 882 818 908 844 q 824 792 856 792 l 339 792 l 288 549 l 657 549 q 697 533 682 549 q 711 493 711 518 q 685 435 711 461 q 626 410 658 410 l 257 410 l 183 60 q 153 10 178 31 q 99 -10 128 -10 z "},"G":{"ha":981,"x_min":67,"x_max":942,"o":"m 401 -10 q 220 38 296 -10 q 106 167 144 86 q 67 346 67 247 q 146 628 67 489 q 355 853 225 767 q 625 940 485 940 q 806 896 735 940 q 910 791 878 851 q 940 683 942 731 q 915 622 939 643 q 860 600 892 600 q 821 610 836 600 q 801 649 806 621 q 740 759 790 714 q 594 804 690 804 q 408 740 497 804 q 265 577 319 676 q 210 379 210 478 q 272 192 210 257 q 432 126 333 126 q 597 172 521 126 q 722 301 674 218 q 636 293 683 301 l 599 285 q 554 278 571 278 q 515 292 531 278 q 500 331 500 306 q 517 381 500 360 q 563 414 535 403 q 644 432 589 425 q 757 439 700 439 q 906 415 833 439 q 939 369 939 404 q 922 317 939 340 q 881 286 906 294 q 857 282 865 281 q 669 72 790 153 q 401 -10 549 -10 z "},"H":{"ha":993,"x_min":39,"x_max":1003,"o":"m 100 -8 q 55 13 71 -8 q 44 60 39 35 l 218 869 q 248 918 224 899 q 300 938 272 938 q 342 922 325 938 q 358 883 358 907 q 357 869 358 874 l 281 508 l 800 579 l 863 869 q 893 918 868 899 q 946 938 918 938 q 986 922 969 938 q 1003 883 1003 906 q 1001 869 1003 874 l 829 60 q 799 13 824 33 q 746 -8 774 -8 q 700 13 715 -8 q 690 60 685 33 l 771 439 l 250 368 l 183 60 q 153 11 176 31 q 100 -8 131 -8 z "},"I":{"ha":563,"x_min":-14,"x_max":626,"o":"m 42 0 q 1 15 17 0 q -14 54 -14 31 q 13 113 -14 88 q 72 139 39 139 l 169 139 l 307 792 l 210 792 q 169 808 185 792 q 154 847 154 824 q 180 906 154 881 q 239 931 206 931 l 571 931 q 611 916 596 931 q 626 878 626 901 q 601 818 626 844 q 542 792 575 792 l 446 792 l 308 139 l 401 139 q 443 125 428 139 q 458 86 458 111 q 433 26 458 53 q 374 0 407 0 l 42 0 z "},"J":{"ha":654,"x_min":0,"x_max":724,"o":"m 215 -8 q 56 42 111 -8 q 0 188 0 93 q 23 281 0 247 q 90 315 46 315 q 131 300 115 315 q 146 261 146 285 q 143 238 146 253 q 140 213 140 224 q 168 151 140 171 q 244 131 196 131 q 335 157 300 131 q 381 229 371 183 l 500 793 l 374 793 q 333 808 349 793 q 317 847 317 824 q 344 905 317 879 q 403 931 371 931 l 668 931 q 708 915 692 931 q 724 876 724 899 q 703 824 724 847 q 656 796 682 800 l 639 793 l 519 229 q 414 58 497 124 q 215 -8 331 -8 z "},"K":{"ha":779,"x_min":44,"x_max":846,"o":"m 622 -10 q 589 -3 601 -10 q 564 17 576 4 l 238 332 l 182 60 q 156 11 176 31 q 104 -8 135 -8 q 62 10 79 -8 q 44 57 44 29 q 46 74 44 68 l 215 869 q 242 920 222 903 q 292 938 263 938 q 335 919 317 938 q 354 871 354 900 q 351 851 354 865 l 294 600 l 728 913 q 758 933 746 926 q 789 939 771 939 q 829 921 813 939 q 846 879 846 903 q 838 847 846 861 q 807 818 829 833 l 303 458 l 672 113 q 697 60 697 89 q 676 10 697 31 q 622 -10 656 -10 z "},"L":{"ha":693,"x_min":39,"x_max":636,"o":"m 103 -8 q 56 11 72 -10 q 44 60 39 32 l 217 871 q 247 919 222 899 q 300 939 272 939 q 344 918 329 939 q 354 871 360 897 l 197 133 l 575 158 q 621 146 606 160 q 636 107 636 132 q 611 50 636 75 q 557 22 586 25 l 103 -8 z "},"M":{"ha":1118,"x_min":-25,"x_max":1018,"o":"m 29 -8 q -11 8 3 -8 q -25 49 -25 25 q -18 82 -25 64 l 328 883 q 360 923 338 908 q 407 938 382 938 q 445 925 431 938 q 461 890 460 913 l 526 275 l 879 893 q 958 938 906 938 q 995 923 982 938 q 1008 883 1008 908 l 1018 74 q 999 14 1018 36 q 944 -8 979 -8 q 899 11 918 -8 q 879 60 879 31 l 874 625 l 538 40 q 461 -8 510 -8 q 424 6 440 -8 q 407 43 408 21 l 346 604 l 107 47 q 76 7 96 22 q 29 -8 56 -8 z "},"N":{"ha":906,"x_min":42,"x_max":918,"o":"m 97 -8 q 58 8 75 -8 q 42 47 42 25 q 43 60 42 56 l 217 869 q 246 918 224 899 q 297 938 268 938 q 351 901 333 938 l 649 279 l 775 869 q 806 919 782 899 q 858 939 829 939 q 903 917 888 939 q 913 869 918 894 l 740 60 q 713 12 735 32 q 663 -8 692 -8 q 599 38 621 -8 l 307 649 l 181 60 q 151 11 175 31 q 97 -8 126 -8 z "},"O":{"ha":881,"x_min":64,"x_max":871,"o":"m 340 -11 q 193 31 256 -11 q 97 146 131 72 q 64 314 64 219 q 138 608 64 463 q 334 846 211 753 q 594 939 457 939 q 742 897 679 939 q 838 782 804 856 q 871 614 871 708 q 797 320 871 465 q 601 82 724 175 q 340 -11 478 -11 m 375 121 q 538 188 454 121 q 677 364 622 256 q 732 588 732 472 q 686 746 732 685 q 560 807 640 807 q 397 740 481 807 q 258 564 313 672 q 203 340 203 456 q 249 182 203 243 q 375 121 294 121 z "},"P":{"ha":769,"x_min":36,"x_max":825,"o":"m 100 -8 q 53 15 69 -8 q 40 61 36 38 l 213 853 q 231 906 221 890 q 272 931 242 922 q 365 939 301 939 q 710 878 596 939 q 825 700 825 817 q 736 487 825 575 q 511 353 647 399 q 233 301 375 307 l 182 60 q 152 11 175 31 q 100 -8 129 -8 m 263 438 q 451 467 354 443 q 615 540 547 490 q 683 665 683 590 q 603 766 683 731 q 385 801 524 801 l 339 801 l 263 438 z "},"Q":{"ha":965,"x_min":61,"x_max":954,"o":"m 828 86 q 846 47 846 69 q 821 -15 846 10 q 763 -39 796 -39 q 726 -29 738 -39 l 622 61 q 376 -11 500 -11 q 209 33 281 -11 q 99 153 138 76 q 61 324 61 229 q 146 613 61 471 q 365 846 231 756 q 639 936 499 936 q 806 892 735 936 q 916 772 878 849 q 954 600 954 696 q 898 365 954 483 q 747 156 842 246 l 828 86 m 406 124 q 519 147 461 124 l 458 200 q 438 238 438 218 q 463 299 438 272 q 524 326 489 326 q 565 313 550 326 l 653 238 q 764 391 722 303 q 806 564 806 479 q 750 733 806 664 q 600 801 694 801 q 412 734 503 801 q 265 561 321 667 q 208 350 208 456 q 261 187 208 250 q 406 124 314 124 z "},"R":{"ha":810,"x_min":40,"x_max":828,"o":"m 828 703 q 751 507 828 597 q 539 375 675 417 q 699 172 636 311 q 731 71 731 101 q 705 16 731 40 q 647 -8 679 -8 q 593 29 608 -8 q 326 315 483 315 q 232 307 285 315 l 179 60 q 149 11 174 31 q 97 -8 125 -8 q 56 6 71 -8 q 40 44 40 21 q 42 60 40 54 l 214 863 q 246 928 224 910 q 319 946 268 946 l 392 946 q 706 890 583 946 q 828 703 828 835 m 260 442 q 463 468 364 442 q 624 546 561 494 q 686 669 686 597 q 603 777 686 740 q 367 814 521 814 l 339 814 l 260 442 z "},"S":{"ha":758,"x_min":4,"x_max":792,"o":"m 315 -8 q 160 22 232 -8 q 47 102 89 51 q 4 213 4 153 q 28 273 4 249 q 82 297 51 297 q 125 283 110 297 q 143 246 140 269 q 207 151 151 183 q 338 119 263 119 q 449 144 397 119 q 530 208 500 168 q 560 293 560 249 q 523 363 560 333 q 383 424 486 392 q 206 510 274 458 q 139 658 139 563 q 188 800 139 736 q 326 901 236 864 q 531 939 415 939 q 722 893 651 939 q 792 775 792 847 q 767 694 792 725 q 704 663 743 663 q 667 676 682 663 q 651 707 651 689 q 653 720 651 713 q 656 736 656 728 q 615 789 656 767 q 500 811 574 811 q 338 773 397 811 q 278 676 278 735 q 322 608 278 636 q 469 543 365 579 q 640 452 582 506 q 699 322 699 399 q 644 157 699 233 q 500 36 589 81 q 315 -8 411 -8 z "},"T":{"ha":719,"x_min":115,"x_max":829,"o":"m 303 -8 q 258 13 274 -8 q 247 60 242 35 l 403 800 l 169 800 q 131 815 146 800 q 115 853 115 829 q 141 906 115 882 q 199 931 167 931 l 774 931 q 814 916 799 931 q 829 878 829 901 q 803 825 829 850 q 744 800 776 800 l 540 800 l 385 60 q 354 11 379 31 q 303 -8 329 -8 z "},"U":{"ha":929,"x_min":93,"x_max":967,"o":"m 376 -8 q 165 85 238 -8 q 93 340 93 178 q 111 516 93 418 q 169 800 129 614 q 185 865 182 849 q 213 915 192 893 q 272 938 233 938 q 313 921 299 938 q 328 883 328 904 q 326 871 328 875 q 258 566 282 694 q 233 356 233 438 q 406 119 233 119 q 583 181 501 119 q 708 376 664 242 q 756 544 736 463 q 797 736 775 625 l 825 868 q 908 938 839 938 q 953 919 940 938 q 963 872 967 900 q 910 599 935 708 q 844 367 886 489 q 668 91 783 190 q 376 -8 553 -8 z "},"V":{"ha":747,"x_min":115,"x_max":853,"o":"m 278 -8 q 240 3 256 -8 q 222 38 225 15 l 121 843 q 142 908 115 881 q 207 936 168 936 q 243 924 228 936 q 261 889 258 913 l 340 260 l 724 893 q 756 925 736 914 q 797 936 776 936 q 838 920 822 936 q 853 882 853 904 q 840 843 853 863 l 350 35 q 278 -8 324 -8 z "},"W":{"ha":1176,"x_min":117,"x_max":1289,"o":"m 249 -8 q 209 6 221 -8 q 194 46 197 19 l 121 839 q 141 909 117 881 q 203 938 165 938 q 242 925 228 938 q 260 889 257 913 l 314 290 l 635 886 q 713 938 663 938 q 767 889 763 938 l 804 289 l 1157 904 q 1235 953 1186 953 q 1274 940 1258 953 q 1289 906 1289 926 q 1271 847 1289 878 l 806 36 q 776 3 794 15 q 735 -8 757 -8 q 678 42 682 -8 l 640 628 l 325 39 q 292 1 310 11 q 249 -8 274 -8 z "},"X":{"ha":864,"x_min":-40,"x_max":951,"o":"m 17 -8 q -25 8 -10 -8 q -40 47 -40 24 q -33 77 -40 61 q -14 104 -25 93 l 374 472 l 167 826 q 158 857 158 842 q 186 913 158 889 q 244 938 214 938 q 272 931 258 938 q 292 913 285 925 l 488 581 l 836 913 q 894 938 864 938 q 935 921 918 938 q 951 881 951 904 q 942 851 951 867 q 924 825 933 835 l 551 471 l 765 101 q 772 75 772 88 q 747 19 772 46 q 689 -8 722 -8 q 638 19 653 -8 l 436 361 l 72 17 q 44 -3 57 3 q 17 -8 32 -8 z "},"Y":{"ha":808,"x_min":128,"x_max":922,"o":"m 186 -8 q 146 8 161 -8 q 131 47 131 24 q 151 99 131 72 l 328 313 l 133 836 q 128 861 128 849 q 150 916 128 894 q 200 938 172 938 q 232 928 218 938 q 251 903 246 919 l 425 438 l 800 904 q 867 938 828 938 q 906 922 889 938 q 922 883 922 907 q 897 825 922 856 l 253 26 q 186 -8 225 -8 z "},"Z":{"ha":800,"x_min":-35,"x_max":890,"o":"m 28 0 q -19 15 -4 0 q -35 56 -35 29 q -3 125 -35 93 l 672 788 l 206 788 q 166 803 182 788 q 150 844 150 819 q 178 905 150 879 q 236 931 206 931 l 829 931 q 873 914 856 931 q 890 872 890 897 q 863 811 890 838 l 183 142 l 650 142 q 691 126 675 142 q 707 88 707 111 q 681 28 707 56 q 621 0 656 0 l 28 0 z "},"[":{"ha":451,"x_min":-8,"x_max":533,"o":"m 44 -157 q 6 -142 19 -157 q -8 -106 -8 -128 q -7 -89 -8 -94 l 228 1013 q 258 1060 235 1040 q 308 1081 282 1081 l 481 1081 q 518 1065 503 1081 q 533 1026 533 1050 q 508 970 533 994 q 451 946 483 946 l 346 946 l 140 -22 l 226 -22 q 265 -38 249 -22 q 281 -78 281 -54 q 254 -133 281 -108 q 197 -157 228 -157 l 44 -157 z "},"\\":{"ha":635,"x_min":140,"x_max":551,"o":"m 467 -1 q 418 33 431 -1 l 146 825 q 140 857 140 842 q 167 913 140 889 q 222 936 193 936 q 274 903 261 936 l 544 108 q 551 83 551 89 q 526 26 551 53 q 467 -1 501 -1 z "},"]":{"ha":450,"x_min":-31,"x_max":511,"o":"m 22 -157 q -15 -142 0 -157 q -31 -103 -31 -126 q -5 -47 -31 -72 q 51 -22 21 -22 l 157 -22 l 363 946 l 276 946 q 238 963 254 946 q 222 1001 222 979 q 248 1058 222 1036 q 306 1081 274 1081 l 458 1081 q 497 1065 483 1081 q 511 1028 511 1050 q 510 1013 511 1018 l 276 -89 q 247 -136 271 -115 q 194 -157 224 -157 l 22 -157 z "},"^":{"ha":538,"x_min":96,"x_max":536,"o":"m 149 499 q 110 513 125 499 q 96 549 96 528 q 114 599 96 576 l 325 860 q 401 900 358 900 q 440 888 426 900 q 460 854 453 876 l 529 606 q 536 568 536 583 q 510 521 536 543 q 457 499 485 499 q 411 535 418 499 l 367 751 l 214 533 q 149 499 189 499 z "},"_":{"ha":819,"x_min":-53,"x_max":700,"o":"m 0 -133 q -37 -119 -22 -133 q -53 -82 -53 -104 q -27 -24 -53 -49 q 28 0 -1 0 l 646 0 q 685 -15 669 0 q 700 -54 700 -31 q 674 -109 700 -85 q 618 -133 649 -133 l 0 -133 z "},"`":{"ha":364,"x_min":136,"x_max":458,"o":"m 404 733 q 353 754 376 733 l 171 908 q 136 974 136 938 q 153 1018 136 1000 q 197 1036 171 1036 q 233 1028 214 1036 q 265 1006 251 1019 l 432 840 q 452 815 446 826 q 458 788 458 803 q 443 749 458 765 q 404 733 428 733 z "},"a":{"ha":706,"x_min":36,"x_max":671,"o":"m 249 -8 q 94 51 151 -8 q 36 213 36 111 q 97 434 36 324 q 256 615 157 544 q 461 685 354 685 q 574 667 525 685 q 671 625 624 650 l 549 47 q 519 -3 542 15 q 468 -22 497 -22 q 430 -9 444 -22 q 415 26 415 4 q 417 42 415 36 l 421 61 q 335 9 381 26 q 249 -8 290 -8 m 282 119 q 366 137 325 119 q 440 178 407 154 l 521 540 q 438 557 483 557 q 311 507 372 557 q 211 382 250 457 q 172 236 172 307 q 200 147 172 174 q 282 119 228 119 z "},"b":{"ha":731,"x_min":32,"x_max":693,"o":"m 89 -7 q 47 12 63 -7 q 38 56 32 31 l 210 863 q 238 908 215 890 q 289 925 261 925 q 332 906 317 925 q 342 863 347 886 l 285 597 q 387 654 332 635 q 497 674 442 674 q 644 615 596 674 q 693 457 693 557 q 669 310 693 389 q 607 171 644 231 q 482 46 557 92 q 317 0 407 0 q 226 14 269 0 q 158 44 182 28 l 156 33 q 132 4 151 15 q 89 -7 113 -7 m 318 125 q 423 151 379 125 q 500 228 467 176 q 543 326 526 269 q 560 428 560 383 q 454 549 560 549 q 319 503 382 549 q 242 394 256 457 l 190 154 q 318 125 256 125 z "},"c":{"ha":654,"x_min":38,"x_max":640,"o":"m 297 -8 q 165 22 225 -8 q 72 108 106 53 q 38 233 38 163 q 99 440 38 333 q 256 616 161 546 q 443 686 351 686 q 618 608 560 686 q 640 556 640 578 q 615 501 640 525 q 558 476 590 476 q 518 493 531 476 q 474 544 496 528 q 415 560 451 560 q 306 510 364 560 q 210 388 249 460 q 171 257 171 317 q 213 156 171 194 q 307 117 254 117 q 401 138 361 117 q 478 196 442 158 q 508 221 493 211 q 544 231 524 231 q 582 216 567 231 q 597 179 597 201 q 589 147 597 163 q 571 122 581 132 q 444 30 519 68 q 297 -8 369 -8 z "},"d":{"ha":728,"x_min":38,"x_max":756,"o":"m 231 -7 q 91 51 144 -7 q 38 215 38 110 q 88 439 38 331 q 226 615 138 547 q 425 683 315 683 q 564 642 504 683 l 619 867 q 651 915 626 894 q 703 935 675 935 q 741 919 728 935 q 756 881 754 903 q 753 864 756 875 l 563 56 q 532 10 556 28 q 481 -8 508 -8 q 442 6 456 -8 q 428 42 428 19 q 429 58 428 53 l 436 86 q 341 19 396 44 q 231 -7 286 -7 m 268 118 q 362 140 317 118 q 438 194 407 161 q 476 260 468 226 l 536 515 q 478 545 514 532 q 407 558 443 558 q 283 510 336 558 q 201 388 229 463 q 174 236 174 313 q 199 148 174 178 q 268 118 224 118 z "},"e":{"ha":683,"x_min":43,"x_max":665,"o":"m 324 -8 q 119 61 196 -8 q 43 253 43 131 q 99 460 43 360 q 246 622 154 560 q 440 685 338 685 q 567 656 517 685 q 642 586 618 628 q 665 506 665 544 q 651 456 665 476 q 608 421 638 436 l 190 207 q 240 140 196 164 q 340 117 285 117 q 500 176 431 117 q 551 199 528 199 q 590 185 575 199 q 604 151 604 172 q 597 118 604 132 q 572 89 590 104 q 457 20 528 49 q 324 -8 386 -8 m 531 501 q 493 547 521 532 q 424 563 465 563 q 258 486 335 563 q 201 404 222 450 q 176 322 179 358 l 531 501 z "},"f":{"ha":447,"x_min":54,"x_max":603,"o":"m 117 -8 q 74 11 90 -8 q 63 56 57 31 l 169 558 l 106 558 q 69 574 83 558 q 54 611 54 589 q 79 661 54 638 q 132 685 104 685 l 199 685 q 310 872 232 818 q 533 926 388 926 q 603 882 603 926 q 578 822 603 847 q 521 797 554 797 q 424 790 458 797 q 368 758 390 782 q 332 685 346 733 l 474 683 q 508 669 493 683 q 524 635 524 654 q 499 583 524 607 q 446 558 474 558 l 303 558 l 196 56 q 166 11 190 31 q 117 -8 142 -8 z "},"g":{"ha":718,"x_min":1,"x_max":690,"o":"m 200 -242 q 40 -222 118 -242 q 12 -204 22 -218 q 1 -171 1 -190 q 27 -115 1 -140 q 83 -90 53 -90 q 135 -97 103 -90 q 226 -108 185 -108 q 346 -72 300 -108 q 414 40 392 -36 l 422 68 q 263 4 344 4 q 102 67 164 4 q 40 242 40 131 q 101 455 40 351 q 258 622 161 558 q 457 686 354 686 q 567 657 514 686 q 594 688 576 676 q 631 700 611 700 q 676 688 661 700 q 690 653 690 676 q 688 626 690 636 l 551 46 q 424 -169 518 -96 q 200 -242 331 -242 m 281 135 q 412 192 356 135 q 492 360 468 250 l 528 528 q 485 546 511 539 q 433 553 458 553 q 308 514 369 553 q 208 410 246 475 q 169 269 169 344 q 199 170 169 206 q 281 135 228 135 z "},"h":{"ha":735,"x_min":32,"x_max":664,"o":"m 90 -10 q 48 10 64 -10 q 38 57 32 31 l 208 857 q 239 905 215 885 q 289 925 263 925 q 328 909 314 925 q 343 871 343 893 q 342 857 343 861 l 275 544 q 396 647 326 606 q 526 688 465 688 q 631 641 597 688 q 664 499 664 594 q 639 284 664 424 q 586 53 614 144 q 556 9 578 26 q 508 -8 535 -8 q 468 6 482 -8 q 454 42 454 21 q 456 56 454 51 l 472 131 q 515 332 501 257 q 529 471 529 407 q 519 537 529 518 q 485 556 510 556 q 373 500 435 556 q 269 388 311 444 q 236 329 247 357 q 217 267 225 301 l 172 60 q 142 9 165 28 q 90 -10 118 -10 z "},"i":{"ha":338,"x_min":36,"x_max":353,"o":"m 257 743 q 219 758 235 743 q 204 794 204 772 q 207 811 204 800 l 219 863 q 250 908 225 889 q 300 928 275 928 q 338 912 322 928 q 353 874 353 896 q 351 861 353 865 l 338 808 q 308 762 331 781 q 257 743 285 743 m 92 -8 q 52 7 68 -8 q 36 46 36 22 q 38 60 36 54 l 161 613 q 192 660 167 640 q 244 681 217 681 q 284 666 269 681 q 299 628 299 651 q 297 613 299 618 l 174 60 q 144 12 168 32 q 92 -8 119 -8 z "},"j":{"ha":390,"x_min":-192,"x_max":408,"o":"m 307 754 q 271 768 286 754 q 256 804 256 782 q 258 824 256 810 l 276 883 q 306 923 283 907 q 354 939 328 939 q 394 924 381 939 q 408 886 408 908 q 406 868 408 879 l 388 808 q 358 769 381 785 q 307 754 335 754 m -12 -236 q -103 -207 -62 -236 q -168 -129 -144 -178 q -192 -26 -192 -81 q -168 31 -192 8 q -112 54 -144 54 q -58 7 -62 54 q -37 -76 -54 -42 q 11 -110 -19 -110 q 56 -79 39 -110 q 86 14 74 -49 l 208 619 q 238 668 215 649 q 289 688 260 688 q 331 666 314 688 q 343 621 349 644 l 219 21 q 134 -169 194 -101 q -12 -236 74 -236 z "},"k":{"ha":678,"x_min":36,"x_max":688,"o":"m 94 -8 q 52 13 68 -8 q 42 58 36 33 l 208 860 q 239 906 214 886 q 290 925 264 925 q 330 909 315 925 q 344 871 344 893 q 343 857 344 861 l 249 407 q 412 536 317 456 q 575 681 507 617 q 635 708 603 708 q 673 694 658 708 q 688 660 688 681 q 654 594 688 628 q 545 494 611 551 q 428 396 479 436 l 593 115 q 607 74 607 92 q 581 19 607 43 q 524 -4 556 -4 q 472 28 489 -4 q 311 315 381 196 q 219 260 301 308 l 176 58 q 147 12 171 32 q 94 -8 122 -8 z "},"l":{"ha":329,"x_min":33,"x_max":349,"o":"m 93 -8 q 49 13 65 -8 q 38 54 33 33 l 210 860 q 239 906 217 888 q 290 925 261 925 q 333 904 318 925 q 343 860 349 883 l 172 54 q 142 10 167 29 q 93 -8 117 -8 z "},"m":{"ha":1106,"x_min":36,"x_max":1051,"o":"m 90 -8 q 51 6 67 -8 q 36 43 36 21 q 38 57 36 53 l 157 618 q 187 665 163 644 q 238 685 211 685 q 281 665 265 685 q 290 618 296 644 l 269 521 q 533 685 392 685 q 626 651 590 685 q 665 551 661 618 q 910 685 782 685 q 1015 644 978 685 q 1051 521 1051 603 q 1040 421 1051 471 l 963 57 q 933 11 957 31 q 882 -8 908 -8 q 843 6 858 -8 q 828 43 828 21 q 829 57 828 53 l 908 429 q 915 489 915 458 q 902 540 915 524 q 860 557 889 557 q 772 525 819 557 q 688 438 725 493 q 636 315 651 382 l 582 57 q 552 10 575 29 q 501 -8 529 -8 q 463 6 478 -8 q 447 43 447 21 q 449 57 447 53 l 528 429 q 536 494 536 469 q 524 542 536 526 q 486 557 513 557 q 392 522 442 557 q 299 436 342 486 q 213 261 233 354 l 171 57 q 142 11 165 31 q 90 -8 118 -8 z "},"n":{"ha":754,"x_min":32,"x_max":690,"o":"m 90 -8 q 48 11 64 -8 q 38 56 32 31 l 157 619 q 188 667 163 647 q 240 686 213 686 q 277 672 263 686 q 292 635 292 657 q 290 619 292 625 l 268 514 q 394 641 325 597 q 533 685 463 685 q 652 645 614 685 q 690 513 690 606 q 663 301 690 426 l 610 58 q 582 12 604 32 q 532 -8 560 -8 q 490 12 506 -8 q 479 57 474 32 l 528 288 q 554 472 554 411 q 539 538 554 519 q 493 556 524 556 q 402 520 451 556 q 303 419 353 485 q 235 308 260 363 q 194 178 211 254 l 169 61 q 142 11 164 31 q 90 -8 121 -8 z "},"o":{"ha":717,"x_min":39,"x_max":678,"o":"m 265 -8 q 101 60 163 -8 q 39 238 39 129 q 99 448 39 343 q 254 619 158 553 q 451 686 350 686 q 571 653 519 686 q 650 565 622 621 q 678 439 678 508 q 618 229 678 333 q 463 58 558 125 q 265 -8 367 -8 m 290 115 q 407 160 350 115 q 500 275 464 206 q 536 411 536 344 q 504 519 536 476 q 419 563 472 563 q 303 515 360 563 q 210 397 246 468 q 175 257 175 325 q 206 155 175 194 q 290 115 236 115 z "},"p":{"ha":725,"x_min":-18,"x_max":689,"o":"m 39 -254 q -3 -233 11 -254 q -14 -187 -18 -211 l 157 618 q 187 667 163 647 q 240 686 211 686 q 278 672 264 686 q 290 638 293 657 l 288 618 q 389 667 333 649 q 504 686 444 686 q 640 626 592 686 q 689 460 689 567 q 661 305 689 389 q 590 158 633 221 q 465 44 539 86 q 292 1 390 1 q 165 29 228 1 l 119 -187 q 90 -235 114 -215 q 39 -254 65 -254 m 329 136 q 503 236 439 136 q 543 333 526 275 q 560 439 560 392 q 538 530 560 499 q 475 561 515 561 q 349 533 404 561 q 260 471 294 506 l 196 167 q 329 136 267 136 z "},"q":{"ha":715,"x_min":35,"x_max":688,"o":"m 400 -247 q 362 -232 375 -247 q 349 -194 349 -217 q 351 -175 349 -189 l 399 15 q 275 -15 344 -15 q 101 47 168 -15 q 35 217 35 108 q 98 442 35 338 q 268 610 161 547 q 499 672 375 672 q 564 664 532 672 l 568 672 q 593 697 574 685 q 635 708 613 708 q 673 695 658 708 q 688 660 688 682 q 685 642 688 653 l 481 -181 q 450 -231 472 -214 q 400 -247 428 -247 m 290 110 q 395 142 351 110 q 453 232 439 174 l 531 542 q 471 546 500 546 q 317 504 388 546 q 206 392 247 463 q 165 243 165 322 q 200 147 165 183 q 290 110 235 110 z "},"r":{"ha":560,"x_min":32,"x_max":604,"o":"m 494 688 q 575 663 546 688 q 604 601 604 638 q 599 557 604 585 q 589 510 594 529 q 560 467 582 485 q 511 449 539 449 q 472 461 486 449 q 458 493 458 474 q 463 518 458 503 q 468 539 468 533 q 447 556 468 556 q 373 526 418 556 q 296 464 328 497 q 235 339 250 418 l 172 56 q 142 11 167 31 q 93 -8 118 -8 q 49 12 67 -8 q 38 56 32 32 l 157 618 q 188 665 163 646 q 240 685 213 685 q 284 667 271 685 q 293 624 297 649 l 286 586 q 384 661 329 635 q 494 688 439 688 z "},"s":{"ha":590,"x_min":3,"x_max":589,"o":"m 233 -8 q 113 19 165 -8 q 31 88 60 46 q 3 171 3 129 q 28 226 3 201 q 83 250 53 250 q 119 238 107 250 q 135 204 132 225 q 170 136 139 161 q 256 111 201 111 q 349 140 311 111 q 388 206 388 169 q 364 252 388 235 q 276 290 340 269 q 143 363 185 321 q 101 467 101 404 q 140 579 101 529 q 243 657 179 629 q 382 685 307 685 q 537 648 485 685 q 589 542 589 611 q 563 455 589 488 q 497 422 536 422 q 458 436 472 422 q 443 472 443 450 q 451 497 443 482 q 460 524 460 513 q 363 568 460 568 q 266 547 299 568 q 233 493 233 525 q 258 447 233 465 q 354 404 282 429 q 483 338 444 374 q 522 238 522 301 q 483 117 522 174 q 376 26 443 60 q 233 -8 310 -8 z "},"t":{"ha":471,"x_min":42,"x_max":546,"o":"m 160 -10 q 117 10 133 -10 q 107 56 101 29 l 213 557 l 96 557 q 56 572 71 557 q 42 610 42 588 q 68 661 42 639 q 128 683 94 683 l 242 683 l 274 835 q 303 882 279 861 q 354 903 328 903 q 394 887 379 903 q 408 849 408 871 q 407 835 408 839 l 375 683 l 493 683 q 531 669 517 683 q 546 633 546 656 q 520 580 546 603 q 464 557 494 557 l 346 557 l 240 56 q 210 9 235 28 q 160 -10 186 -10 z "},"u":{"ha":718,"x_min":58,"x_max":686,"o":"m 211 -12 q 97 26 135 -12 q 58 157 58 65 q 87 376 58 243 q 151 615 115 508 q 232 686 175 686 q 272 674 258 686 q 286 639 286 661 q 281 610 286 632 q 219 388 244 493 q 193 204 193 283 q 207 135 193 157 q 251 113 221 113 q 351 135 300 113 q 426 176 403 158 q 451 199 444 189 q 461 226 458 210 l 549 622 q 577 668 554 650 q 628 686 600 686 q 671 667 656 686 q 681 622 686 649 l 561 58 q 531 11 556 31 q 481 -8 507 -8 q 439 8 456 -8 q 424 46 422 24 l 425 68 q 334 10 392 33 q 211 -12 276 -12 z "},"v":{"ha":592,"x_min":51,"x_max":644,"o":"m 214 -10 q 163 36 171 -10 l 58 567 q 54 586 57 574 q 51 608 51 599 q 78 662 51 639 q 136 685 106 685 q 189 640 181 685 l 264 226 l 518 644 q 549 675 529 664 q 590 686 568 686 q 630 672 615 686 q 644 635 644 657 q 629 592 644 617 l 286 32 q 214 -10 260 -10 z "},"w":{"ha":829,"x_min":75,"x_max":868,"o":"m 131 -11 q 75 46 75 -11 l 76 615 q 101 666 76 643 q 157 689 126 689 q 197 674 183 689 q 210 632 210 658 l 206 279 l 407 638 q 441 674 419 660 q 485 688 463 688 q 540 638 539 688 l 549 272 l 738 635 q 770 673 749 658 q 814 688 792 688 q 853 673 838 688 q 868 636 868 658 q 857 597 868 619 l 560 42 q 486 -11 531 -11 q 447 5 461 -11 q 431 51 432 21 l 415 407 l 204 40 q 131 -11 174 -11 z "},"x":{"ha":667,"x_min":-68,"x_max":732,"o":"m 514 -8 q 467 17 482 -8 l 321 254 l 38 13 q -15 -7 15 -7 q -53 8 -37 -7 q -68 47 -68 24 q -37 108 -68 82 l 254 351 l 115 574 q 104 607 104 592 q 128 661 104 636 q 181 686 153 686 q 225 664 211 686 l 361 435 l 625 663 q 678 683 650 683 q 716 667 700 683 q 732 628 732 651 q 723 597 732 613 q 701 571 714 581 l 426 343 l 571 113 q 586 68 586 89 q 564 15 586 39 q 514 -8 542 -8 z "},"y":{"ha":638,"x_min":11,"x_max":692,"o":"m 64 -257 q 26 -242 42 -257 q 11 -204 11 -228 q 16 -178 11 -189 q 33 -147 21 -167 l 199 100 l 68 560 q 58 606 58 594 q 85 662 58 638 q 142 686 111 686 q 175 674 161 686 q 193 644 189 661 l 304 257 l 564 644 q 597 676 578 665 q 638 688 617 688 q 676 672 661 688 q 692 633 692 657 q 678 592 692 613 l 136 -214 q 105 -244 124 -232 q 64 -257 86 -257 z "},"z":{"ha":597,"x_min":-53,"x_max":643,"o":"m 1 -8 q -39 6 -25 -8 q -53 42 -53 19 q -29 99 -53 75 l 431 549 l 133 549 q 95 563 110 549 q 81 600 81 576 q 106 653 81 631 q 163 676 131 676 l 589 676 q 629 662 615 676 q 643 624 643 647 q 618 568 643 593 l 158 118 l 475 118 q 514 103 499 118 q 529 64 529 88 q 503 14 529 36 q 447 -8 476 -8 l 1 -8 z "},"{":{"ha":524,"x_min":100,"x_max":610,"o":"m 292 -165 q 240 -155 271 -165 q 186 -129 210 -144 q 135 -74 154 -108 q 115 1 115 -40 q 127 83 115 24 q 151 201 139 142 q 178 335 178 318 q 165 378 178 360 q 132 404 151 396 q 100 446 100 417 q 113 494 100 476 q 154 524 126 511 q 216 565 197 543 q 242 619 235 588 l 292 858 q 400 1017 313 953 q 485 1059 436 1043 q 560 1075 535 1075 q 597 1060 583 1075 q 610 1024 610 1046 q 590 971 610 992 q 536 943 571 950 q 422 858 436 924 l 372 621 q 281 464 353 526 q 311 349 311 414 q 278 178 311 325 q 250 36 250 47 q 274 -11 250 6 q 331 -33 299 -28 q 363 -51 351 -37 q 375 -85 375 -65 q 350 -142 375 -118 q 292 -165 325 -165 z "},"|":{"ha":303,"x_min":-24,"x_max":369,"o":"m 32 -221 q -8 -206 8 -221 q -24 -167 -24 -190 q -22 -153 -24 -157 l 233 1047 q 264 1094 239 1075 q 315 1114 289 1114 q 354 1099 339 1114 q 369 1061 369 1085 q 368 1047 369 1053 l 113 -153 q 83 -201 107 -182 q 32 -221 60 -221 z "},"}":{"ha":524,"x_min":-40,"x_max":469,"o":"m 10 -165 q -27 -151 -14 -165 q -40 -114 -40 -136 q -21 -61 -40 -82 q 33 -33 -1 -40 q 147 51 133 -12 l 197 289 q 289 446 217 383 q 258 554 258 496 q 292 729 258 588 q 307 799 294 743 q 319 874 319 856 q 295 921 319 904 q 239 943 271 938 q 206 961 218 947 q 194 994 194 975 q 219 1052 194 1029 q 278 1075 243 1075 q 334 1063 300 1075 q 388 1036 368 1051 q 454 907 454 990 q 419 718 454 881 q 392 575 392 600 q 405 532 392 550 q 438 506 418 514 q 469 463 469 494 q 456 415 469 432 q 415 386 442 397 q 353 344 372 367 q 328 290 335 322 l 278 51 q 217 -66 263 -19 q 121 -135 171 -112 q 10 -165 49 -165 z "},"~":{"ha":800,"x_min":39,"x_max":769,"o":"m 493 189 q 420 206 449 189 q 376 245 392 222 q 339 308 360 268 q 306 360 319 344 q 275 376 293 376 q 215 346 244 376 q 164 279 185 315 q 90 232 138 232 q 53 247 68 232 q 39 282 39 261 q 43 305 39 293 q 51 325 47 317 q 58 338 56 333 q 160 458 94 408 q 303 507 225 507 q 401 475 367 507 q 461 386 435 443 q 491 336 478 351 q 522 321 504 321 q 584 352 556 321 q 640 431 613 383 q 676 469 656 456 q 717 483 696 483 q 755 469 740 483 q 769 432 769 454 q 757 388 769 410 q 646 250 711 311 q 493 189 581 189 z "},"¡":{"ha":357,"x_min":-6,"x_max":318,"o":"m 214 521 q 172 538 188 521 q 157 582 157 556 q 190 656 157 624 q 260 689 224 689 q 302 672 286 689 q 318 631 318 656 q 285 556 318 592 q 214 521 251 521 m 49 -249 q 10 -233 26 -249 q -6 -193 -6 -217 q -4 -179 -6 -183 l 117 388 q 147 436 124 417 q 199 456 169 456 q 243 435 228 456 q 253 388 258 415 l 132 -179 q 101 -230 125 -211 q 49 -249 76 -249 z "},"¢":{"ha":654,"x_min":65,"x_max":668,"o":"m 546 624 q 516 662 531 647 q 483 683 501 676 l 379 251 q 506 326 447 265 q 536 351 521 342 q 572 361 551 361 q 610 347 594 361 q 625 310 625 332 q 617 278 625 293 q 599 253 608 263 q 483 167 551 204 q 349 124 415 129 l 333 63 q 306 17 326 35 q 264 0 286 0 q 230 16 243 0 q 217 51 217 32 q 218 64 217 60 l 235 136 q 112 220 158 160 q 65 364 65 281 q 113 544 65 451 q 238 709 161 638 q 397 806 314 781 l 414 872 q 442 916 419 897 q 485 935 464 935 q 518 922 504 935 q 532 888 532 908 q 529 871 532 882 l 515 814 q 646 739 600 801 q 668 686 668 708 q 643 631 668 656 q 586 607 618 607 q 546 624 558 607 m 199 388 q 217 316 199 347 q 267 267 236 285 l 363 663 q 248 538 297 619 q 199 388 199 456 z "},"£":{"ha":914,"x_min":58,"x_max":894,"o":"m 583 -8 q 482 8 521 -8 q 401 54 443 24 q 356 83 375 74 q 311 93 336 93 q 256 79 285 93 q 188 40 226 65 q 142 13 158 22 q 113 4 125 4 q 74 19 89 4 q 58 57 58 35 q 72 94 58 78 q 108 129 85 111 q 194 226 156 164 q 232 344 232 288 q 228 417 232 386 l 122 417 q 83 432 99 417 q 68 469 68 447 q 93 524 68 500 q 150 549 118 549 l 226 549 q 282 779 231 681 q 424 931 333 878 q 631 983 514 983 q 834 908 774 983 q 894 731 894 832 q 872 672 894 696 q 814 647 850 647 q 774 663 789 647 q 760 707 760 679 q 721 813 760 775 q 604 851 682 851 q 427 775 483 851 q 360 549 371 699 l 632 549 q 670 534 656 549 q 685 496 685 519 q 658 441 685 465 q 604 417 632 417 l 360 417 q 363 385 363 400 l 361 340 q 293 194 361 267 q 310 204 297 197 q 338 215 322 211 q 372 219 353 219 q 429 208 406 219 q 481 174 453 196 q 540 135 513 149 q 608 122 567 122 q 673 144 643 122 q 722 206 703 165 q 800 265 751 265 q 839 250 825 265 q 853 211 853 235 q 835 157 853 189 q 797 101 818 125 q 696 24 757 57 q 583 -8 635 -8 z "},"¤":{"ha":663,"x_min":-11,"x_max":679,"o":"m 40 56 q 3 71 18 56 q -11 108 -11 86 q -2 140 -11 125 q 18 165 7 156 l 106 238 q 96 304 96 265 q 112 386 96 343 q 156 463 128 429 l 97 536 q 88 565 88 547 q 111 622 88 600 q 165 644 135 644 q 207 626 193 644 l 265 553 q 382 581 321 581 q 489 553 446 581 l 578 626 q 626 644 600 644 q 665 629 650 644 q 679 592 679 614 q 650 536 679 560 l 560 461 q 571 389 571 432 q 515 238 571 311 l 571 165 q 581 133 581 154 q 554 79 581 103 q 501 56 528 56 q 461 75 476 56 l 406 144 q 283 115 343 115 q 176 144 226 115 l 92 76 q 40 56 67 56 m 310 242 q 374 260 343 242 q 423 310 404 279 q 442 371 442 340 q 417 430 442 407 q 356 453 393 453 q 267 415 307 453 q 226 326 226 378 q 250 266 226 290 q 310 242 274 242 z "},"¥":{"ha":686,"x_min":60,"x_max":758,"o":"m 260 -8 q 217 10 233 -8 q 207 58 201 29 l 228 161 l 113 161 q 74 176 89 161 q 60 214 60 192 q 85 267 60 243 q 140 292 110 292 l 256 292 l 269 356 l 154 356 q 116 371 131 356 q 101 408 101 386 q 126 462 101 438 q 182 486 151 486 l 251 486 l 221 594 q 151 850 151 833 q 176 903 151 878 q 235 928 201 928 q 266 918 253 928 q 285 892 279 908 l 382 556 l 638 894 q 667 921 650 911 q 703 931 683 931 q 742 915 726 931 q 758 878 758 900 q 738 824 758 851 l 481 486 l 546 486 q 585 472 569 486 q 600 435 600 457 q 575 380 600 404 q 518 356 550 356 l 403 356 l 389 292 l 504 292 q 543 277 528 292 q 558 240 558 263 q 533 185 558 210 q 476 161 508 161 l 361 161 l 340 58 q 310 12 333 32 q 260 -8 286 -8 z "},"¦":{"ha":289,"x_min":-10,"x_max":342,"o":"m 183 525 q 144 540 160 525 q 128 579 128 556 q 129 593 128 589 l 206 950 q 237 997 213 978 q 288 1017 261 1017 q 326 1001 311 1017 q 342 964 342 986 q 340 950 342 954 l 264 593 q 235 544 258 564 q 183 525 211 525 m 46 -124 q 6 -108 22 -124 q -10 -69 -10 -93 q -8 -56 -10 -60 l 68 301 q 99 349 74 329 q 150 368 124 368 q 194 348 179 368 q 203 301 208 328 l 126 -56 q 97 -104 121 -85 q 46 -124 74 -124 z "},"§":{"ha":626,"x_min":14,"x_max":636,"o":"m 236 -8 q 112 22 163 -8 q 38 94 61 53 q 14 168 14 136 q 39 227 14 201 q 94 253 64 253 q 131 240 118 253 q 147 206 144 226 q 182 141 151 165 q 263 117 213 117 q 360 146 319 117 q 401 218 401 175 q 375 259 401 240 q 292 297 349 278 q 159 367 203 328 q 115 465 115 407 q 128 533 115 500 q 164 593 140 567 q 153 649 153 619 q 193 767 153 718 q 299 842 233 817 q 442 867 365 867 q 586 831 536 867 q 636 735 636 796 q 613 642 636 681 q 550 604 590 604 q 506 617 521 604 q 492 649 492 629 q 498 676 492 657 q 504 704 504 694 q 483 733 504 722 q 418 743 461 743 q 325 726 365 743 q 285 674 285 708 q 301 640 285 654 q 340 617 317 626 q 381 603 363 608 q 487 562 450 579 q 547 514 524 544 q 571 435 571 483 q 559 363 571 399 q 525 297 547 326 q 532 247 532 276 q 489 118 532 176 q 378 26 446 60 q 236 -8 310 -8 m 438 369 q 451 395 446 379 q 456 421 456 411 q 432 460 456 443 q 364 493 408 476 q 253 529 319 510 q 231 482 231 511 q 253 439 231 453 q 300 419 276 425 q 331 410 324 413 q 377 395 339 407 q 438 369 415 383 z "},"¨":{"ha":426,"x_min":113,"x_max":544,"o":"m 186 793 q 133 811 153 793 q 113 858 113 829 q 149 934 113 900 q 231 968 185 968 q 282 949 261 968 q 303 900 303 929 q 267 826 303 858 q 186 793 231 793 m 426 793 q 375 811 394 793 q 356 858 356 829 q 391 934 356 900 q 472 968 426 968 q 524 949 503 968 q 544 900 544 929 q 508 826 544 858 q 426 793 472 793 z "},"©":{"ha":829,"x_min":99,"x_max":851,"o":"m 394 238 q 242 276 310 238 q 136 382 174 314 q 99 533 99 450 q 164 753 99 647 q 335 924 229 858 q 554 989 440 989 q 708 950 640 989 q 814 843 776 911 q 851 690 851 775 q 786 472 851 576 q 615 302 721 367 q 394 238 508 238 m 415 335 q 579 383 501 335 q 705 510 657 432 q 753 671 753 588 q 692 829 753 767 q 533 892 631 892 q 369 842 447 892 q 244 714 292 793 q 197 553 197 635 q 225 441 197 490 q 303 363 253 392 q 415 335 353 335 m 435 432 q 329 473 371 432 q 288 574 288 514 q 320 686 288 633 q 407 770 353 739 q 525 801 461 801 q 609 778 569 801 q 649 724 649 756 q 628 677 649 694 q 578 660 608 660 q 553 667 564 660 q 539 678 542 675 q 501 690 521 690 q 435 664 461 690 q 410 601 410 638 q 424 562 410 578 q 465 546 439 546 q 532 574 497 546 q 583 597 558 597 q 619 585 606 597 q 633 554 633 574 q 625 522 633 538 q 596 488 617 507 q 435 432 538 432 z "},"ª":{"ha":458,"x_min":90,"x_max":519,"o":"m 369 432 q 335 446 350 432 q 322 475 319 460 l 325 492 q 278 451 301 465 q 218 438 254 438 q 126 481 163 438 q 90 590 90 524 q 130 737 90 663 q 235 858 169 811 q 369 906 300 906 q 457 889 414 906 q 519 854 500 872 l 444 494 q 417 451 439 469 q 369 432 394 432 m 263 558 q 300 567 278 558 q 336 588 322 575 l 379 775 q 349 783 368 783 q 286 757 315 783 q 239 692 257 731 q 221 618 221 653 q 231 576 221 593 q 263 558 242 558 z "},"¬":{"ha":644,"x_min":56,"x_max":601,"o":"m 481 150 q 438 169 453 150 q 429 213 424 189 l 458 343 l 107 343 q 70 357 85 343 q 56 393 56 371 q 81 446 56 422 q 135 469 106 469 l 549 469 q 588 454 574 469 q 601 419 601 439 q 600 406 601 410 l 557 213 q 529 168 551 186 q 481 150 507 150 z "},"®":{"ha":847,"x_min":107,"x_max":860,"o":"m 403 246 q 250 284 318 246 q 144 390 182 322 q 107 542 107 458 q 172 761 107 656 q 343 932 238 867 q 563 997 449 997 q 717 958 649 997 q 822 851 785 919 q 860 699 860 783 q 794 478 860 583 q 622 310 728 374 q 403 246 515 246 m 424 343 q 588 392 510 343 q 713 518 665 440 q 761 679 761 596 q 700 838 761 775 q 542 900 639 900 q 378 851 456 900 q 253 722 300 801 q 206 561 206 643 q 233 449 206 499 q 311 372 261 400 q 424 343 361 343 m 339 458 q 303 475 318 458 q 289 513 289 492 q 292 529 289 518 l 376 751 q 398 789 386 778 q 435 803 410 800 q 517 807 460 807 q 633 782 593 807 q 674 711 674 757 q 561 585 674 628 l 581 568 q 601 529 601 550 q 576 478 601 500 q 525 457 551 457 q 493 467 504 457 l 417 529 l 411 511 q 386 474 406 489 q 339 458 367 458 m 446 635 q 536 651 503 635 q 569 688 569 667 q 504 722 569 722 q 479 721 488 722 l 446 635 z "},"¯":{"ha":389,"x_min":110,"x_max":501,"o":"m 160 799 q 124 811 138 799 q 110 847 110 824 q 135 903 110 881 q 188 926 160 926 l 451 926 q 488 913 475 926 q 501 876 501 899 q 477 822 501 844 q 424 799 453 799 l 160 799 z "},"°":{"ha":400,"x_min":103,"x_max":481,"o":"m 253 586 q 145 628 188 586 q 103 733 103 671 q 135 842 103 790 q 222 925 168 893 q 332 957 275 957 q 439 915 397 957 q 481 811 481 874 q 448 702 481 754 q 363 618 415 650 q 253 586 310 586 m 279 707 q 335 731 311 707 q 358 785 358 754 q 343 820 358 806 q 306 835 328 835 q 251 811 276 835 q 225 760 225 788 q 241 722 225 738 q 279 707 257 707 z "},"±":{"ha":597,"x_min":22,"x_max":550,"o":"m 263 172 q 220 192 235 172 q 211 236 206 213 l 233 340 l 126 340 q 90 355 104 340 q 75 390 75 369 q 101 447 75 422 q 154 471 128 471 l 261 471 l 281 563 q 307 607 285 588 q 358 626 329 626 q 399 605 385 626 q 410 563 414 583 l 390 471 l 497 471 q 534 455 518 471 q 550 417 550 439 q 524 365 550 390 q 469 340 497 340 l 363 340 l 340 236 q 310 192 335 211 q 263 172 286 172 m 74 -1 q 37 12 51 -1 q 22 49 22 25 q 48 105 22 81 q 101 129 74 129 l 403 129 q 440 114 425 129 q 454 78 454 99 q 431 23 454 47 q 375 -1 407 -1 l 74 -1 z "},"²":{"ha":511,"x_min":128,"x_max":565,"o":"m 140 611 q 201 751 157 694 q 353 865 244 808 q 420 907 401 892 q 439 946 439 922 q 428 967 439 958 q 397 976 417 976 q 322 943 363 976 q 291 919 303 925 q 261 913 279 913 q 225 924 238 913 q 213 954 213 935 q 249 1024 213 989 q 322 1072 274 1047 q 422 1097 371 1097 q 524 1064 483 1097 q 565 974 565 1031 q 522 856 565 901 q 411 774 479 810 q 331 724 363 747 q 286 674 300 700 l 450 674 q 483 660 468 674 q 499 624 499 646 q 474 573 499 596 q 424 550 449 550 l 128 550 l 140 611 z "},"³":{"ha":458,"x_min":114,"x_max":526,"o":"m 267 547 q 189 565 224 547 q 134 608 154 582 q 114 660 114 635 q 135 713 114 690 q 186 736 156 736 q 235 701 221 736 q 256 677 240 686 q 292 668 272 668 q 342 688 321 668 q 364 736 364 708 q 299 779 364 774 q 253 821 253 783 q 272 874 253 854 q 324 896 290 893 q 379 914 357 899 q 401 951 401 929 q 357 979 401 979 q 297 963 322 979 q 249 947 275 947 q 217 959 231 947 q 204 992 204 971 q 232 1047 204 1021 q 301 1087 260 1072 q 382 1101 343 1101 q 484 1070 442 1101 q 526 985 526 1039 q 503 903 526 944 q 447 843 481 863 q 478 810 467 832 q 490 760 490 788 q 458 656 490 704 q 374 577 426 607 q 267 547 322 547 z "},"´":{"ha":286,"x_min":97,"x_max":419,"o":"m 151 733 q 113 749 128 733 q 97 788 97 765 q 103 815 97 803 q 124 840 110 826 l 290 1006 q 322 1028 304 1019 q 358 1036 340 1036 q 402 1018 385 1036 q 419 974 419 1000 q 385 908 419 938 l 203 754 q 151 733 181 733 z "},"¶":{"ha":765,"x_min":129,"x_max":826,"o":"m 243 -110 q 209 -99 221 -110 q 197 -72 197 -89 q 215 -11 197 -53 q 292 194 238 42 q 372 432 346 347 l 351 433 q 190 488 251 439 q 129 626 129 536 q 222 849 129 757 q 435 989 314 940 q 558 1034 514 1021 q 633 1047 603 1047 q 667 1036 654 1047 q 679 1004 679 1025 q 669 958 679 978 q 642 929 660 938 l 613 915 l 590 810 q 472 368 543 590 q 318 -57 401 146 q 288 -95 307 -81 q 243 -110 268 -110 m 453 -108 q 420 -100 432 -108 q 408 -76 408 -92 q 433 3 408 -57 q 571 383 506 174 q 686 824 636 592 l 706 921 q 731 969 711 949 q 778 990 751 990 q 814 976 801 990 q 826 938 826 961 q 806 824 826 918 q 529 -57 706 354 q 500 -94 519 -81 q 453 -108 481 -108 z "},"·":{"ha":275,"x_min":47,"x_max":207,"o":"m 104 257 q 63 274 78 257 q 47 317 47 290 q 50 338 47 324 q 88 398 57 371 q 151 425 118 425 q 192 408 176 425 q 207 367 207 392 q 204 343 207 354 q 167 283 197 310 q 104 257 136 257 z "},"¸":{"ha":258,"x_min":-114,"x_max":156,"o":"m 93 -47 q 156 -129 156 -71 q 108 -232 156 -192 q -4 -272 60 -272 q -84 -255 -54 -272 q -114 -206 -114 -237 q -98 -167 -114 -183 q -61 -151 -82 -151 q -35 -156 -44 -151 q -17 -171 -25 -161 q 15 -186 -6 -186 q 44 -174 32 -186 q 56 -143 56 -161 q 21 -107 56 -114 q -12 -103 -4 -103 l -24 -103 q -56 -76 -56 -103 q -44 -42 -56 -69 q -14 15 -32 -15 q 10 49 0 40 q 33 57 21 57 q 53 49 47 57 q 60 26 60 42 q 51 -37 60 13 q 93 -47 71 -40 z "},"¹":{"ha":399,"x_min":125,"x_max":426,"o":"m 174 550 q 138 563 150 550 q 125 594 125 575 q 149 650 125 628 q 200 672 172 672 l 219 672 l 269 886 l 263 885 q 240 882 254 882 q 208 896 222 882 q 193 931 193 910 q 199 960 193 944 q 217 983 206 975 l 326 1079 q 382 1100 350 1100 q 414 1088 401 1100 q 426 1053 426 1075 q 424 1032 426 1049 l 339 672 l 356 672 q 386 658 375 672 q 397 624 397 644 q 374 572 397 593 q 322 550 350 550 l 174 550 z "},"º":{"ha":538,"x_min":124,"x_max":554,"o":"m 278 438 q 167 484 210 438 q 124 603 124 531 q 163 742 124 672 q 267 856 203 811 q 400 900 332 900 q 510 855 467 900 q 554 736 554 810 q 515 597 554 667 q 410 482 475 526 q 278 438 346 438 m 304 558 q 360 581 333 558 q 405 639 388 604 q 422 707 422 674 q 408 758 422 736 q 371 779 394 779 q 314 754 342 779 q 269 692 286 729 q 253 625 253 656 q 267 577 253 596 q 304 558 281 558 z "},"¼":{"ha":942,"x_min":118,"x_max":888,"o":"m 183 550 q 147 563 160 550 q 135 594 135 575 q 158 650 135 628 q 210 672 182 672 l 229 672 l 279 886 l 272 885 q 250 882 264 882 q 217 896 232 882 q 203 931 203 910 q 209 960 203 944 q 226 983 215 975 l 336 1079 q 392 1100 360 1100 q 424 1088 411 1100 q 436 1053 436 1075 q 433 1032 436 1049 l 349 672 l 365 672 q 396 658 385 672 q 407 624 407 644 q 383 572 407 593 q 332 550 360 550 l 183 550 m 165 -10 q 131 3 144 -10 q 118 35 118 17 q 119 47 118 43 q 132 75 121 58 l 785 929 q 840 957 806 957 q 874 944 861 957 q 888 913 888 931 q 867 863 888 892 l 219 19 q 195 -2 210 6 q 165 -10 181 -10 m 708 -4 q 672 15 686 -4 q 663 51 658 35 l 679 115 l 528 115 q 493 126 506 115 q 481 160 481 138 q 500 206 481 183 l 775 524 q 798 544 786 538 q 828 550 810 550 q 864 533 851 550 q 872 494 876 515 l 814 222 q 832 215 829 218 q 850 183 850 207 q 839 145 850 164 q 813 119 828 126 q 790 113 799 113 l 776 51 q 750 13 771 29 q 708 -4 729 -4 m 721 296 l 647 226 l 701 225 l 721 296 z "},"½":{"ha":989,"x_min":93,"x_max":942,"o":"m 183 550 q 147 563 160 550 q 135 594 135 575 q 158 650 135 628 q 210 672 182 672 l 229 672 l 279 886 l 272 885 q 250 882 264 882 q 217 896 232 882 q 203 931 203 910 q 209 960 203 944 q 226 983 215 975 l 336 1079 q 392 1100 360 1100 q 424 1088 411 1100 q 436 1053 436 1075 q 433 1032 436 1049 l 349 672 l 365 672 q 396 658 385 672 q 407 624 407 644 q 383 572 407 593 q 332 550 360 550 l 183 550 m 140 -10 q 106 3 119 -10 q 93 35 93 17 q 94 47 93 43 q 107 75 96 58 l 760 929 q 815 957 781 957 q 849 944 836 957 q 863 913 863 931 q 842 863 863 892 l 194 19 q 170 -2 185 6 q 140 -10 156 -10 m 517 63 q 577 203 533 146 q 729 317 621 260 q 797 358 778 343 q 815 397 815 374 q 804 419 815 410 q 774 428 793 428 q 699 394 739 428 q 667 370 679 376 q 638 364 656 364 q 601 375 614 364 q 589 406 589 386 q 625 475 589 440 q 699 524 650 499 q 799 549 747 549 q 901 515 860 549 q 942 425 942 482 q 899 307 942 353 q 788 225 856 261 q 708 175 739 199 q 663 125 676 151 l 826 125 q 860 111 844 125 q 875 75 875 97 q 850 24 875 47 q 800 1 825 1 l 504 1 l 517 63 z "},"¾":{"ha":875,"x_min":88,"x_max":857,"o":"m 178 550 q 142 563 154 550 q 129 594 129 575 q 153 650 129 628 q 204 672 176 672 l 224 672 l 274 886 l 267 885 q 244 882 258 882 q 212 896 226 882 q 197 931 197 910 q 203 960 197 944 q 221 983 210 975 l 331 1079 q 386 1100 354 1100 q 418 1088 406 1100 q 431 1053 431 1075 q 428 1032 431 1049 l 343 672 l 360 672 q 390 658 379 672 q 401 624 401 644 q 378 572 401 593 q 326 550 354 550 l 178 550 m 135 -10 q 101 3 114 -10 q 88 35 88 17 q 89 47 88 43 q 101 75 90 58 l 754 929 q 810 957 775 957 q 844 944 831 957 q 857 913 857 931 q 836 863 857 892 l 189 19 q 165 -2 179 6 q 135 -10 150 -10 m 644 -87 q 608 -68 622 -87 q 599 -32 594 -49 l 615 32 l 464 32 q 429 43 442 32 q 417 76 417 54 q 436 122 417 100 l 711 440 q 734 460 722 454 q 764 467 746 467 q 800 449 788 467 q 808 411 813 432 l 750 139 q 768 132 765 135 q 786 100 786 124 q 775 62 786 81 q 749 36 764 43 q 726 29 735 29 l 713 -32 q 686 -71 707 -54 q 644 -87 665 -87 m 657 213 l 583 143 l 638 142 l 657 213 z "},"¿":{"ha":658,"x_min":0,"x_max":611,"o":"m 508 528 q 467 544 482 528 q 451 588 451 561 q 484 663 451 631 q 554 696 517 696 q 596 679 581 696 q 611 636 611 663 q 595 583 611 608 q 555 543 579 558 q 508 528 531 528 m 250 -236 q 67 -181 133 -236 q 0 -24 0 -126 q 31 115 0 54 q 110 223 61 176 q 236 328 158 269 l 414 457 q 443 472 433 468 q 464 475 453 475 q 501 460 486 475 q 517 424 517 446 q 485 364 517 385 l 322 251 q 182 130 232 186 q 132 13 132 74 q 173 -74 132 -42 q 285 -106 214 -106 q 375 -83 332 -106 q 446 -32 418 -60 q 477 -8 464 -14 q 506 -1 490 -1 q 544 -16 529 -1 q 560 -54 560 -31 q 547 -93 560 -75 q 510 -132 533 -111 q 392 -205 463 -174 q 250 -236 322 -236 z "},"À":{"ha":767,"x_min":-47,"x_max":697,"o":"m 618 -10 q 575 5 590 -10 q 557 46 560 19 l 518 326 l 221 264 l 82 36 q 10 -8 54 -8 q -31 8 -15 -8 q -47 47 -47 24 q -36 85 -47 65 l 57 238 l 51 240 q 21 289 21 254 q 41 341 21 318 q 90 371 61 364 l 143 382 l 460 904 q 493 935 472 924 q 535 947 514 947 q 572 936 557 947 q 589 901 586 925 l 696 97 q 697 79 697 90 q 675 15 697 39 q 618 -10 653 -10 m 499 456 l 472 679 l 313 417 l 499 456 m 608 976 q 558 994 588 976 l 378 1108 q 338 1139 351 1125 q 325 1176 325 1153 q 347 1224 325 1204 q 394 1243 368 1243 q 416 1239 407 1243 q 435 1228 425 1235 q 449 1218 444 1221 l 643 1078 q 665 1035 665 1061 q 647 995 665 1014 q 608 976 629 976 z "},"Á":{"ha":767,"x_min":-47,"x_max":788,"o":"m 618 -10 q 575 5 590 -10 q 557 46 560 19 l 518 326 l 221 264 l 82 36 q 10 -8 54 -8 q -31 8 -15 -8 q -47 47 -47 24 q -36 85 -47 65 l 57 238 l 51 240 q 21 289 21 254 q 41 341 21 318 q 90 371 61 364 l 143 382 l 460 904 q 493 935 472 924 q 535 947 514 947 q 572 936 557 947 q 589 901 586 925 l 696 97 q 697 79 697 90 q 675 15 697 39 q 618 -10 653 -10 m 499 456 l 472 679 l 313 417 l 499 456 m 497 976 q 459 991 474 976 q 444 1029 444 1006 q 485 1094 444 1067 l 660 1217 q 726 1244 701 1244 q 772 1227 756 1244 q 788 1182 788 1210 q 775 1144 788 1164 q 744 1113 763 1124 l 553 997 q 497 976 518 976 z "},"Â":{"ha":767,"x_min":-47,"x_max":749,"o":"m 618 -10 q 575 5 590 -10 q 557 46 560 19 l 518 326 l 221 264 l 82 36 q 10 -8 54 -8 q -31 8 -15 -8 q -47 47 -47 24 q -36 85 -47 65 l 57 238 l 51 240 q 21 289 21 254 q 41 341 21 318 q 90 371 61 364 l 143 382 l 460 904 q 493 935 472 924 q 535 947 514 947 q 572 936 557 947 q 589 901 586 925 l 696 97 q 697 79 697 90 q 675 15 697 39 q 618 -10 653 -10 m 499 456 l 472 679 l 313 417 l 499 456 z "},"Ã":{"ha":767,"x_min":-47,"x_max":838,"o":"m 618 -10 q 575 5 590 -10 q 557 46 560 19 l 518 326 l 221 264 l 82 36 q 10 -8 54 -8 q -31 8 -15 -8 q -47 47 -47 24 q -36 85 -47 65 l 57 238 l 51 240 q 21 289 21 254 q 41 341 21 318 q 90 371 61 364 l 143 382 l 460 904 q 493 935 472 924 q 535 947 514 947 q 572 936 557 947 q 589 901 586 925 l 696 97 q 697 79 697 90 q 675 15 697 39 q 618 -10 653 -10 m 499 456 l 472 679 l 313 417 l 499 456 z "},"Ä":{"ha":767,"x_min":-47,"x_max":776,"o":"m 618 -10 q 575 5 590 -10 q 557 46 560 19 l 518 326 l 221 264 l 82 36 q 10 -8 54 -8 q -31 8 -15 -8 q -47 47 -47 24 q -36 85 -47 65 l 57 238 l 51 240 q 21 289 21 254 q 41 341 21 318 q 90 371 61 364 l 143 382 l 460 904 q 493 935 472 924 q 535 947 514 947 q 572 936 557 947 q 589 901 586 925 l 696 97 q 697 79 697 90 q 675 15 697 39 q 618 -10 653 -10 m 499 456 l 472 679 l 313 417 l 499 456 z "},"Å":{"ha":767,"x_min":-47,"x_max":750,"o":"m 618 -10 q 575 5 590 -10 q 557 46 560 19 l 518 326 l 221 264 l 82 36 q 10 -8 54 -8 q -31 8 -15 -8 q -47 47 -47 24 q -36 85 -47 65 l 57 238 l 51 240 q 21 289 21 254 q 41 341 21 318 q 90 371 61 364 l 143 382 l 460 904 q 493 935 472 924 q 535 947 514 947 q 572 936 557 947 q 589 901 586 925 l 696 97 q 697 79 697 90 q 675 15 697 39 q 618 -10 653 -10 m 499 456 l 472 679 l 313 417 l 499 456 z "},"Æ":{"ha":1288,"x_min":-71,"x_max":1372,"o":"m -18 -12 q -56 3 -42 -12 q -71 42 -71 19 q -50 93 -71 71 l 149 310 l 142 315 q 126 356 126 331 q 147 406 126 383 q 197 435 168 428 l 281 451 l 703 908 q 758 938 728 938 l 1317 938 q 1358 924 1343 938 q 1372 886 1372 910 q 1347 828 1372 853 q 1289 803 1322 803 l 801 803 l 743 528 l 1167 528 q 1205 512 1190 528 q 1219 474 1219 496 q 1194 417 1219 442 q 1138 392 1169 392 l 714 393 l 657 126 l 1144 126 q 1185 113 1171 126 q 1200 75 1200 99 q 1175 17 1200 42 q 1117 -8 1150 -8 l 563 -8 q 519 10 535 -8 q 508 56 503 29 l 576 379 l 331 329 l 42 15 q -18 -12 15 -12 m 604 514 l 636 660 l 481 490 l 604 514 z "},"Ç":{"ha":810,"x_min":60,"x_max":871,"o":"m 817 907 q 856 892 840 907 q 871 853 871 876 q 869 838 871 843 l 847 754 q 817 705 839 725 q 761 685 794 685 q 722 702 738 685 q 711 742 707 719 l 713 749 q 583 804 669 804 q 408 727 497 804 q 261 540 319 650 q 203 340 203 431 q 263 181 203 239 q 415 124 324 124 q 661 238 551 124 q 721 265 689 265 q 761 249 744 265 q 778 210 778 233 q 754 154 778 181 q 590 35 681 78 q 403 -11 500 -7 q 397 -43 400 -33 q 439 -53 415 -46 q 501 -135 501 -75 q 453 -237 501 -197 q 342 -278 406 -278 q 262 -260 292 -278 q 232 -211 232 -243 q 248 -173 232 -189 q 285 -157 264 -157 q 311 -162 301 -157 q 329 -176 321 -167 q 361 -192 340 -192 q 390 -179 378 -192 q 401 -149 401 -167 q 367 -112 401 -119 q 333 -108 342 -108 l 322 -108 q 290 -82 290 -108 q 300 -55 290 -78 q 324 -6 310 -32 q 132 101 204 14 q 60 315 60 189 q 144 593 60 446 q 357 840 228 740 q 611 939 486 939 q 702 926 660 939 q 774 892 744 913 q 817 907 796 907 z "},"È":{"ha":828,"x_min":40,"x_max":908,"o":"m 101 0 q 56 19 72 0 q 46 64 40 38 l 215 861 q 246 910 222 890 q 299 931 269 931 l 853 931 q 893 915 878 931 q 908 876 908 900 q 882 818 908 844 q 824 792 856 792 l 338 792 l 285 544 l 707 544 q 747 530 732 544 q 761 492 761 515 q 736 433 761 458 q 678 407 711 407 l 256 407 l 199 139 l 682 139 q 722 124 707 139 q 736 85 736 108 q 711 26 736 51 q 653 0 686 0 l 101 0 m 669 976 q 619 994 649 976 l 439 1108 q 399 1139 413 1125 q 386 1176 386 1153 q 408 1224 386 1204 q 456 1243 429 1243 q 477 1239 468 1243 q 496 1228 486 1235 q 510 1218 506 1221 l 704 1078 q 726 1035 726 1061 q 708 995 726 1014 q 669 976 690 976 z "},"É":{"ha":828,"x_min":40,"x_max":908,"o":"m 101 0 q 56 19 72 0 q 46 64 40 38 l 215 861 q 246 910 222 890 q 299 931 269 931 l 853 931 q 893 915 878 931 q 908 876 908 900 q 882 818 908 844 q 824 792 856 792 l 338 792 l 285 544 l 707 544 q 747 530 732 544 q 761 492 761 515 q 736 433 761 458 q 678 407 711 407 l 256 407 l 199 139 l 682 139 q 722 124 707 139 q 736 85 736 108 q 711 26 736 51 q 653 0 686 0 l 101 0 m 558 976 q 520 991 535 976 q 506 1029 506 1006 q 546 1094 506 1067 l 721 1217 q 788 1244 763 1244 q 833 1227 817 1244 q 849 1182 849 1210 q 836 1144 849 1164 q 806 1113 824 1124 l 614 997 q 558 976 579 976 z "},"Ê":{"ha":828,"x_min":40,"x_max":908,"o":"m 101 0 q 56 19 72 0 q 46 64 40 38 l 215 861 q 246 910 222 890 q 299 931 269 931 l 853 931 q 893 915 878 931 q 908 876 908 900 q 882 818 908 844 q 824 792 856 792 l 338 792 l 285 544 l 707 544 q 747 530 732 544 q 761 492 761 515 q 736 433 761 458 q 678 407 711 407 l 256 407 l 199 139 l 682 139 q 722 124 707 139 q 736 85 736 108 q 711 26 736 51 q 653 0 686 0 l 101 0 z "},"Ë":{"ha":828,"x_min":40,"x_max":908,"o":"m 101 0 q 56 19 72 0 q 46 64 40 38 l 215 861 q 246 910 222 890 q 299 931 269 931 l 853 931 q 893 915 878 931 q 908 876 908 900 q 882 818 908 844 q 824 792 856 792 l 338 792 l 285 544 l 707 544 q 747 530 732 544 q 761 492 761 515 q 736 433 761 458 q 678 407 711 407 l 256 407 l 199 139 l 682 139 q 722 124 707 139 q 736 85 736 108 q 711 26 736 51 q 653 0 686 0 l 101 0 z "},"Ì":{"ha":563,"x_min":-14,"x_max":626,"o":"m 42 0 q 1 15 17 0 q -14 54 -14 31 q 13 113 -14 88 q 72 139 39 139 l 169 139 l 307 792 l 210 792 q 169 808 185 792 q 154 847 154 824 q 180 906 154 881 q 239 931 206 931 l 571 931 q 611 916 596 931 q 626 878 626 901 q 601 818 626 844 q 542 792 575 792 l 446 792 l 308 139 l 401 139 q 443 125 428 139 q 458 86 458 111 q 433 26 458 53 q 374 0 407 0 l 42 0 m 493 976 q 443 994 472 976 l 263 1108 q 223 1139 236 1125 q 210 1176 210 1153 q 231 1224 210 1204 q 279 1243 253 1243 q 301 1239 292 1243 q 319 1228 310 1235 q 333 1218 329 1221 l 528 1078 q 550 1035 550 1061 q 532 995 550 1014 q 493 976 514 976 z "},"Í":{"ha":563,"x_min":-14,"x_max":672,"o":"m 42 0 q 1 15 17 0 q -14 54 -14 31 q 13 113 -14 88 q 72 139 39 139 l 169 139 l 307 792 l 210 792 q 169 808 185 792 q 154 847 154 824 q 180 906 154 881 q 239 931 206 931 l 571 931 q 611 916 596 931 q 626 878 626 901 q 601 818 626 844 q 542 792 575 792 l 446 792 l 308 139 l 401 139 q 443 125 428 139 q 458 86 458 111 q 433 26 458 53 q 374 0 407 0 l 42 0 m 382 976 q 344 991 358 976 q 329 1029 329 1006 q 369 1094 329 1067 l 544 1217 q 611 1244 586 1244 q 656 1227 640 1244 q 672 1182 672 1210 q 660 1144 672 1164 q 629 1113 647 1124 l 438 997 q 382 976 403 976 z "},"Î":{"ha":563,"x_min":-14,"x_max":633,"o":"m 42 0 q 1 15 17 0 q -14 54 -14 31 q 13 113 -14 88 q 72 139 39 139 l 169 139 l 307 792 l 210 792 q 169 808 185 792 q 154 847 154 824 q 180 906 154 881 q 239 931 206 931 l 571 931 q 611 916 596 931 q 626 878 626 901 q 601 818 626 844 q 542 792 575 792 l 446 792 l 308 139 l 401 139 q 443 125 428 139 q 458 86 458 111 q 433 26 458 53 q 374 0 407 0 l 42 0 z "},"Ï":{"ha":563,"x_min":-14,"x_max":661,"o":"m 42 0 q 1 15 17 0 q -14 54 -14 31 q 13 113 -14 88 q 72 139 39 139 l 169 139 l 307 792 l 210 792 q 169 808 185 792 q 154 847 154 824 q 180 906 154 881 q 239 931 206 931 l 571 931 q 611 916 596 931 q 626 878 626 901 q 601 818 626 844 q 542 792 575 792 l 446 792 l 308 139 l 401 139 q 443 125 428 139 q 458 86 458 111 q 433 26 458 53 q 374 0 407 0 l 42 0 z "},"Ð":{"ha":869,"x_min":3,"x_max":839,"o":"m 299 943 q 581 898 460 943 q 771 764 703 853 q 839 547 839 675 q 763 248 839 379 q 550 44 686 117 q 242 -29 414 -29 q 81 -6 175 -29 q 52 15 64 -1 q 40 50 40 31 q 42 63 40 58 l 107 369 l 58 369 q 19 385 35 369 q 3 425 3 401 q 30 481 3 456 q 88 507 57 507 l 136 507 l 215 875 q 245 924 221 904 q 299 943 269 943 m 272 107 q 496 157 400 107 q 644 299 592 207 q 696 513 696 392 q 599 722 696 651 q 339 804 501 792 l 276 507 l 372 507 q 413 491 397 507 q 429 451 429 475 q 402 395 429 421 q 343 369 375 369 l 247 369 l 193 115 q 272 107 238 107 z "},"Ñ":{"ha":906,"x_min":42,"x_max":918,"o":"m 97 -8 q 58 8 75 -8 q 42 47 42 25 q 43 60 42 56 l 217 869 q 246 918 224 899 q 297 938 268 938 q 351 901 333 938 l 649 279 l 775 869 q 806 919 782 899 q 858 939 829 939 q 903 917 888 939 q 913 869 918 894 l 740 60 q 713 12 735 32 q 663 -8 692 -8 q 599 38 621 -8 l 307 649 l 181 60 q 151 11 175 31 q 97 -8 126 -8 z "},"Ò":{"ha":881,"x_min":64,"x_max":871,"o":"m 340 -11 q 193 31 256 -11 q 97 146 131 72 q 64 314 64 219 q 138 608 64 463 q 334 846 211 753 q 594 939 457 939 q 742 897 679 939 q 838 782 804 856 q 871 614 871 708 q 797 320 871 465 q 601 82 724 175 q 340 -11 478 -11 m 375 121 q 538 188 454 121 q 677 364 622 256 q 732 588 732 472 q 686 746 732 685 q 560 807 640 807 q 397 740 481 807 q 258 564 313 672 q 203 340 203 456 q 249 182 203 243 q 375 121 294 121 m 703 976 q 653 994 682 976 l 472 1108 q 433 1139 446 1125 q 419 1176 419 1153 q 441 1224 419 1204 q 489 1243 463 1243 q 510 1239 501 1243 q 529 1228 519 1235 q 543 1218 539 1221 l 738 1078 q 760 1035 760 1061 q 742 995 760 1014 q 703 976 724 976 z "},"Ó":{"ha":881,"x_min":64,"x_max":882,"o":"m 340 -11 q 193 31 256 -11 q 97 146 131 72 q 64 314 64 219 q 138 608 64 463 q 334 846 211 753 q 594 939 457 939 q 742 897 679 939 q 838 782 804 856 q 871 614 871 708 q 797 320 871 465 q 601 82 724 175 q 340 -11 478 -11 m 375 121 q 538 188 454 121 q 677 364 622 256 q 732 588 732 472 q 686 746 732 685 q 560 807 640 807 q 397 740 481 807 q 258 564 313 672 q 203 340 203 456 q 249 182 203 243 q 375 121 294 121 m 592 976 q 553 991 568 976 q 539 1029 539 1006 q 579 1094 539 1067 l 754 1217 q 821 1244 796 1244 q 866 1227 850 1244 q 882 1182 882 1210 q 869 1144 882 1164 q 839 1113 857 1124 l 647 997 q 592 976 613 976 z "},"Ô":{"ha":881,"x_min":64,"x_max":871,"o":"m 340 -11 q 193 31 256 -11 q 97 146 131 72 q 64 314 64 219 q 138 608 64 463 q 334 846 211 753 q 594 939 457 939 q 742 897 679 939 q 838 782 804 856 q 871 614 871 708 q 797 320 871 465 q 601 82 724 175 q 340 -11 478 -11 m 375 121 q 538 188 454 121 q 677 364 622 256 q 732 588 732 472 q 686 746 732 685 q 560 807 640 807 q 397 740 481 807 q 258 564 313 672 q 203 340 203 456 q 249 182 203 243 q 375 121 294 121 z "},"Õ":{"ha":881,"x_min":64,"x_max":932,"o":"m 340 -11 q 193 31 256 -11 q 97 146 131 72 q 64 314 64 219 q 138 608 64 463 q 334 846 211 753 q 594 939 457 939 q 742 897 679 939 q 838 782 804 856 q 871 614 871 708 q 797 320 871 465 q 601 82 724 175 q 340 -11 478 -11 m 375 121 q 538 188 454 121 q 677 364 622 256 q 732 588 732 472 q 686 746 732 685 q 560 807 640 807 q 397 740 481 807 q 258 564 313 672 q 203 340 203 456 q 249 182 203 243 q 375 121 294 121 z "},"Ö":{"ha":881,"x_min":64,"x_max":871,"o":"m 340 -11 q 193 31 256 -11 q 97 146 131 72 q 64 314 64 219 q 138 608 64 463 q 334 846 211 753 q 594 939 457 939 q 742 897 679 939 q 838 782 804 856 q 871 614 871 708 q 797 320 871 465 q 601 82 724 175 q 340 -11 478 -11 m 375 121 q 538 188 454 121 q 677 364 622 256 q 732 588 732 472 q 686 746 732 685 q 560 807 640 807 q 397 740 481 807 q 258 564 313 672 q 203 340 203 456 q 249 182 203 243 q 375 121 294 121 z "},"×":{"ha":538,"x_min":57,"x_max":483,"o":"m 111 151 q 72 168 86 151 q 57 206 57 185 q 65 235 57 222 q 89 263 72 247 l 181 338 l 128 403 q 117 433 117 417 q 142 487 117 460 q 197 514 168 514 q 222 509 213 514 q 239 494 231 504 l 292 431 l 382 504 q 428 522 404 522 q 469 508 454 522 q 483 474 483 494 q 456 413 483 438 l 364 338 l 422 264 q 432 233 432 251 q 408 178 432 203 q 353 153 383 153 q 311 172 328 153 l 251 246 l 160 171 q 111 151 136 151 z "},"Ø":{"ha":874,"x_min":26,"x_max":872,"o":"m 794 839 q 849 736 831 796 q 868 606 868 676 q 794 312 868 457 q 598 74 721 167 q 338 -19 475 -19 q 176 32 243 -19 l 140 -17 q 78 -50 115 -50 q 39 -37 51 -50 q 26 0 26 -24 q 43 47 26 25 l 101 124 q 61 306 61 201 q 135 599 61 454 q 331 838 208 744 q 592 931 454 931 q 700 910 653 931 l 757 983 q 822 1018 783 1018 q 857 1004 842 1018 q 872 967 872 990 q 867 942 872 957 q 856 919 863 928 l 794 839 m 200 332 q 207 263 200 297 l 610 790 q 557 799 586 799 q 394 731 478 799 q 255 556 310 664 q 200 332 200 447 m 729 579 q 699 714 729 657 l 268 150 q 372 113 310 113 q 535 180 451 113 q 674 356 619 247 q 729 579 729 464 z "},"Ù":{"ha":929,"x_min":93,"x_max":967,"o":"m 376 -8 q 165 85 238 -8 q 93 340 93 178 q 111 516 93 418 q 169 800 129 614 q 185 865 182 849 q 213 915 192 893 q 272 938 233 938 q 313 921 299 938 q 328 883 328 904 q 326 871 328 875 q 258 566 282 694 q 233 356 233 438 q 406 119 233 119 q 583 181 501 119 q 708 376 664 242 q 756 544 736 463 q 797 736 775 625 l 825 868 q 908 938 839 938 q 953 919 940 938 q 963 872 967 900 q 910 599 935 708 q 844 367 886 489 q 668 91 783 190 q 376 -8 553 -8 m 675 976 q 625 994 654 976 l 444 1108 q 405 1139 418 1125 q 392 1176 392 1153 q 413 1224 392 1204 q 461 1243 435 1243 q 483 1239 474 1243 q 501 1228 492 1235 q 515 1218 511 1221 l 710 1078 q 732 1035 732 1061 q 714 995 732 1014 q 675 976 696 976 z "},"Ú":{"ha":929,"x_min":93,"x_max":967,"o":"m 376 -8 q 165 85 238 -8 q 93 340 93 178 q 111 516 93 418 q 169 800 129 614 q 185 865 182 849 q 213 915 192 893 q 272 938 233 938 q 313 921 299 938 q 328 883 328 904 q 326 871 328 875 q 258 566 282 694 q 233 356 233 438 q 406 119 233 119 q 583 181 501 119 q 708 376 664 242 q 756 544 736 463 q 797 736 775 625 l 825 868 q 908 938 839 938 q 953 919 940 938 q 963 872 967 900 q 910 599 935 708 q 844 367 886 489 q 668 91 783 190 q 376 -8 553 -8 m 564 976 q 526 991 540 976 q 511 1029 511 1006 q 551 1094 511 1067 l 726 1217 q 793 1244 768 1244 q 838 1227 822 1244 q 854 1182 854 1210 q 842 1144 854 1164 q 811 1113 829 1124 l 619 997 q 564 976 585 976 z "},"Û":{"ha":929,"x_min":93,"x_max":967,"o":"m 376 -8 q 165 85 238 -8 q 93 340 93 178 q 111 516 93 418 q 169 800 129 614 q 185 865 182 849 q 213 915 192 893 q 272 938 233 938 q 313 921 299 938 q 328 883 328 904 q 326 871 328 875 q 258 566 282 694 q 233 356 233 438 q 406 119 233 119 q 583 181 501 119 q 708 376 664 242 q 756 544 736 463 q 797 736 775 625 l 825 868 q 908 938 839 938 q 953 919 940 938 q 963 872 967 900 q 910 599 935 708 q 844 367 886 489 q 668 91 783 190 q 376 -8 553 -8 z "},"Ü":{"ha":929,"x_min":93,"x_max":967,"o":"m 376 -8 q 165 85 238 -8 q 93 340 93 178 q 111 516 93 418 q 169 800 129 614 q 185 865 182 849 q 213 915 192 893 q 272 938 233 938 q 313 921 299 938 q 328 883 328 904 q 326 871 328 875 q 258 566 282 694 q 233 356 233 438 q 406 119 233 119 q 583 181 501 119 q 708 376 664 242 q 756 544 736 463 q 797 736 775 625 l 825 868 q 908 938 839 938 q 953 919 940 938 q 963 872 967 900 q 910 599 935 708 q 844 367 886 489 q 668 91 783 190 q 376 -8 553 -8 z "},"Ý":{"ha":808,"x_min":128,"x_max":922,"o":"m 186 -8 q 146 8 161 -8 q 131 47 131 24 q 151 99 131 72 l 328 313 l 133 836 q 128 861 128 849 q 150 916 128 894 q 200 938 172 938 q 232 928 218 938 q 251 903 246 919 l 425 438 l 800 904 q 867 938 828 938 q 906 922 889 938 q 922 883 922 907 q 897 825 922 856 l 253 26 q 186 -8 225 -8 m 504 976 q 466 991 481 976 q 451 1029 451 1006 q 492 1094 451 1067 l 667 1217 q 733 1244 708 1244 q 778 1227 763 1244 q 794 1182 794 1210 q 782 1144 794 1164 q 751 1113 769 1124 l 560 997 q 504 976 525 976 z "},"Þ":{"ha":796,"x_min":17,"x_max":715,"o":"m 69 -8 q 31 8 44 -8 q 17 44 17 24 q 18 58 17 54 l 193 871 q 222 917 199 899 q 272 936 244 936 q 310 921 296 936 q 325 883 325 906 q 324 869 325 874 l 308 796 q 599 746 483 793 q 715 571 715 699 q 638 363 715 449 q 437 231 560 276 q 175 178 314 186 l 149 57 q 120 10 143 29 q 69 -8 97 -8 m 204 314 q 376 344 290 319 q 522 416 463 368 q 581 532 581 464 q 507 628 581 593 q 303 663 433 663 l 279 663 l 204 314 z "},"ß":{"ha":765,"x_min":19,"x_max":649,"o":"m 314 -39 q 260 -25 279 -39 q 242 14 242 -11 q 267 68 242 46 q 328 90 292 90 q 415 115 365 90 q 486 181 456 135 q 517 281 517 228 q 489 362 517 329 q 410 394 461 394 q 372 392 397 394 q 342 389 350 389 q 305 402 319 389 q 290 439 290 415 q 311 490 290 468 q 360 517 332 511 l 389 522 q 465 570 442 533 q 489 647 489 607 q 465 709 489 685 q 401 733 440 733 q 319 701 358 733 q 269 625 279 669 l 149 56 q 119 11 143 31 q 71 -8 96 -8 q 33 6 47 -8 q 19 43 19 21 q 21 56 19 51 l 142 625 q 199 744 156 690 q 304 831 243 799 q 429 863 365 863 q 566 810 513 863 q 619 675 619 757 q 599 576 619 628 q 544 493 578 524 q 620 426 592 474 q 649 311 649 379 q 600 139 649 219 q 474 10 551 58 q 314 -39 396 -39 z "},"à":{"ha":706,"x_min":36,"x_max":671,"o":"m 249 -8 q 94 51 151 -8 q 36 213 36 111 q 97 434 36 324 q 256 615 157 544 q 461 685 354 685 q 574 667 525 685 q 671 625 624 650 l 549 47 q 519 -3 542 15 q 468 -22 497 -22 q 430 -9 444 -22 q 415 26 415 4 q 417 42 415 36 l 421 61 q 335 9 381 26 q 249 -8 290 -8 m 282 119 q 366 137 325 119 q 440 178 407 154 l 521 540 q 438 557 483 557 q 311 507 372 557 q 211 382 250 457 q 172 236 172 307 q 200 147 172 174 q 282 119 228 119 z "},"á":{"ha":706,"x_min":36,"x_max":722,"o":"m 249 -8 q 94 51 151 -8 q 36 213 36 111 q 97 434 36 324 q 256 615 157 544 q 461 685 354 685 q 574 667 525 685 q 671 625 624 650 l 549 47 q 519 -3 542 15 q 468 -22 497 -22 q 430 -9 444 -22 q 415 26 415 4 q 417 42 415 36 l 421 61 q 335 9 381 26 q 249 -8 290 -8 m 282 119 q 366 137 325 119 q 440 178 407 154 l 521 540 q 438 557 483 557 q 311 507 372 557 q 211 382 250 457 q 172 236 172 307 q 200 147 172 174 q 282 119 228 119 z "},"â":{"ha":706,"x_min":36,"x_max":707,"o":"m 249 -8 q 94 51 151 -8 q 36 213 36 111 q 97 434 36 324 q 256 615 157 544 q 461 685 354 685 q 574 667 525 685 q 671 625 624 650 l 549 47 q 519 -3 542 15 q 468 -22 497 -22 q 430 -9 444 -22 q 415 26 415 4 q 417 42 415 36 l 421 61 q 335 9 381 26 q 249 -8 290 -8 m 282 119 q 366 137 325 119 q 440 178 407 154 l 521 540 q 438 557 483 557 q 311 507 372 557 q 211 382 250 457 q 172 236 172 307 q 200 147 172 174 q 282 119 228 119 z "},"ã":{"ha":706,"x_min":36,"x_max":789,"o":"m 249 -8 q 94 51 151 -8 q 36 213 36 111 q 97 434 36 324 q 256 615 157 544 q 461 685 354 685 q 574 667 525 685 q 671 625 624 650 l 549 47 q 519 -3 542 15 q 468 -22 497 -22 q 430 -9 444 -22 q 415 26 415 4 q 417 42 415 36 l 421 61 q 335 9 381 26 q 249 -8 290 -8 m 282 119 q 366 137 325 119 q 440 178 407 154 l 521 540 q 438 557 483 557 q 311 507 372 557 q 211 382 250 457 q 172 236 172 307 q 200 147 172 174 q 282 119 228 119 z "},"ä":{"ha":706,"x_min":36,"x_max":728,"o":"m 249 -8 q 94 51 151 -8 q 36 213 36 111 q 97 434 36 324 q 256 615 157 544 q 461 685 354 685 q 574 667 525 685 q 671 625 624 650 l 549 47 q 519 -3 542 15 q 468 -22 497 -22 q 430 -9 444 -22 q 415 26 415 4 q 417 42 415 36 l 421 61 q 335 9 381 26 q 249 -8 290 -8 m 282 119 q 366 137 325 119 q 440 178 407 154 l 521 540 q 438 557 483 557 q 311 507 372 557 q 211 382 250 457 q 172 236 172 307 q 200 147 172 174 q 282 119 228 119 z "},"å":{"ha":706,"x_min":36,"x_max":706,"o":"m 249 -8 q 94 51 151 -8 q 36 213 36 111 q 97 434 36 324 q 256 615 157 544 q 461 685 354 685 q 574 667 525 685 q 671 625 624 650 l 549 47 q 519 -3 542 15 q 468 -22 497 -22 q 430 -9 444 -22 q 415 26 415 4 q 417 42 415 36 l 421 61 q 335 9 381 26 q 249 -8 290 -8 m 282 119 q 366 137 325 119 q 440 178 407 154 l 521 540 q 438 557 483 557 q 311 507 372 557 q 211 382 250 457 q 172 236 172 307 q 200 147 172 174 q 282 119 228 119 z "},"æ":{"ha":1071,"x_min":33,"x_max":1054,"o":"m 33 210 q 61 355 33 278 q 135 497 89 432 q 276 633 193 581 q 460 685 358 685 q 592 658 539 685 q 649 629 644 632 l 643 601 q 738 660 689 639 q 833 682 788 682 q 958 653 908 682 q 1031 583 1008 625 q 1054 503 1054 542 q 996 418 1054 447 l 576 206 q 628 134 586 158 q 721 110 669 110 q 810 129 765 110 q 889 176 856 149 q 940 199 917 199 q 979 185 965 199 q 993 150 993 172 q 961 89 993 117 q 847 19 913 47 q 713 -8 782 -8 q 529 65 592 -8 l 525 47 q 497 -3 517 13 q 453 -18 478 -18 q 412 2 428 -18 q 399 47 396 22 l 400 53 q 325 10 367 28 q 246 -8 283 -8 q 91 51 149 -8 q 33 210 33 110 m 172 240 q 197 148 172 185 q 275 111 221 111 q 352 128 310 111 q 431 168 394 146 l 507 549 q 435 565 474 565 q 324 528 376 565 q 236 432 272 492 q 172 240 172 324 m 918 506 q 801 560 893 560 q 703 531 750 560 q 622 452 656 503 q 579 335 589 401 l 918 506 z "},"ç":{"ha":654,"x_min":38,"x_max":640,"o":"m 415 560 q 306 510 364 560 q 210 388 249 460 q 171 257 171 317 q 213 156 171 194 q 307 117 254 117 q 401 138 361 117 q 478 196 442 158 q 508 221 493 211 q 544 231 524 231 q 582 216 567 231 q 597 179 597 201 q 589 147 597 163 q 571 122 581 132 q 458 38 524 74 q 326 -7 393 1 q 321 -46 322 -36 q 363 -56 340 -49 q 425 -137 425 -79 q 377 -240 425 -200 q 265 -281 329 -281 q 185 -263 215 -281 q 156 -214 156 -246 q 172 -176 156 -192 q 208 -160 188 -160 q 235 -165 225 -160 q 253 -179 244 -169 q 285 -194 264 -194 q 313 -182 301 -194 q 325 -151 325 -169 q 290 -115 325 -122 q 257 -111 265 -111 l 246 -111 q 214 -85 214 -111 q 224 -56 214 -79 q 249 -4 233 -32 q 97 74 156 10 q 38 233 38 139 q 99 440 38 333 q 256 616 161 546 q 443 686 351 686 q 618 608 560 686 q 640 556 640 578 q 615 501 640 525 q 558 476 590 476 q 518 493 531 476 q 474 544 496 528 q 415 560 451 560 z "},"è":{"ha":683,"x_min":43,"x_max":665,"o":"m 324 -8 q 119 61 196 -8 q 43 253 43 131 q 99 460 43 360 q 246 622 154 560 q 440 685 338 685 q 567 656 517 685 q 642 586 618 628 q 665 506 665 544 q 651 456 665 476 q 608 421 638 436 l 190 207 q 240 140 196 164 q 340 117 285 117 q 500 176 431 117 q 551 199 528 199 q 590 185 575 199 q 604 151 604 172 q 597 118 604 132 q 572 89 590 104 q 457 20 528 49 q 324 -8 386 -8 m 531 501 q 493 547 521 532 q 424 563 465 563 q 258 486 335 563 q 201 404 222 450 q 176 322 179 358 l 531 501 z "},"é":{"ha":683,"x_min":43,"x_max":665,"o":"m 324 -8 q 119 61 196 -8 q 43 253 43 131 q 99 460 43 360 q 246 622 154 560 q 440 685 338 685 q 567 656 517 685 q 642 586 618 628 q 665 506 665 544 q 651 456 665 476 q 608 421 638 436 l 190 207 q 240 140 196 164 q 340 117 285 117 q 500 176 431 117 q 551 199 528 199 q 590 185 575 199 q 604 151 604 172 q 597 118 604 132 q 572 89 590 104 q 457 20 528 49 q 324 -8 386 -8 m 531 501 q 493 547 521 532 q 424 563 465 563 q 258 486 335 563 q 201 404 222 450 q 176 322 179 358 l 531 501 z "},"ê":{"ha":683,"x_min":43,"x_max":665,"o":"m 324 -8 q 119 61 196 -8 q 43 253 43 131 q 99 460 43 360 q 246 622 154 560 q 440 685 338 685 q 567 656 517 685 q 642 586 618 628 q 665 506 665 544 q 651 456 665 476 q 608 421 638 436 l 190 207 q 240 140 196 164 q 340 117 285 117 q 500 176 431 117 q 551 199 528 199 q 590 185 575 199 q 604 151 604 172 q 597 118 604 132 q 572 89 590 104 q 457 20 528 49 q 324 -8 386 -8 m 531 501 q 493 547 521 532 q 424 563 465 563 q 258 486 335 563 q 201 404 222 450 q 176 322 179 358 l 531 501 z "},"ë":{"ha":683,"x_min":43,"x_max":671,"o":"m 324 -8 q 119 61 196 -8 q 43 253 43 131 q 99 460 43 360 q 246 622 154 560 q 440 685 338 685 q 567 656 517 685 q 642 586 618 628 q 665 506 665 544 q 651 456 665 476 q 608 421 638 436 l 190 207 q 240 140 196 164 q 340 117 285 117 q 500 176 431 117 q 551 199 528 199 q 590 185 575 199 q 604 151 604 172 q 597 118 604 132 q 572 89 590 104 q 457 20 528 49 q 324 -8 386 -8 m 531 501 q 493 547 521 532 q 424 563 465 563 q 258 486 335 563 q 201 404 222 450 q 176 322 179 358 l 531 501 z "},"ì":{"ha":336,"x_min":36,"x_max":408,"o":"m 92 -8 q 52 7 68 -8 q 36 46 36 22 q 38 60 36 54 l 161 613 q 192 660 167 640 q 244 681 217 681 q 284 666 269 681 q 299 628 299 651 q 297 613 299 618 l 174 60 q 144 12 168 32 q 92 -8 119 -8 z "},"í":{"ha":336,"x_min":36,"x_max":496,"o":"m 92 -8 q 52 7 68 -8 q 36 46 36 22 q 38 60 36 54 l 161 613 q 192 660 167 640 q 244 681 217 681 q 284 666 269 681 q 299 628 299 651 q 297 613 299 618 l 174 60 q 144 12 168 32 q 92 -8 119 -8 z "},"î":{"ha":336,"x_min":36,"x_max":481,"o":"m 92 -8 q 52 7 68 -8 q 36 46 36 22 q 38 60 36 54 l 161 613 q 192 660 167 640 q 244 681 217 681 q 284 666 269 681 q 299 628 299 651 q 297 613 299 618 l 174 60 q 144 12 168 32 q 92 -8 119 -8 z "},"ï":{"ha":336,"x_min":36,"x_max":501,"o":"m 92 -8 q 52 7 68 -8 q 36 46 36 22 q 38 60 36 54 l 161 613 q 192 660 167 640 q 244 681 217 681 q 284 666 269 681 q 299 628 299 651 q 297 613 299 618 l 174 60 q 144 12 168 32 q 92 -8 119 -8 z "},"ð":{"ha":657,"x_min":35,"x_max":644,"o":"m 644 851 q 607 796 644 814 q 514 753 538 765 q 588 599 558 681 q 617 438 617 517 q 563 224 617 328 q 419 57 510 121 q 226 -7 329 -7 q 88 44 140 -7 q 35 182 35 96 q 69 334 35 256 q 158 467 104 413 q 284 555 213 521 q 438 600 356 589 q 385 689 414 650 q 290 639 306 647 q 272 628 285 636 q 251 618 258 621 q 236 615 243 615 q 205 626 217 615 q 193 654 193 636 q 203 688 193 674 q 232 717 214 703 q 319 767 269 742 q 300 794 306 785 q 294 817 294 804 q 318 872 294 847 q 374 896 342 896 q 406 886 393 896 q 450 842 419 876 q 453 838 453 839 q 521 871 482 853 q 603 894 572 894 q 633 883 621 894 q 644 851 644 872 m 253 121 q 369 165 315 121 q 455 277 424 210 q 486 410 486 344 q 478 479 486 444 q 342 455 404 478 q 236 383 279 432 q 185 299 206 349 q 164 211 164 250 q 188 145 164 169 q 253 121 213 121 z "},"ñ":{"ha":754,"x_min":32,"x_max":801,"o":"m 90 -8 q 48 11 64 -8 q 38 56 32 31 l 157 619 q 188 667 163 647 q 240 686 213 686 q 277 672 263 686 q 292 635 292 657 q 290 619 292 625 l 268 514 q 394 641 325 597 q 533 685 463 685 q 652 645 614 685 q 690 513 690 606 q 663 301 690 426 l 610 58 q 582 12 604 32 q 532 -8 560 -8 q 490 12 506 -8 q 479 57 474 32 l 528 288 q 554 472 554 411 q 539 538 554 519 q 493 556 524 556 q 402 520 451 556 q 303 419 353 485 q 235 308 260 363 q 194 178 211 254 l 169 61 q 142 11 164 31 q 90 -8 121 -8 z "},"ò":{"ha":717,"x_min":39,"x_max":678,"o":"m 265 -8 q 101 60 163 -8 q 39 238 39 129 q 99 448 39 343 q 254 619 158 553 q 451 686 350 686 q 571 653 519 686 q 650 565 622 621 q 678 439 678 508 q 618 229 678 333 q 463 58 558 125 q 265 -8 367 -8 m 290 115 q 407 160 350 115 q 500 275 464 206 q 536 411 536 344 q 504 519 536 476 q 419 563 472 563 q 303 515 360 563 q 210 397 246 468 q 175 257 175 325 q 206 155 175 194 q 290 115 236 115 z "},"ó":{"ha":717,"x_min":39,"x_max":719,"o":"m 265 -8 q 101 60 163 -8 q 39 238 39 129 q 99 448 39 343 q 254 619 158 553 q 451 686 350 686 q 571 653 519 686 q 650 565 622 621 q 678 439 678 508 q 618 229 678 333 q 463 58 558 125 q 265 -8 367 -8 m 290 115 q 407 160 350 115 q 500 275 464 206 q 536 411 536 344 q 504 519 536 476 q 419 563 472 563 q 303 515 360 563 q 210 397 246 468 q 175 257 175 325 q 206 155 175 194 q 290 115 236 115 z "},"ô":{"ha":717,"x_min":39,"x_max":704,"o":"m 265 -8 q 101 60 163 -8 q 39 238 39 129 q 99 448 39 343 q 254 619 158 553 q 451 686 350 686 q 571 653 519 686 q 650 565 622 621 q 678 439 678 508 q 618 229 678 333 q 463 58 558 125 q 265 -8 367 -8 m 290 115 q 407 160 350 115 q 500 275 464 206 q 536 411 536 344 q 504 519 536 476 q 419 563 472 563 q 303 515 360 563 q 210 397 246 468 q 175 257 175 325 q 206 155 175 194 q 290 115 236 115 z "},"õ":{"ha":717,"x_min":39,"x_max":786,"o":"m 265 -8 q 101 60 163 -8 q 39 238 39 129 q 99 448 39 343 q 254 619 158 553 q 451 686 350 686 q 571 653 519 686 q 650 565 622 621 q 678 439 678 508 q 618 229 678 333 q 463 58 558 125 q 265 -8 367 -8 m 290 115 q 407 160 350 115 q 500 275 464 206 q 536 411 536 344 q 504 519 536 476 q 419 563 472 563 q 303 515 360 563 q 210 397 246 468 q 175 257 175 325 q 206 155 175 194 q 290 115 236 115 z "},"ö":{"ha":717,"x_min":39,"x_max":725,"o":"m 265 -8 q 101 60 163 -8 q 39 238 39 129 q 99 448 39 343 q 254 619 158 553 q 451 686 350 686 q 571 653 519 686 q 650 565 622 621 q 678 439 678 508 q 618 229 678 333 q 463 58 558 125 q 265 -8 367 -8 m 290 115 q 407 160 350 115 q 500 275 464 206 q 536 411 536 344 q 504 519 536 476 q 419 563 472 563 q 303 515 360 563 q 210 397 246 468 q 175 257 175 325 q 206 155 175 194 q 290 115 236 115 z "},"÷":{"ha":608,"x_min":74,"x_max":532,"o":"m 332 449 q 293 463 307 449 q 279 501 279 478 q 308 569 279 538 q 372 600 338 600 q 409 585 394 600 q 424 546 424 569 q 395 479 424 510 q 332 449 367 449 m 126 274 q 89 289 104 274 q 74 326 74 304 q 99 378 74 354 q 154 403 124 403 l 478 403 q 517 389 501 403 q 532 353 532 375 q 506 297 532 321 q 450 274 479 274 l 126 274 m 232 76 q 194 92 208 76 q 181 131 181 107 q 209 197 181 167 q 272 228 238 228 q 310 213 294 228 q 325 175 325 197 q 295 108 325 140 q 232 76 265 76 z "},"ø":{"ha":718,"x_min":33,"x_max":696,"o":"m 696 692 q 690 669 696 682 q 678 646 685 656 l 631 588 q 676 431 676 519 q 617 221 676 325 q 461 50 557 117 q 264 -17 365 -17 q 164 4 208 -17 l 144 -19 q 117 -44 132 -35 q 85 -53 101 -53 q 48 -37 63 -53 q 33 -1 33 -22 q 61 56 33 21 l 79 78 q 38 229 38 143 q 97 440 38 335 q 253 611 157 544 q 450 678 349 678 q 542 660 499 678 l 582 710 q 642 743 608 743 q 681 728 665 743 q 696 692 696 714 m 174 249 q 179 203 174 221 l 453 549 q 418 554 440 554 q 301 507 358 554 q 209 388 244 460 q 174 249 174 317 m 535 403 q 528 458 535 431 l 251 113 q 289 107 274 107 q 406 152 349 107 q 499 267 463 197 q 535 403 535 336 z "},"ù":{"ha":718,"x_min":58,"x_max":686,"o":"m 211 -12 q 97 26 135 -12 q 58 157 58 65 q 87 376 58 243 q 151 615 115 508 q 232 686 175 686 q 272 674 258 686 q 286 639 286 661 q 281 610 286 632 q 219 388 244 493 q 193 204 193 283 q 207 135 193 157 q 251 113 221 113 q 351 135 300 113 q 426 176 403 158 q 451 199 444 189 q 461 226 458 210 l 549 622 q 577 668 554 650 q 628 686 600 686 q 671 667 656 686 q 681 622 686 649 l 561 58 q 531 11 556 31 q 481 -8 507 -8 q 439 8 456 -8 q 424 46 422 24 l 425 68 q 334 10 392 33 q 211 -12 276 -12 z "},"ú":{"ha":718,"x_min":58,"x_max":686,"o":"m 211 -12 q 97 26 135 -12 q 58 157 58 65 q 87 376 58 243 q 151 615 115 508 q 232 686 175 686 q 272 674 258 686 q 286 639 286 661 q 281 610 286 632 q 219 388 244 493 q 193 204 193 283 q 207 135 193 157 q 251 113 221 113 q 351 135 300 113 q 426 176 403 158 q 451 199 444 189 q 461 226 458 210 l 549 622 q 577 668 554 650 q 628 686 600 686 q 671 667 656 686 q 681 622 686 649 l 561 58 q 531 11 556 31 q 481 -8 507 -8 q 439 8 456 -8 q 424 46 422 24 l 425 68 q 334 10 392 33 q 211 -12 276 -12 z "},"û":{"ha":718,"x_min":58,"x_max":686,"o":"m 211 -12 q 97 26 135 -12 q 58 157 58 65 q 87 376 58 243 q 151 615 115 508 q 232 686 175 686 q 272 674 258 686 q 286 639 286 661 q 281 610 286 632 q 219 388 244 493 q 193 204 193 283 q 207 135 193 157 q 251 113 221 113 q 351 135 300 113 q 426 176 403 158 q 451 199 444 189 q 461 226 458 210 l 549 622 q 577 668 554 650 q 628 686 600 686 q 671 667 656 686 q 681 622 686 649 l 561 58 q 531 11 556 31 q 481 -8 507 -8 q 439 8 456 -8 q 424 46 422 24 l 425 68 q 334 10 392 33 q 211 -12 276 -12 z "},"ü":{"ha":718,"x_min":58,"x_max":686,"o":"m 211 -12 q 97 26 135 -12 q 58 157 58 65 q 87 376 58 243 q 151 615 115 508 q 232 686 175 686 q 272 674 258 686 q 286 639 286 661 q 281 610 286 632 q 219 388 244 493 q 193 204 193 283 q 207 135 193 157 q 251 113 221 113 q 351 135 300 113 q 426 176 403 158 q 451 199 444 189 q 461 226 458 210 l 549 622 q 577 668 554 650 q 628 686 600 686 q 671 667 656 686 q 681 622 686 649 l 561 58 q 531 11 556 31 q 481 -8 507 -8 q 439 8 456 -8 q 424 46 422 24 l 425 68 q 334 10 392 33 q 211 -12 276 -12 z "},"ý":{"ha":638,"x_min":11,"x_max":692,"o":"m 64 -257 q 26 -242 42 -257 q 11 -204 11 -228 q 16 -178 11 -189 q 33 -147 21 -167 l 199 100 l 68 560 q 58 606 58 594 q 85 662 58 638 q 142 686 111 686 q 175 674 161 686 q 193 644 189 661 l 304 257 l 564 644 q 597 676 578 665 q 638 688 617 688 q 676 672 661 688 q 692 633 692 657 q 678 592 692 613 l 136 -214 q 105 -244 124 -232 q 64 -257 86 -257 z "},"þ":{"ha":726,"x_min":-22,"x_max":685,"o":"m 36 -254 q -7 -233 8 -254 q -17 -187 -22 -211 l 206 856 q 235 904 213 885 q 286 924 257 924 q 325 908 310 924 q 340 869 340 893 q 339 856 340 861 l 283 596 q 496 674 399 674 q 637 614 589 674 q 685 456 685 554 q 659 295 685 372 q 588 156 633 218 q 460 42 533 83 q 306 1 386 1 q 167 47 222 1 l 117 -187 q 86 -234 111 -214 q 36 -254 61 -254 m 326 136 q 486 215 421 136 q 538 314 519 258 q 556 429 556 369 q 532 517 556 486 q 465 549 508 549 q 342 521 396 549 q 254 458 289 493 l 193 169 q 326 136 271 136 z "},"ÿ":{"ha":638,"x_min":11,"x_max":692,"o":"m 64 -257 q 26 -242 42 -257 q 11 -204 11 -228 q 16 -178 11 -189 q 33 -147 21 -167 l 199 100 l 68 560 q 58 606 58 594 q 85 662 58 638 q 142 686 111 686 q 175 674 161 686 q 193 644 189 661 l 304 257 l 564 644 q 597 676 578 665 q 638 688 617 688 q 676 672 661 688 q 692 633 692 657 q 678 592 692 613 l 136 -214 q 105 -244 124 -232 q 64 -257 86 -257 z "},"Ā":{"ha":767,"x_min":-47,"x_max":754,"o":"m 618 -10 q 575 5 590 -10 q 557 46 560 19 l 518 326 l 221 264 l 82 36 q 10 -8 54 -8 q -31 8 -15 -8 q -47 47 -47 24 q -36 85 -47 65 l 57 238 l 51 240 q 21 289 21 254 q 41 341 21 318 q 90 371 61 364 l 143 382 l 460 904 q 493 935 472 924 q 535 947 514 947 q 572 936 557 947 q 589 901 586 925 l 696 97 q 697 79 697 90 q 675 15 697 39 q 618 -10 653 -10 m 499 456 l 472 679 l 313 417 l 499 456 z "},"ā":{"ha":706,"x_min":36,"x_max":706,"o":"m 249 -8 q 94 51 151 -8 q 36 213 36 111 q 97 434 36 324 q 256 615 157 544 q 461 685 354 685 q 574 667 525 685 q 671 625 624 650 l 549 47 q 519 -3 542 15 q 468 -22 497 -22 q 430 -9 444 -22 q 415 26 415 4 q 417 42 415 36 l 421 61 q 335 9 381 26 q 249 -8 290 -8 m 282 119 q 366 137 325 119 q 440 178 407 154 l 521 540 q 438 557 483 557 q 311 507 372 557 q 211 382 250 457 q 172 236 172 307 q 200 147 172 174 q 282 119 228 119 z "},"Ă":{"ha":767,"x_min":-47,"x_max":794,"o":"m 618 -10 q 575 5 590 -10 q 557 46 560 19 l 518 326 l 221 264 l 82 36 q 10 -8 54 -8 q -31 8 -15 -8 q -47 47 -47 24 q -36 85 -47 65 l 57 238 l 51 240 q 21 289 21 254 q 41 341 21 318 q 90 371 61 364 l 143 382 l 460 904 q 493 935 472 924 q 535 947 514 947 q 572 936 557 947 q 589 901 586 925 l 696 97 q 697 79 697 90 q 675 15 697 39 q 618 -10 653 -10 m 499 456 l 472 679 l 313 417 l 499 456 z "},"ă":{"ha":706,"x_min":36,"x_max":746,"o":"m 249 -8 q 94 51 151 -8 q 36 213 36 111 q 97 434 36 324 q 256 615 157 544 q 461 685 354 685 q 574 667 525 685 q 671 625 624 650 l 549 47 q 519 -3 542 15 q 468 -22 497 -22 q 430 -9 444 -22 q 415 26 415 4 q 417 42 415 36 l 421 61 q 335 9 381 26 q 249 -8 290 -8 m 282 119 q 366 137 325 119 q 440 178 407 154 l 521 540 q 438 557 483 557 q 311 507 372 557 q 211 382 250 457 q 172 236 172 307 q 200 147 172 174 q 282 119 228 119 z "},"Ą":{"ha":767,"x_min":-47,"x_max":697,"o":"m 650 -125 q 679 -137 668 -125 q 690 -171 690 -150 q 669 -210 690 -189 q 613 -245 647 -231 q 540 -260 578 -260 q 457 -231 488 -260 q 426 -154 426 -201 q 466 -46 426 -97 q 557 42 506 6 l 557 46 l 518 326 l 221 264 l 82 36 q 10 -8 54 -8 q -31 8 -15 -8 q -47 47 -47 24 q -36 85 -47 65 l 57 238 l 51 240 q 21 289 21 254 q 41 341 21 318 q 90 371 61 364 l 143 382 l 460 904 q 493 935 472 924 q 535 947 514 947 q 572 936 557 947 q 589 901 586 925 l 696 97 q 697 78 697 90 q 683 24 697 46 q 644 -6 669 3 q 624 -19 631 -17 q 559 -69 586 -40 q 532 -125 532 -97 q 541 -151 532 -142 q 564 -160 550 -160 q 608 -144 586 -160 q 650 -125 636 -125 m 313 417 l 499 456 l 472 679 l 313 417 z "},"ą":{"ha":706,"x_min":36,"x_max":671,"o":"m 476 -31 q 412 -80 439 -51 q 385 -136 385 -108 q 394 -162 385 -153 q 417 -171 403 -171 q 461 -156 439 -171 q 503 -136 489 -136 q 532 -149 521 -136 q 543 -182 543 -161 q 522 -221 543 -200 q 465 -256 500 -242 q 393 -271 431 -271 q 310 -242 340 -271 q 279 -165 279 -212 q 321 -54 279 -106 q 415 33 363 -3 l 417 42 l 421 61 q 335 9 381 26 q 249 -8 290 -8 q 94 51 151 -8 q 36 213 36 111 q 97 434 36 324 q 256 615 157 544 q 461 685 354 685 q 574 667 525 685 q 671 625 624 650 l 549 47 q 499 -17 539 1 q 489 -23 494 -19 q 476 -31 483 -26 m 282 119 q 366 137 325 119 q 440 178 407 154 l 521 540 q 438 557 483 557 q 311 507 372 557 q 211 382 250 457 q 172 236 172 307 q 200 147 172 174 q 282 119 228 119 z "},"Ć":{"ha":810,"x_min":60,"x_max":890,"o":"m 386 -11 q 217 31 290 -11 q 101 147 143 72 q 60 315 60 221 q 144 593 60 446 q 357 840 228 740 q 611 939 486 939 q 702 926 660 939 q 774 892 744 913 q 817 907 796 907 q 856 892 840 907 q 871 853 871 876 q 869 838 871 843 l 847 754 q 817 705 839 725 q 761 685 794 685 q 722 702 738 685 q 711 742 707 719 l 713 749 q 583 804 669 804 q 408 727 497 804 q 261 540 319 650 q 203 340 203 431 q 263 181 203 239 q 415 124 324 124 q 661 238 551 124 q 721 265 689 265 q 761 249 744 265 q 778 210 778 233 q 754 154 778 181 q 581 32 676 75 q 386 -11 486 -11 m 600 976 q 562 991 576 976 q 547 1029 547 1006 q 588 1094 547 1067 l 763 1217 q 829 1244 804 1244 q 874 1227 858 1244 q 890 1182 890 1210 q 878 1144 890 1164 q 847 1113 865 1124 l 656 997 q 600 976 621 976 z "},"ć":{"ha":654,"x_min":38,"x_max":704,"o":"m 297 -8 q 165 22 225 -8 q 72 108 106 53 q 38 233 38 163 q 99 440 38 333 q 256 616 161 546 q 443 686 351 686 q 618 608 560 686 q 640 556 640 578 q 615 501 640 525 q 558 476 590 476 q 518 493 531 476 q 474 544 496 528 q 415 560 451 560 q 306 510 364 560 q 210 388 249 460 q 171 257 171 317 q 213 156 171 194 q 307 117 254 117 q 401 138 361 117 q 478 196 442 158 q 508 221 493 211 q 544 231 524 231 q 582 216 567 231 q 597 179 597 201 q 589 147 597 163 q 571 122 581 132 q 444 30 519 68 q 297 -8 369 -8 z "},"Ĉ":{"ha":810,"x_min":60,"x_max":871,"o":"m 386 -11 q 217 31 290 -11 q 101 147 143 72 q 60 315 60 221 q 144 593 60 446 q 357 840 228 740 q 611 939 486 939 q 702 926 660 939 q 774 892 744 913 q 817 907 796 907 q 856 892 840 907 q 871 853 871 876 q 869 838 871 843 l 847 754 q 817 705 839 725 q 761 685 794 685 q 722 702 738 685 q 711 742 707 719 l 713 749 q 583 804 669 804 q 408 727 497 804 q 261 540 319 650 q 203 340 203 431 q 263 181 203 239 q 415 124 324 124 q 661 238 551 124 q 721 265 689 265 q 761 249 744 265 q 778 210 778 233 q 754 154 778 181 q 581 32 676 75 q 386 -11 486 -11 z "},"ĉ":{"ha":654,"x_min":38,"x_max":689,"o":"m 297 -8 q 165 22 225 -8 q 72 108 106 53 q 38 233 38 163 q 99 440 38 333 q 256 616 161 546 q 443 686 351 686 q 618 608 560 686 q 640 556 640 578 q 615 501 640 525 q 558 476 590 476 q 518 493 531 476 q 474 544 496 528 q 415 560 451 560 q 306 510 364 560 q 210 388 249 460 q 171 257 171 317 q 213 156 171 194 q 307 117 254 117 q 401 138 361 117 q 478 196 442 158 q 508 221 493 211 q 544 231 524 231 q 582 216 567 231 q 597 179 597 201 q 589 147 597 163 q 571 122 581 132 q 444 30 519 68 q 297 -8 369 -8 z "},"Č":{"ha":810,"x_min":60,"x_max":908,"o":"m 386 -11 q 217 31 290 -11 q 101 147 143 72 q 60 315 60 221 q 144 593 60 446 q 357 840 228 740 q 611 939 486 939 q 702 926 660 939 q 774 892 744 913 q 817 907 796 907 q 856 892 840 907 q 871 853 871 876 q 869 838 871 843 l 847 754 q 817 705 839 725 q 761 685 794 685 q 722 702 738 685 q 711 742 707 719 l 713 749 q 583 804 669 804 q 408 727 497 804 q 261 540 319 650 q 203 340 203 431 q 263 181 203 239 q 415 124 324 124 q 661 238 551 124 q 721 265 689 265 q 761 249 744 265 q 778 210 778 233 q 754 154 778 181 q 581 32 676 75 q 386 -11 486 -11 z "},"č":{"ha":654,"x_min":38,"x_max":726,"o":"m 297 -8 q 165 22 225 -8 q 72 108 106 53 q 38 233 38 163 q 99 440 38 333 q 256 616 161 546 q 443 686 351 686 q 618 608 560 686 q 640 556 640 578 q 615 501 640 525 q 558 476 590 476 q 518 493 531 476 q 474 544 496 528 q 415 560 451 560 q 306 510 364 560 q 210 388 249 460 q 171 257 171 317 q 213 156 171 194 q 307 117 254 117 q 401 138 361 117 q 478 196 442 158 q 508 221 493 211 q 544 231 524 231 q 582 216 567 231 q 597 179 597 201 q 589 147 597 163 q 571 122 581 132 q 444 30 519 68 q 297 -8 369 -8 z "},"Ď":{"ha":869,"x_min":42,"x_max":840,"o":"m 243 -21 q 82 3 176 -21 q 53 23 65 7 q 42 58 42 39 q 43 71 42 67 l 217 883 q 247 932 222 913 q 300 951 271 951 q 583 906 461 951 q 772 772 704 861 q 840 556 840 683 q 764 256 840 388 q 551 52 688 125 q 243 -21 415 -21 m 274 115 q 497 165 401 115 q 645 308 593 215 q 697 521 697 400 q 600 730 697 660 q 340 813 503 800 l 194 124 q 274 115 239 115 z "},"ď":{"ha":810,"x_min":36,"x_max":976,"o":"m 229 -15 q 90 43 143 -15 q 36 207 36 101 q 86 431 36 322 q 225 607 136 539 q 424 675 314 675 q 563 633 503 675 l 618 858 q 649 906 625 886 q 701 926 674 926 q 740 910 726 926 q 754 872 753 894 q 751 856 754 867 l 561 47 q 531 1 554 19 q 479 -17 507 -17 q 440 -3 454 -17 q 426 33 426 11 q 428 50 426 44 l 435 78 q 340 10 394 36 q 229 -15 285 -15 m 267 110 q 360 131 315 110 q 436 185 406 153 q 475 251 467 218 l 535 507 q 477 537 513 524 q 406 550 442 550 q 281 502 335 550 q 200 379 228 454 q 172 228 172 304 q 197 140 172 169 q 267 110 222 110 m 821 636 q 784 649 797 636 q 771 683 771 663 q 781 719 771 703 l 819 785 q 815 808 815 796 q 848 881 815 847 q 918 915 881 915 q 960 899 944 915 q 976 860 976 883 q 975 844 976 850 q 947 779 971 822 q 893 689 926 742 q 861 650 878 664 q 821 636 844 636 z "},"Đ":{"ha":869,"x_min":3,"x_max":839,"o":"m 299 943 q 581 898 460 943 q 771 764 703 853 q 839 547 839 675 q 763 248 839 379 q 550 44 686 117 q 242 -29 414 -29 q 81 -6 175 -29 q 52 15 64 -1 q 40 50 40 31 q 42 63 40 58 l 107 369 l 58 369 q 19 385 35 369 q 3 425 3 401 q 30 481 3 456 q 88 507 57 507 l 136 507 l 215 875 q 245 924 221 904 q 299 943 269 943 m 272 107 q 496 157 400 107 q 644 299 592 207 q 696 513 696 392 q 599 722 696 651 q 339 804 501 792 l 276 507 l 372 507 q 413 491 397 507 q 429 451 429 475 q 402 395 429 421 q 343 369 375 369 l 247 369 l 193 115 q 272 107 238 107 z "},"đ":{"ha":736,"x_min":36,"x_max":847,"o":"m 796 847 q 833 834 818 847 q 847 801 847 821 q 823 753 847 775 q 768 731 799 731 l 722 731 l 561 47 q 531 1 554 19 q 479 -17 507 -17 q 440 -3 454 -17 q 426 33 426 11 q 428 50 426 44 l 435 78 q 340 10 394 36 q 229 -15 285 -15 q 90 43 143 -15 q 36 207 36 101 q 86 431 36 322 q 225 607 136 539 q 424 675 314 675 q 563 633 503 675 l 586 731 l 518 731 q 481 745 496 731 q 467 781 467 760 q 493 827 467 807 q 546 847 519 847 l 615 847 l 618 858 q 649 906 625 886 q 701 926 674 926 q 740 910 726 926 q 754 872 753 894 q 751 856 754 867 l 750 847 l 796 847 m 535 507 q 477 537 513 524 q 406 550 442 550 q 281 502 335 550 q 200 379 228 454 q 172 228 172 304 q 197 140 172 169 q 267 110 222 110 q 360 131 315 110 q 436 185 406 153 q 475 251 467 218 l 535 507 z "},"Ę":{"ha":828,"x_min":40,"x_max":908,"o":"m 853 931 q 893 915 878 931 q 908 876 908 900 q 882 818 908 844 q 824 792 856 792 l 338 792 l 285 544 l 707 544 q 747 530 732 544 q 761 492 761 515 q 736 433 761 458 q 678 407 711 407 l 256 407 l 199 139 l 682 139 q 722 124 707 139 q 736 85 736 108 q 721 38 736 60 q 682 6 706 15 q 647 -19 665 -8 q 583 -69 610 -40 q 556 -125 556 -97 q 565 -151 556 -142 q 588 -160 574 -160 q 632 -144 610 -160 q 674 -125 660 -125 q 703 -137 692 -125 q 714 -171 714 -150 q 692 -210 714 -189 q 636 -245 671 -231 q 564 -260 601 -260 q 481 -231 511 -260 q 450 -154 450 -201 q 531 0 450 -75 l 101 0 q 56 19 72 0 q 46 64 40 38 l 215 861 q 246 910 222 890 q 299 931 269 931 l 853 931 z "},"ę":{"ha":683,"x_min":43,"x_max":665,"o":"m 440 685 q 567 656 517 685 q 642 586 618 628 q 665 506 665 544 q 651 456 665 476 q 608 421 638 436 l 190 207 q 240 140 196 164 q 340 117 285 117 q 500 176 431 117 q 551 199 528 199 q 590 185 575 199 q 604 151 604 172 q 597 118 604 132 q 572 89 590 104 q 502 42 543 64 q 417 7 461 19 q 394 -8 403 -4 q 330 -58 357 -29 q 303 -114 303 -86 q 312 -140 303 -131 q 335 -149 321 -149 q 379 -133 357 -149 q 421 -114 407 -114 q 450 -126 439 -114 q 461 -160 461 -139 q 440 -199 461 -178 q 383 -234 418 -219 q 311 -249 349 -249 q 228 -219 258 -249 q 197 -143 197 -190 q 263 -4 197 -75 q 102 78 161 11 q 43 253 43 146 q 99 460 43 360 q 246 622 154 560 q 440 685 338 685 m 531 501 q 493 547 521 532 q 424 563 465 563 q 258 486 335 563 q 201 404 222 450 q 176 322 179 358 l 531 501 z "},"Ě":{"ha":828,"x_min":40,"x_max":908,"o":"m 101 0 q 56 19 72 0 q 46 64 40 38 l 215 861 q 246 910 222 890 q 299 931 269 931 l 853 931 q 893 915 878 931 q 908 876 908 900 q 882 818 908 844 q 824 792 856 792 l 338 792 l 285 544 l 707 544 q 747 530 732 544 q 761 492 761 515 q 736 433 761 458 q 678 407 711 407 l 256 407 l 199 139 l 682 139 q 722 124 707 139 q 736 85 736 108 q 711 26 736 51 q 653 0 686 0 l 101 0 z "},"ě":{"ha":683,"x_min":43,"x_max":688,"o":"m 324 -8 q 119 61 196 -8 q 43 253 43 131 q 99 460 43 360 q 246 622 154 560 q 440 685 338 685 q 567 656 517 685 q 642 586 618 628 q 665 506 665 544 q 651 456 665 476 q 608 421 638 436 l 190 207 q 240 140 196 164 q 340 117 285 117 q 500 176 431 117 q 551 199 528 199 q 590 185 575 199 q 604 151 604 172 q 597 118 604 132 q 572 89 590 104 q 457 20 528 49 q 324 -8 386 -8 m 531 501 q 493 547 521 532 q 424 563 465 563 q 258 486 335 563 q 201 404 222 450 q 176 322 179 358 l 531 501 z "},"Ĝ":{"ha":981,"x_min":67,"x_max":942,"o":"m 401 -10 q 220 38 296 -10 q 106 167 144 86 q 67 346 67 247 q 146 628 67 489 q 355 853 225 767 q 625 940 485 940 q 806 896 735 940 q 910 791 878 851 q 940 683 942 731 q 915 622 939 643 q 860 600 892 600 q 821 610 836 600 q 801 649 806 621 q 740 759 790 714 q 594 804 690 804 q 408 740 497 804 q 265 577 319 676 q 210 379 210 478 q 272 192 210 257 q 432 126 333 126 q 597 172 521 126 q 722 301 674 218 q 636 293 683 301 l 599 285 q 554 278 571 278 q 515 292 531 278 q 500 331 500 306 q 517 381 500 360 q 563 414 535 403 q 644 432 589 425 q 757 439 700 439 q 906 415 833 439 q 939 369 939 404 q 922 317 939 340 q 881 286 906 294 q 857 282 865 281 q 669 72 790 153 q 401 -10 549 -10 z "},"ĝ":{"ha":718,"x_min":1,"x_max":694,"o":"m 200 -242 q 40 -222 118 -242 q 12 -204 22 -218 q 1 -171 1 -190 q 27 -115 1 -140 q 83 -90 53 -90 q 135 -97 103 -90 q 226 -108 185 -108 q 346 -72 300 -108 q 414 40 392 -36 l 422 68 q 263 4 344 4 q 102 67 164 4 q 40 242 40 131 q 101 455 40 351 q 258 622 161 558 q 457 686 354 686 q 567 657 514 686 q 594 688 576 676 q 631 700 611 700 q 676 688 661 700 q 690 653 690 676 q 688 626 690 636 l 551 46 q 424 -169 518 -96 q 200 -242 331 -242 m 281 135 q 412 192 356 135 q 492 360 468 250 l 528 528 q 485 546 511 539 q 433 553 458 553 q 308 514 369 553 q 208 410 246 475 q 169 269 169 344 q 199 170 169 206 q 281 135 228 135 z "},"Ĥ":{"ha":993,"x_min":39,"x_max":1003,"o":"m 100 -8 q 55 13 71 -8 q 44 60 39 35 l 218 869 q 248 918 224 899 q 300 938 272 938 q 342 922 325 938 q 358 883 358 907 q 357 869 358 874 l 281 508 l 800 579 l 863 869 q 893 918 868 899 q 946 938 918 938 q 986 922 969 938 q 1003 883 1003 906 q 1001 869 1003 874 l 829 60 q 799 13 824 33 q 746 -8 774 -8 q 700 13 715 -8 q 690 60 685 33 l 771 439 l 250 368 l 183 60 q 153 11 176 31 q 100 -8 131 -8 z "},"ĥ":{"ha":735,"x_min":32,"x_max":664,"o":"m 90 -10 q 48 10 64 -10 q 38 57 32 31 l 208 857 q 239 905 215 885 q 289 925 263 925 q 328 909 314 925 q 343 871 343 893 q 342 857 343 861 l 275 544 q 396 647 326 606 q 526 688 465 688 q 631 641 597 688 q 664 499 664 594 q 639 284 664 424 q 586 53 614 144 q 556 9 578 26 q 508 -8 535 -8 q 468 6 482 -8 q 454 42 454 21 q 456 56 454 51 l 472 131 q 515 332 501 257 q 529 471 529 407 q 519 537 529 518 q 485 556 510 556 q 373 500 435 556 q 269 388 311 444 q 236 329 247 357 q 217 267 225 301 l 172 60 q 142 9 165 28 q 90 -10 118 -10 z "},"Ĵ":{"ha":654,"x_min":0,"x_max":776,"o":"m 215 -8 q 56 42 111 -8 q 0 188 0 93 q 23 281 0 247 q 90 315 46 315 q 131 300 115 315 q 146 261 146 285 q 143 238 146 253 q 140 213 140 224 q 168 151 140 171 q 244 131 196 131 q 335 157 300 131 q 381 229 371 183 l 500 793 l 374 793 q 333 808 349 793 q 317 847 317 824 q 344 905 317 879 q 403 931 371 931 l 668 931 q 708 915 692 931 q 724 876 724 899 q 703 824 724 847 q 656 796 682 800 l 639 793 l 519 229 q 414 58 497 124 q 215 -8 331 -8 z "},"ĵ":{"ha":389,"x_min":-194,"x_max":522,"o":"m -15 -236 q -106 -207 -65 -236 q -171 -129 -147 -178 q -194 -26 -194 -81 q -171 31 -194 8 q -115 54 -147 54 q -61 7 -65 54 q -40 -76 -57 -42 q 8 -110 -22 -110 q 53 -79 36 -110 q 83 14 71 -49 l 206 619 q 235 668 213 649 q 286 688 257 688 q 328 666 311 688 q 340 621 346 644 l 217 21 q 131 -169 192 -101 q -15 -236 71 -236 z "},"Ĺ":{"ha":693,"x_min":39,"x_max":636,"o":"m 103 -8 q 56 11 72 -10 q 44 60 39 32 l 217 871 q 247 919 222 899 q 300 939 272 939 q 344 918 329 939 q 354 871 360 897 l 197 133 l 575 158 q 621 146 606 160 q 636 107 636 132 q 611 50 636 75 q 557 22 586 25 l 103 -8 m 272 976 q 234 991 249 976 q 219 1029 219 1006 q 260 1094 219 1067 l 435 1217 q 501 1244 476 1244 q 547 1227 531 1244 q 563 1182 563 1210 q 550 1144 563 1164 q 519 1113 538 1124 l 328 997 q 272 976 293 976 z "},"ĺ":{"ha":329,"x_min":33,"x_max":563,"o":"m 93 -8 q 49 13 65 -8 q 38 54 33 33 l 210 860 q 239 906 217 888 q 290 925 261 925 q 333 904 318 925 q 343 860 349 883 l 172 54 q 142 10 167 29 q 93 -8 117 -8 m 272 976 q 234 991 249 976 q 219 1029 219 1006 q 260 1094 219 1067 l 435 1217 q 501 1244 476 1244 q 547 1227 531 1244 q 563 1182 563 1210 q 550 1144 563 1164 q 519 1113 538 1124 l 328 997 q 272 976 293 976 z "},"Ľ":{"ha":693,"x_min":39,"x_max":715,"o":"m 103 -8 q 56 11 72 -10 q 44 60 39 32 l 217 871 q 247 919 222 899 q 300 939 272 939 q 344 918 329 939 q 354 871 360 897 l 197 133 l 575 158 q 621 146 606 160 q 636 107 636 132 q 611 50 636 75 q 557 22 586 25 l 103 -8 m 560 644 q 523 658 536 644 q 510 692 510 671 q 519 728 510 711 l 558 793 q 554 817 554 804 q 587 890 554 856 q 657 924 619 924 q 699 908 683 924 q 715 868 715 892 q 714 853 715 858 q 686 788 710 831 q 632 697 665 750 q 600 658 617 672 q 560 644 583 644 z "},"ľ":{"ha":392,"x_min":33,"x_max":551,"o":"m 93 -8 q 49 13 65 -8 q 38 54 33 33 l 210 860 q 239 906 217 888 q 290 925 261 925 q 333 904 318 925 q 343 860 349 883 l 172 54 q 142 10 167 29 q 93 -8 117 -8 m 396 661 q 359 674 372 661 q 346 708 346 688 q 356 744 346 728 l 394 810 q 390 833 390 821 q 423 906 390 872 q 493 940 456 940 q 535 924 519 940 q 551 885 551 908 q 550 869 551 875 q 522 804 546 847 q 468 714 501 767 q 436 675 453 689 q 396 661 419 661 z "},"Ł":{"ha":722,"x_min":13,"x_max":664,"o":"m 603 150 q 649 138 633 151 q 664 99 664 124 q 639 42 664 67 q 585 14 614 17 l 131 -17 q 83 3 100 -18 q 72 51 67 24 l 135 347 l 108 332 q 68 322 89 322 q 29 336 46 322 q 13 374 13 350 q 57 449 13 422 l 169 511 l 244 863 q 275 910 250 890 q 328 931 300 931 q 372 910 357 931 q 382 863 388 889 l 325 597 l 347 610 q 388 621 368 621 q 428 606 413 621 q 444 565 444 590 q 399 494 444 521 l 290 435 l 225 125 l 603 150 z "},"ł":{"ha":408,"x_min":18,"x_max":449,"o":"m 392 610 q 432 594 415 610 q 449 556 449 579 q 437 514 449 533 q 404 483 425 494 l 286 417 l 207 46 q 176 2 201 21 q 128 -17 151 -17 q 84 4 100 -17 q 72 46 68 25 l 133 332 l 113 321 q 72 311 94 311 q 33 326 49 311 q 18 364 18 340 q 63 438 18 413 l 168 497 l 244 851 q 274 898 251 879 q 325 917 296 917 q 368 896 353 917 q 378 851 383 875 l 321 582 l 351 599 q 392 610 371 610 z "},"Ń":{"ha":906,"x_min":42,"x_max":918,"o":"m 97 -8 q 58 8 75 -8 q 42 47 42 25 q 43 60 42 56 l 217 869 q 246 918 224 899 q 297 938 268 938 q 351 901 333 938 l 649 279 l 775 869 q 806 919 782 899 q 858 939 829 939 q 903 917 888 939 q 913 869 918 894 l 740 60 q 713 12 735 32 q 663 -8 692 -8 q 599 38 621 -8 l 307 649 l 181 60 q 151 11 175 31 q 97 -8 126 -8 m 553 976 q 515 991 529 976 q 500 1029 500 1006 q 540 1094 500 1067 l 715 1217 q 782 1244 757 1244 q 827 1227 811 1244 q 843 1182 843 1210 q 831 1144 843 1164 q 800 1113 818 1124 l 608 997 q 553 976 574 976 z "},"ń":{"ha":754,"x_min":32,"x_max":735,"o":"m 90 -8 q 48 11 64 -8 q 38 56 32 31 l 157 619 q 188 667 163 647 q 240 686 213 686 q 277 672 263 686 q 292 635 292 657 q 290 619 292 625 l 268 514 q 394 641 325 597 q 533 685 463 685 q 652 645 614 685 q 690 513 690 606 q 663 301 690 426 l 610 58 q 582 12 604 32 q 532 -8 560 -8 q 490 12 506 -8 q 479 57 474 32 l 528 288 q 554 472 554 411 q 539 538 554 519 q 493 556 524 556 q 402 520 451 556 q 303 419 353 485 q 235 308 260 363 q 194 178 211 254 l 169 61 q 142 11 164 31 q 90 -8 121 -8 z "},"Ň":{"ha":906,"x_min":42,"x_max":918,"o":"m 97 -8 q 58 8 75 -8 q 42 47 42 25 q 43 60 42 56 l 217 869 q 246 918 224 899 q 297 938 268 938 q 351 901 333 938 l 649 279 l 775 869 q 806 919 782 899 q 858 939 829 939 q 903 917 888 939 q 913 869 918 894 l 740 60 q 713 12 735 32 q 663 -8 692 -8 q 599 38 621 -8 l 307 649 l 181 60 q 151 11 175 31 q 97 -8 126 -8 z "},"ň":{"ha":754,"x_min":32,"x_max":757,"o":"m 90 -8 q 48 11 64 -8 q 38 56 32 31 l 157 619 q 188 667 163 647 q 240 686 213 686 q 277 672 263 686 q 292 635 292 657 q 290 619 292 625 l 268 514 q 394 641 325 597 q 533 685 463 685 q 652 645 614 685 q 690 513 690 606 q 663 301 690 426 l 610 58 q 582 12 604 32 q 532 -8 560 -8 q 490 12 506 -8 q 479 57 474 32 l 528 288 q 554 472 554 411 q 539 538 554 519 q 493 556 524 556 q 402 520 451 556 q 303 419 353 485 q 235 308 260 363 q 194 178 211 254 l 169 61 q 142 11 164 31 q 90 -8 121 -8 z "},"Ő":{"ha":881,"x_min":64,"x_max":1036,"o":"m 340 -11 q 193 31 256 -11 q 97 146 131 72 q 64 314 64 219 q 138 608 64 463 q 334 846 211 753 q 594 939 457 939 q 742 897 679 939 q 838 782 804 856 q 871 614 871 708 q 797 320 871 465 q 601 82 724 175 q 340 -11 478 -11 m 375 121 q 538 188 454 121 q 677 364 622 256 q 732 588 732 472 q 686 746 732 685 q 560 807 640 807 q 397 740 481 807 q 258 564 313 672 q 203 340 203 456 q 249 182 203 243 q 375 121 294 121 m 481 975 q 445 990 460 975 q 431 1029 431 1006 q 460 1086 431 1064 l 640 1217 q 701 1243 675 1243 q 744 1226 728 1243 q 760 1185 760 1210 q 750 1143 760 1164 q 722 1111 740 1122 l 528 992 q 505 980 517 985 q 481 975 493 975 m 757 975 q 722 990 736 975 q 707 1029 707 1006 q 736 1086 707 1065 l 918 1217 q 978 1243 956 1243 q 1020 1226 1004 1243 q 1036 1185 1036 1210 q 1026 1143 1036 1164 q 999 1111 1017 1122 l 804 992 q 757 975 775 975 z "},"ő":{"ha":717,"x_min":39,"x_max":868,"o":"m 265 -8 q 101 60 163 -8 q 39 238 39 129 q 99 448 39 343 q 254 619 158 553 q 451 686 350 686 q 571 653 519 686 q 650 565 622 621 q 678 439 678 508 q 618 229 678 333 q 463 58 558 125 q 265 -8 367 -8 m 290 115 q 407 160 350 115 q 500 275 464 206 q 536 411 536 344 q 504 519 536 476 q 419 563 472 563 q 303 515 360 563 q 210 397 246 468 q 175 257 175 325 q 206 155 175 194 q 290 115 236 115 z "},"Œ":{"ha":1400,"x_min":63,"x_max":1481,"o":"m 336 -11 q 190 31 251 -11 q 95 147 128 74 q 63 314 63 221 q 139 604 63 458 q 339 844 215 750 q 592 939 463 939 q 796 826 731 939 l 803 861 q 831 910 810 890 q 878 931 851 931 l 1425 931 q 1465 915 1450 931 q 1481 876 1481 900 q 1454 818 1481 844 q 1396 792 1428 792 l 910 792 l 857 544 l 1279 544 q 1319 530 1304 544 q 1333 492 1333 515 q 1308 433 1333 458 q 1250 407 1283 407 l 828 407 l 779 139 l 1254 139 q 1294 124 1279 139 q 1308 85 1308 108 q 1283 26 1308 51 q 1225 0 1258 0 l 681 0 q 642 19 656 0 q 633 64 628 38 l 650 146 q 508 31 588 72 q 336 -11 429 -11 m 364 121 q 538 189 454 121 q 675 363 622 257 q 728 576 728 469 q 682 741 728 675 q 556 807 636 807 q 384 734 467 807 q 250 551 301 661 q 199 340 199 442 q 243 182 199 243 q 364 121 288 121 z "},"œ":{"ha":1149,"x_min":39,"x_max":1132,"o":"m 265 -8 q 101 60 163 -8 q 39 238 39 129 q 99 448 39 343 q 254 619 158 553 q 451 686 350 686 q 569 651 521 686 q 638 547 617 615 q 762 648 692 611 q 907 685 832 685 q 1034 656 983 685 q 1108 586 1085 628 q 1132 506 1132 544 q 1074 421 1132 450 l 656 207 q 712 139 671 163 q 808 115 753 115 q 892 134 847 115 q 967 179 936 153 q 1018 201 994 201 q 1057 188 1043 201 q 1071 150 1071 174 q 1039 89 1071 117 q 924 20 994 49 q 790 -8 853 -8 q 633 34 697 -8 q 542 149 569 76 q 413 34 486 76 q 265 -8 340 -8 m 290 115 q 408 158 351 115 q 501 270 465 201 q 536 411 536 339 q 504 519 536 476 q 419 563 472 563 q 303 515 360 563 q 210 397 246 468 q 175 257 175 325 q 206 155 175 194 q 290 115 236 115 m 996 508 q 879 563 971 563 q 778 533 828 563 q 692 452 728 504 q 646 335 656 400 l 996 508 z "},"Ŕ":{"ha":810,"x_min":40,"x_max":828,"o":"m 828 703 q 751 507 828 597 q 539 375 675 417 q 699 172 636 311 q 731 71 731 101 q 705 16 731 40 q 647 -8 679 -8 q 593 29 608 -8 q 326 315 483 315 q 232 307 285 315 l 179 60 q 149 11 174 31 q 97 -8 125 -8 q 56 6 71 -8 q 40 44 40 21 q 42 60 40 54 l 214 863 q 246 928 224 910 q 319 946 268 946 l 392 946 q 706 890 583 946 q 828 703 828 835 m 260 442 q 463 468 364 442 q 624 546 561 494 q 686 669 686 597 q 603 777 686 740 q 367 814 521 814 l 339 814 l 260 442 m 506 976 q 467 991 482 976 q 453 1029 453 1006 q 493 1094 453 1067 l 668 1217 q 735 1244 710 1244 q 780 1227 764 1244 q 796 1182 796 1210 q 783 1144 796 1164 q 753 1113 771 1124 l 561 997 q 506 976 526 976 z "},"ŕ":{"ha":560,"x_min":32,"x_max":669,"o":"m 494 688 q 575 663 546 688 q 604 601 604 638 q 599 557 604 585 q 589 510 594 529 q 560 467 582 485 q 511 449 539 449 q 472 461 486 449 q 458 493 458 474 q 463 518 458 503 q 468 539 468 533 q 447 556 468 556 q 373 526 418 556 q 296 464 328 497 q 235 339 250 418 l 172 56 q 142 11 167 31 q 93 -8 118 -8 q 49 12 67 -8 q 38 56 32 32 l 157 618 q 188 665 163 646 q 240 685 213 685 q 284 667 271 685 q 293 624 297 649 l 286 586 q 384 661 329 635 q 494 688 439 688 z "},"Ř":{"ha":810,"x_min":40,"x_max":828,"o":"m 828 703 q 751 507 828 597 q 539 375 675 417 q 699 172 636 311 q 731 71 731 101 q 705 16 731 40 q 647 -8 679 -8 q 593 29 608 -8 q 326 315 483 315 q 232 307 285 315 l 179 60 q 149 11 174 31 q 97 -8 125 -8 q 56 6 71 -8 q 40 44 40 21 q 42 60 40 54 l 214 863 q 246 928 224 910 q 319 946 268 946 l 392 946 q 706 890 583 946 q 828 703 828 835 m 260 442 q 463 468 364 442 q 624 546 561 494 q 686 669 686 597 q 603 777 686 740 q 367 814 521 814 l 339 814 l 260 442 z "},"ř":{"ha":560,"x_min":32,"x_max":692,"o":"m 494 688 q 575 663 546 688 q 604 601 604 638 q 599 557 604 585 q 589 510 594 529 q 560 467 582 485 q 511 449 539 449 q 472 461 486 449 q 458 493 458 474 q 463 518 458 503 q 468 539 468 533 q 447 556 468 556 q 373 526 418 556 q 296 464 328 497 q 235 339 250 418 l 172 56 q 142 11 167 31 q 93 -8 118 -8 q 49 12 67 -8 q 38 56 32 32 l 157 618 q 188 665 163 646 q 240 685 213 685 q 284 667 271 685 q 293 624 297 649 l 286 586 q 384 661 329 635 q 494 688 439 688 z "},"Ś":{"ha":758,"x_min":4,"x_max":792,"o":"m 315 -8 q 160 22 232 -8 q 47 102 89 51 q 4 213 4 153 q 28 273 4 249 q 82 297 51 297 q 125 283 110 297 q 143 246 140 269 q 207 151 151 183 q 338 119 263 119 q 449 144 397 119 q 530 208 500 168 q 560 293 560 249 q 523 363 560 333 q 383 424 486 392 q 206 510 274 458 q 139 658 139 563 q 188 800 139 736 q 326 901 236 864 q 531 939 415 939 q 722 893 651 939 q 792 775 792 847 q 767 694 792 725 q 704 663 743 663 q 667 676 682 663 q 651 707 651 689 q 653 720 651 713 q 656 736 656 728 q 615 789 656 767 q 500 811 574 811 q 338 773 397 811 q 278 676 278 735 q 322 608 278 636 q 469 543 365 579 q 640 452 582 506 q 699 322 699 399 q 644 157 699 233 q 500 36 589 81 q 315 -8 411 -8 m 479 976 q 441 991 456 976 q 426 1029 426 1006 q 467 1094 426 1067 l 642 1217 q 708 1244 683 1244 q 753 1227 738 1244 q 769 1182 769 1210 q 757 1144 769 1164 q 726 1113 744 1124 l 535 997 q 479 976 500 976 z "},"ś":{"ha":590,"x_min":3,"x_max":619,"o":"m 233 -8 q 113 19 165 -8 q 31 88 60 46 q 3 171 3 129 q 28 226 3 201 q 83 250 53 250 q 119 238 107 250 q 135 204 132 225 q 170 136 139 161 q 256 111 201 111 q 349 140 311 111 q 388 206 388 169 q 364 252 388 235 q 276 290 340 269 q 143 363 185 321 q 101 467 101 404 q 140 579 101 529 q 243 657 179 629 q 382 685 307 685 q 537 648 485 685 q 589 542 589 611 q 563 455 589 488 q 497 422 536 422 q 458 436 472 422 q 443 472 443 450 q 451 497 443 482 q 460 524 460 513 q 363 568 460 568 q 266 547 299 568 q 233 493 233 525 q 258 447 233 465 q 354 404 282 429 q 483 338 444 374 q 522 238 522 301 q 483 117 522 174 q 376 26 443 60 q 233 -8 310 -8 z "},"Ŝ":{"ha":758,"x_min":4,"x_max":792,"o":"m 315 -8 q 160 22 232 -8 q 47 102 89 51 q 4 213 4 153 q 28 273 4 249 q 82 297 51 297 q 125 283 110 297 q 143 246 140 269 q 207 151 151 183 q 338 119 263 119 q 449 144 397 119 q 530 208 500 168 q 560 293 560 249 q 523 363 560 333 q 383 424 486 392 q 206 510 274 458 q 139 658 139 563 q 188 800 139 736 q 326 901 236 864 q 531 939 415 939 q 722 893 651 939 q 792 775 792 847 q 767 694 792 725 q 704 663 743 663 q 667 676 682 663 q 651 707 651 689 q 653 720 651 713 q 656 736 656 728 q 615 789 656 767 q 500 811 574 811 q 338 773 397 811 q 278 676 278 735 q 322 608 278 636 q 469 543 365 579 q 640 452 582 506 q 699 322 699 399 q 644 157 699 233 q 500 36 589 81 q 315 -8 411 -8 z "},"ŝ":{"ha":590,"x_min":3,"x_max":604,"o":"m 233 -8 q 113 19 165 -8 q 31 88 60 46 q 3 171 3 129 q 28 226 3 201 q 83 250 53 250 q 119 238 107 250 q 135 204 132 225 q 170 136 139 161 q 256 111 201 111 q 349 140 311 111 q 388 206 388 169 q 364 252 388 235 q 276 290 340 269 q 143 363 185 321 q 101 467 101 404 q 140 579 101 529 q 243 657 179 629 q 382 685 307 685 q 537 648 485 685 q 589 542 589 611 q 563 455 589 488 q 497 422 536 422 q 458 436 472 422 q 443 472 443 450 q 451 497 443 482 q 460 524 460 513 q 363 568 460 568 q 266 547 299 568 q 233 493 233 525 q 258 447 233 465 q 354 404 282 429 q 483 338 444 374 q 522 238 522 301 q 483 117 522 174 q 376 26 443 60 q 233 -8 310 -8 z "},"Ş":{"ha":758,"x_min":4,"x_max":792,"o":"m 531 939 q 722 893 651 939 q 792 775 792 847 q 767 694 792 725 q 704 663 743 663 q 667 676 682 663 q 651 707 651 689 q 653 720 651 713 q 656 736 656 728 q 615 789 656 767 q 500 811 574 811 q 338 773 397 811 q 278 676 278 735 q 322 608 278 636 q 469 543 365 579 q 640 452 582 506 q 699 322 699 399 q 649 165 699 238 q 519 47 600 93 q 349 -7 439 0 q 343 -43 346 -32 q 385 -53 363 -46 q 447 -135 447 -76 q 399 -237 447 -197 q 288 -278 351 -278 q 208 -260 238 -278 q 178 -211 178 -243 q 194 -173 178 -189 q 231 -157 210 -157 q 257 -162 247 -157 q 275 -176 267 -167 q 307 -192 286 -192 q 335 -179 324 -192 q 347 -149 347 -167 q 313 -112 347 -119 q 279 -108 288 -108 l 268 -108 q 236 -82 236 -108 q 246 -55 236 -78 q 269 -6 256 -32 q 135 33 196 1 q 40 111 75 64 q 4 213 4 158 q 28 273 4 249 q 82 297 51 297 q 125 283 110 297 q 143 246 140 269 q 207 151 151 183 q 338 119 263 119 q 449 144 397 119 q 530 208 500 168 q 560 293 560 249 q 523 363 560 333 q 383 424 486 392 q 206 510 274 458 q 139 658 139 563 q 188 800 139 736 q 326 901 236 864 q 531 939 415 939 z "},"ş":{"ha":590,"x_min":3,"x_max":589,"o":"m 497 422 q 458 436 472 422 q 443 472 443 450 q 451 497 443 482 q 460 524 460 513 q 363 568 460 568 q 266 547 299 568 q 233 493 233 525 q 258 447 233 465 q 354 404 282 429 q 483 338 444 374 q 522 238 522 301 q 489 126 522 179 q 399 38 456 74 q 275 -6 342 3 l 268 -46 q 310 -56 288 -49 q 372 -137 372 -79 q 324 -240 372 -200 q 213 -281 276 -281 q 133 -263 163 -281 q 103 -214 103 -246 q 119 -176 103 -192 q 156 -160 135 -160 q 182 -165 172 -160 q 200 -179 192 -169 q 232 -194 211 -194 q 260 -182 249 -194 q 272 -151 272 -169 q 238 -115 272 -122 q 204 -111 213 -111 l 193 -111 q 161 -85 161 -111 q 171 -56 161 -79 q 196 -6 181 -32 q 94 29 138 1 q 26 94 50 57 q 3 171 3 132 q 28 226 3 201 q 83 250 53 250 q 119 238 107 250 q 135 204 132 225 q 170 136 139 161 q 256 111 201 111 q 349 140 311 111 q 388 206 388 169 q 364 252 388 235 q 276 290 340 269 q 143 363 185 321 q 101 467 101 404 q 140 579 101 529 q 243 657 179 629 q 382 685 307 685 q 537 648 485 685 q 589 542 589 611 q 563 455 589 488 q 497 422 536 422 z "},"Š":{"ha":758,"x_min":4,"x_max":792,"o":"m 315 -8 q 160 22 232 -8 q 47 102 89 51 q 4 213 4 153 q 28 273 4 249 q 82 297 51 297 q 125 283 110 297 q 143 246 140 269 q 207 151 151 183 q 338 119 263 119 q 449 144 397 119 q 530 208 500 168 q 560 293 560 249 q 523 363 560 333 q 383 424 486 392 q 206 510 274 458 q 139 658 139 563 q 188 800 139 736 q 326 901 236 864 q 531 939 415 939 q 722 893 651 939 q 792 775 792 847 q 767 694 792 725 q 704 663 743 663 q 667 676 682 663 q 651 707 651 689 q 653 720 651 713 q 656 736 656 728 q 615 789 656 767 q 500 811 574 811 q 338 773 397 811 q 278 676 278 735 q 322 608 278 636 q 469 543 365 579 q 640 452 582 506 q 699 322 699 399 q 644 157 699 233 q 500 36 589 81 q 315 -8 411 -8 z "},"š":{"ha":590,"x_min":3,"x_max":642,"o":"m 233 -8 q 113 19 165 -8 q 31 88 60 46 q 3 171 3 129 q 28 226 3 201 q 83 250 53 250 q 119 238 107 250 q 135 204 132 225 q 170 136 139 161 q 256 111 201 111 q 349 140 311 111 q 388 206 388 169 q 364 252 388 235 q 276 290 340 269 q 143 363 185 321 q 101 467 101 404 q 140 579 101 529 q 243 657 179 629 q 382 685 307 685 q 537 648 485 685 q 589 542 589 611 q 563 455 589 488 q 497 422 536 422 q 458 436 472 422 q 443 472 443 450 q 451 497 443 482 q 460 524 460 513 q 363 568 460 568 q 266 547 299 568 q 233 493 233 525 q 258 447 233 465 q 354 404 282 429 q 483 338 444 374 q 522 238 522 301 q 483 117 522 174 q 376 26 443 60 q 233 -8 310 -8 z "},"Ť":{"ha":719,"x_min":115,"x_max":829,"o":"m 303 -8 q 258 13 274 -8 q 247 60 242 35 l 403 800 l 169 800 q 131 815 146 800 q 115 853 115 829 q 141 906 115 882 q 199 931 167 931 l 774 931 q 814 916 799 931 q 829 878 829 901 q 803 825 829 850 q 744 800 776 800 l 540 800 l 385 60 q 354 11 379 31 q 303 -8 329 -8 z "},"ť":{"ha":500,"x_min":42,"x_max":643,"o":"m 160 -10 q 117 10 133 -10 q 107 56 101 29 l 213 557 l 96 557 q 56 572 71 557 q 42 610 42 588 q 68 661 42 639 q 128 683 94 683 l 242 683 l 274 835 q 303 882 279 861 q 354 903 328 903 q 394 887 379 903 q 408 849 408 871 q 407 835 408 839 l 375 683 l 493 683 q 531 669 517 683 q 546 633 546 656 q 520 580 546 603 q 464 557 494 557 l 346 557 l 240 56 q 210 9 235 28 q 160 -10 186 -10 m 488 735 q 451 748 464 735 q 438 782 438 761 q 447 818 438 801 l 486 883 q 482 907 482 894 q 515 980 482 946 q 585 1014 547 1014 q 627 998 611 1014 q 643 958 643 982 q 642 943 643 949 q 614 878 638 921 q 560 788 593 840 q 528 749 544 763 q 488 735 511 735 z "},"Ŭ":{"ha":929,"x_min":93,"x_max":967,"o":"m 376 -8 q 165 85 238 -8 q 93 340 93 178 q 111 516 93 418 q 169 800 129 614 q 185 865 182 849 q 213 915 192 893 q 272 938 233 938 q 313 921 299 938 q 328 883 328 904 q 326 871 328 875 q 258 566 282 694 q 233 356 233 438 q 406 119 233 119 q 583 181 501 119 q 708 376 664 242 q 756 544 736 463 q 797 736 775 625 l 825 868 q 908 938 839 938 q 953 919 940 938 q 963 872 967 900 q 910 599 935 708 q 844 367 886 489 q 668 91 783 190 q 376 -8 553 -8 z "},"ŭ":{"ha":718,"x_min":58,"x_max":704,"o":"m 211 -12 q 97 26 135 -12 q 58 157 58 65 q 87 376 58 243 q 151 615 115 508 q 232 686 175 686 q 272 674 258 686 q 286 639 286 661 q 281 610 286 632 q 219 388 244 493 q 193 204 193 283 q 207 135 193 157 q 251 113 221 113 q 351 135 300 113 q 426 176 403 158 q 451 199 444 189 q 461 226 458 210 l 549 622 q 577 668 554 650 q 628 686 600 686 q 671 667 656 686 q 681 622 686 649 l 561 58 q 531 11 556 31 q 481 -8 507 -8 q 439 8 456 -8 q 424 46 422 24 l 425 68 q 334 10 392 33 q 211 -12 276 -12 z "},"Ů":{"ha":929,"x_min":93,"x_max":967,"o":"m 376 -8 q 165 85 238 -8 q 93 340 93 178 q 111 516 93 418 q 169 800 129 614 q 185 865 182 849 q 213 915 192 893 q 272 938 233 938 q 313 921 299 938 q 328 883 328 904 q 326 871 328 875 q 258 566 282 694 q 233 356 233 438 q 406 119 233 119 q 583 181 501 119 q 708 376 664 242 q 756 544 736 463 q 797 736 775 625 l 825 868 q 908 938 839 938 q 953 919 940 938 q 963 872 967 900 q 910 599 935 708 q 844 367 886 489 q 668 91 783 190 q 376 -8 553 -8 z "},"ů":{"ha":718,"x_min":58,"x_max":686,"o":"m 211 -12 q 97 26 135 -12 q 58 157 58 65 q 87 376 58 243 q 151 615 115 508 q 232 686 175 686 q 272 674 258 686 q 286 639 286 661 q 281 610 286 632 q 219 388 244 493 q 193 204 193 283 q 207 135 193 157 q 251 113 221 113 q 351 135 300 113 q 426 176 403 158 q 451 199 444 189 q 461 226 458 210 l 549 622 q 577 668 554 650 q 628 686 600 686 q 671 667 656 686 q 681 622 686 649 l 561 58 q 531 11 556 31 q 481 -8 507 -8 q 439 8 456 -8 q 424 46 422 24 l 425 68 q 334 10 392 33 q 211 -12 276 -12 z "},"Ű":{"ha":929,"x_min":93,"x_max":1008,"o":"m 376 -8 q 165 85 238 -8 q 93 340 93 178 q 111 516 93 418 q 169 800 129 614 q 185 865 182 849 q 213 915 192 893 q 272 938 233 938 q 313 921 299 938 q 328 883 328 904 q 326 871 328 875 q 258 566 282 694 q 233 356 233 438 q 406 119 233 119 q 583 181 501 119 q 708 376 664 242 q 756 544 736 463 q 797 736 775 625 l 825 868 q 908 938 839 938 q 953 919 940 938 q 963 872 967 900 q 910 599 935 708 q 844 367 886 489 q 668 91 783 190 q 376 -8 553 -8 m 453 975 q 417 990 432 975 q 403 1029 403 1006 q 432 1086 403 1064 l 613 1217 q 674 1243 647 1243 q 716 1226 700 1243 q 732 1185 732 1210 q 722 1143 732 1164 q 694 1111 713 1122 l 500 992 q 477 980 489 985 q 453 975 465 975 m 729 975 q 694 990 708 975 q 679 1029 679 1006 q 708 1086 679 1065 l 890 1217 q 950 1243 928 1243 q 992 1226 976 1243 q 1008 1185 1008 1210 q 999 1143 1008 1164 q 971 1111 989 1122 l 776 992 q 729 975 747 975 z "},"ű":{"ha":718,"x_min":58,"x_max":829,"o":"m 211 -12 q 97 26 135 -12 q 58 157 58 65 q 87 376 58 243 q 151 615 115 508 q 232 686 175 686 q 272 674 258 686 q 286 639 286 661 q 281 610 286 632 q 219 388 244 493 q 193 204 193 283 q 207 135 193 157 q 251 113 221 113 q 351 135 300 113 q 426 176 403 158 q 451 199 444 189 q 461 226 458 210 l 549 622 q 577 668 554 650 q 628 686 600 686 q 671 667 656 686 q 681 622 686 649 l 561 58 q 531 11 556 31 q 481 -8 507 -8 q 439 8 456 -8 q 424 46 422 24 l 425 68 q 334 10 392 33 q 211 -12 276 -12 z "},"Ÿ":{"ha":808,"x_min":128,"x_max":922,"o":"m 186 -8 q 146 8 161 -8 q 131 47 131 24 q 151 99 131 72 l 328 313 l 133 836 q 128 861 128 849 q 150 916 128 894 q 200 938 172 938 q 232 928 218 938 q 251 903 246 919 l 425 438 l 800 904 q 867 938 828 938 q 906 922 889 938 q 922 883 922 907 q 897 825 922 856 l 253 26 q 186 -8 225 -8 z "},"Ź":{"ha":800,"x_min":-35,"x_max":890,"o":"m 28 0 q -19 15 -4 0 q -35 56 -35 29 q -3 125 -35 93 l 672 788 l 206 788 q 166 803 182 788 q 150 844 150 819 q 178 905 150 879 q 236 931 206 931 l 829 931 q 873 914 856 931 q 890 872 890 897 q 863 811 890 838 l 183 142 l 650 142 q 691 126 675 142 q 707 88 707 111 q 681 28 707 56 q 621 0 656 0 l 28 0 m 500 976 q 462 991 476 976 q 447 1029 447 1006 q 488 1094 447 1067 l 663 1217 q 729 1244 704 1244 q 774 1227 758 1244 q 790 1182 790 1210 q 778 1144 790 1164 q 747 1113 765 1124 l 556 997 q 500 976 521 976 z "},"ź":{"ha":597,"x_min":-53,"x_max":643,"o":"m 1 -8 q -39 6 -25 -8 q -53 42 -53 19 q -29 99 -53 75 l 431 549 l 133 549 q 95 563 110 549 q 81 600 81 576 q 106 653 81 631 q 163 676 131 676 l 589 676 q 629 662 615 676 q 643 624 643 647 q 618 568 643 593 l 158 118 l 475 118 q 514 103 499 118 q 529 64 529 88 q 503 14 529 36 q 447 -8 476 -8 l 1 -8 z "},"Ż":{"ha":800,"x_min":-35,"x_max":890,"o":"m 28 0 q -19 15 -4 0 q -35 56 -35 29 q -3 125 -35 93 l 672 788 l 206 788 q 166 803 182 788 q 150 844 150 819 q 178 905 150 879 q 236 931 206 931 l 829 931 q 873 914 856 931 q 890 872 890 897 q 863 811 890 838 l 183 142 l 650 142 q 691 126 675 142 q 707 88 707 111 q 681 28 707 56 q 621 0 656 0 l 28 0 z "},"ż":{"ha":597,"x_min":-53,"x_max":643,"o":"m 1 -8 q -39 6 -25 -8 q -53 42 -53 19 q -29 99 -53 75 l 431 549 l 133 549 q 95 563 110 549 q 81 600 81 576 q 106 653 81 631 q 163 676 131 676 l 589 676 q 629 662 615 676 q 643 624 643 647 q 618 568 643 593 l 158 118 l 475 118 q 514 103 499 118 q 529 64 529 88 q 503 14 529 36 q 447 -8 476 -8 l 1 -8 z "},"Ž":{"ha":800,"x_min":-35,"x_max":890,"o":"m 28 0 q -19 15 -4 0 q -35 56 -35 29 q -3 125 -35 93 l 672 788 l 206 788 q 166 803 182 788 q 150 844 150 819 q 178 905 150 879 q 236 931 206 931 l 829 931 q 873 914 856 931 q 890 872 890 897 q 863 811 890 838 l 183 142 l 650 142 q 691 126 675 142 q 707 88 707 111 q 681 28 707 56 q 621 0 656 0 l 28 0 z "},"ž":{"ha":597,"x_min":-53,"x_max":644,"o":"m 1 -8 q -39 6 -25 -8 q -53 42 -53 19 q -29 99 -53 75 l 431 549 l 133 549 q 95 563 110 549 q 81 600 81 576 q 106 653 81 631 q 163 676 131 676 l 589 676 q 629 662 615 676 q 643 624 643 647 q 618 568 643 593 l 158 118 l 475 118 q 514 103 499 118 q 529 64 529 88 q 503 14 529 36 q 447 -8 476 -8 l 1 -8 z "},"Ţ":{"ha":719,"x_min":115,"x_max":829,"o":"m 303 -8 q 258 13 274 -8 q 247 60 242 35 l 403 800 l 169 800 q 131 815 146 800 q 115 853 115 829 q 141 906 115 882 q 199 931 167 931 l 774 931 q 814 916 799 931 q 829 878 829 901 q 803 825 829 850 q 744 800 776 800 l 540 800 l 385 60 q 354 11 379 31 q 303 -8 329 -8 z "},"ˆ":{"ha":428,"x_min":100,"x_max":531,"o":"m 147 750 q 113 765 125 750 q 100 801 100 779 q 136 865 100 839 l 333 1004 q 379 1021 356 1021 q 403 1014 390 1021 q 425 996 417 1007 l 519 863 q 531 825 531 846 q 507 774 531 797 q 457 750 483 750 q 417 767 431 750 l 340 858 l 189 763 q 178 756 188 761 q 147 750 168 750 z "},"ˇ":{"ha":426,"x_min":129,"x_max":560,"o":"m 288 750 q 242 775 261 750 l 142 907 q 129 942 129 924 q 154 997 129 972 q 207 1021 179 1021 q 231 1017 222 1021 q 249 1003 240 1013 l 326 913 l 463 1006 q 485 1018 476 1015 q 508 1021 494 1021 q 545 1007 531 1021 q 560 971 560 993 q 551 935 560 953 q 524 906 542 918 l 333 767 q 288 750 311 750 z "},"˘":{"ha":435,"x_min":126,"x_max":565,"o":"m 313 760 q 176 808 225 760 q 126 924 126 856 q 146 974 126 956 q 192 993 165 993 q 221 983 211 993 q 238 950 231 972 q 278 899 249 915 q 340 882 307 882 q 458 953 417 882 q 488 989 474 978 q 525 1000 503 1000 q 554 988 543 1000 q 565 957 565 975 q 531 875 565 922 q 438 794 496 828 q 313 760 379 760 z "},"˙":{"ha":193,"x_min":110,"x_max":310,"o":"m 185 782 q 131 800 151 782 q 110 849 110 818 q 149 928 110 892 q 235 964 188 964 q 288 944 267 964 q 310 896 310 925 q 272 816 310 850 q 185 782 233 782 z "},"˚":{"ha":353,"x_min":113,"x_max":476,"o":"m 243 731 q 149 765 186 731 q 113 851 113 799 q 147 949 113 903 q 236 1025 182 996 q 346 1054 290 1054 q 439 1019 401 1054 q 476 933 476 985 q 442 835 476 882 q 353 759 407 788 q 243 731 299 731 m 279 847 q 340 865 314 847 q 365 906 365 883 q 351 929 365 921 q 310 938 336 938 q 249 919 275 938 q 224 879 224 901 q 238 856 224 864 q 279 847 253 847 z "},"˛":{"ha":271,"x_min":-104,"x_max":160,"o":"m 10 -272 q -74 -243 -43 -272 q -104 -167 -104 -214 q -52 -42 -104 -99 q 56 47 0 14 q 90 65 78 60 q 115 69 103 69 q 141 60 131 69 q 151 38 151 51 q 136 3 151 21 q 93 -32 121 -15 q 28 -81 56 -53 q 1 -137 1 -110 q 10 -163 1 -154 q 33 -172 19 -172 q 78 -157 56 -172 q 119 -137 106 -137 q 149 -150 138 -137 q 160 -183 160 -162 q 138 -222 160 -201 q 82 -258 117 -243 q 10 -272 47 -272 z "},"˜":{"ha":515,"x_min":101,"x_max":647,"o":"m 136 771 q 112 781 122 771 q 101 806 101 792 q 136 885 101 836 q 223 967 176 940 q 313 993 269 993 q 370 978 349 993 q 414 932 392 964 q 449 885 438 897 q 476 874 461 874 q 514 898 493 874 q 554 965 535 922 q 611 1004 571 1004 q 637 994 626 1004 q 647 968 647 985 q 600 871 647 933 q 435 763 517 763 q 332 826 379 763 q 314 852 326 835 q 292 876 301 869 q 269 882 282 882 q 186 803 228 882 q 136 771 169 771 z "},"˝":{"ha":526,"x_min":96,"x_max":658,"o":"m 149 736 q 110 750 125 736 q 96 788 96 764 q 103 818 96 803 q 122 844 111 833 l 276 999 q 357 1036 314 1036 q 398 1020 383 1036 q 413 978 413 1004 q 403 940 413 956 q 375 908 393 924 l 206 764 q 193 754 203 763 q 172 741 183 746 q 149 736 161 736 m 379 736 q 345 750 358 736 q 332 785 332 764 q 363 846 332 818 l 525 992 q 596 1026 565 1026 q 642 1010 625 1026 q 658 965 658 993 q 617 896 658 928 l 438 758 q 408 742 424 747 q 379 736 392 736 z "},"–":{"ha":744,"x_min":54,"x_max":690,"o":"m 108 271 q 69 286 85 271 q 54 325 54 301 q 80 380 54 356 q 138 404 106 404 l 638 404 q 676 390 661 404 q 690 353 690 375 q 665 294 690 318 q 608 271 639 271 l 108 271 z "},"—":{"ha":1119,"x_min":68,"x_max":1051,"o":"m 122 279 q 83 294 97 279 q 68 332 68 308 q 94 388 68 363 q 151 413 121 413 l 999 413 q 1037 398 1022 413 q 1051 361 1051 383 q 1027 303 1051 328 q 969 279 1003 279 l 122 279 z "},"‘":{"ha":249,"x_min":158,"x_max":365,"o":"m 218 760 q 175 776 192 760 q 158 817 158 793 q 172 863 158 839 l 240 982 q 275 1024 257 1011 q 315 1036 293 1036 q 351 1023 338 1036 q 365 990 365 1010 q 354 953 365 972 l 317 890 q 321 860 321 872 q 288 792 321 824 q 218 760 254 760 z "},"’":{"ha":249,"x_min":121,"x_max":328,"o":"m 171 760 q 135 773 149 760 q 121 806 121 786 q 132 843 121 824 l 169 906 q 165 936 165 925 q 199 1004 165 972 q 268 1036 232 1036 q 311 1019 294 1036 q 328 979 328 1003 q 314 933 328 957 l 246 814 q 211 772 229 785 q 171 760 193 760 z "},"‚":{"ha":249,"x_min":-71,"x_max":136,"o":"m -21 -142 q -57 -128 -43 -142 q -71 -96 -71 -115 q -60 -58 -71 -78 l -22 4 q -26 35 -26 24 q 7 103 -26 71 q 76 135 40 135 q 119 118 103 135 q 136 78 136 101 q 122 32 136 56 l 54 -87 q 19 -129 38 -117 q -21 -142 1 -142 z "},"“":{"ha":488,"x_min":158,"x_max":604,"o":"m 218 760 q 175 776 192 760 q 158 817 158 793 q 172 863 158 839 l 240 982 q 275 1024 257 1011 q 315 1036 293 1036 q 351 1023 338 1036 q 365 990 365 1010 q 354 953 365 972 l 317 890 q 321 860 321 872 q 288 792 321 824 q 218 760 254 760 m 457 760 q 414 776 431 760 q 397 817 397 793 q 411 863 397 839 l 479 982 q 514 1024 496 1011 q 554 1036 532 1036 q 590 1023 576 1036 q 604 990 604 1010 q 593 953 604 972 l 556 890 q 560 860 560 872 q 526 792 560 824 q 457 760 493 760 z "},"”":{"ha":457,"x_min":121,"x_max":536,"o":"m 171 760 q 135 773 149 760 q 121 806 121 786 q 132 843 121 824 l 169 906 q 165 936 165 925 q 199 1004 165 972 q 268 1036 232 1036 q 311 1019 294 1036 q 328 979 328 1003 q 314 933 328 957 l 246 814 q 211 772 229 785 q 171 760 193 760 m 379 760 q 343 773 357 760 q 329 806 329 786 q 340 843 329 824 l 378 906 q 374 936 374 925 q 407 1004 374 972 q 476 1036 440 1036 q 519 1019 503 1036 q 536 979 536 1003 q 522 933 536 957 l 454 814 q 419 772 438 785 q 379 760 401 760 z "},"„":{"ha":458,"x_min":-65,"x_max":350,"o":"m -15 -121 q -51 -108 -37 -121 q -65 -75 -65 -94 q -54 -37 -65 -57 l -17 25 q -21 56 -21 44 q 13 124 -21 92 q 82 156 46 156 q 125 139 108 156 q 142 99 142 122 q 128 53 142 76 l 60 -67 q 25 -108 43 -96 q -15 -121 7 -121 m 193 -121 q 157 -108 171 -121 q 143 -75 143 -94 q 154 -37 143 -57 l 192 25 q 188 56 188 44 q 221 124 188 92 q 290 156 254 156 q 333 139 317 156 q 350 99 350 122 q 336 53 350 76 l 268 -67 q 233 -108 251 -96 q 193 -121 215 -121 z "},"•":{"ha":465,"x_min":71,"x_max":365,"o":"m 188 199 q 103 231 136 199 q 71 314 71 264 q 74 343 71 335 q 138 444 86 401 q 249 486 190 486 q 333 454 300 486 q 365 374 365 422 q 361 342 365 358 q 298 240 349 282 q 188 199 247 199 z "},"…":{"ha":1053,"x_min":39,"x_max":844,"o":"m 97 -8 q 55 8 71 -8 q 39 51 39 25 q 42 72 39 58 q 78 133 49 106 q 142 160 108 160 q 183 143 167 160 q 199 100 199 126 q 197 83 199 90 q 159 18 189 44 q 97 -8 129 -8 m 419 -8 q 377 8 393 -8 q 361 51 361 25 q 364 72 361 58 q 401 133 371 106 q 464 160 431 160 q 505 143 489 160 q 521 100 521 126 q 519 83 521 90 q 481 18 511 44 q 419 -8 451 -8 m 743 -8 q 701 8 717 -8 q 685 51 685 25 q 688 72 685 58 q 725 133 694 106 q 788 160 756 160 q 828 143 813 160 q 844 101 844 126 q 843 83 844 89 q 805 18 835 44 q 743 -8 775 -8 z "},"‹":{"ha":447,"x_min":53,"x_max":457,"o":"m 276 96 q 236 113 250 96 l 65 297 q 53 333 53 311 q 63 371 53 353 q 88 399 74 389 l 353 592 q 403 611 378 611 q 442 596 426 611 q 457 557 457 581 q 422 493 457 519 l 207 338 l 332 203 q 349 167 349 186 q 327 117 349 138 q 276 96 306 96 z "},"›":{"ha":442,"x_min":7,"x_max":392,"o":"m 61 97 q 23 113 39 97 q 7 151 7 129 q 17 188 7 171 q 42 214 26 204 l 233 357 l 96 503 q 79 539 79 519 q 101 590 79 569 q 151 611 122 611 q 172 608 164 611 q 190 594 181 604 l 371 403 q 392 358 392 382 q 382 326 392 343 q 356 297 372 308 l 117 118 q 90 102 101 107 q 61 97 78 97 z "},"⁄":{"ha":150,"x_min":-281,"x_max":489,"o":"m -233 -10 q -267 3 -254 -10 q -281 35 -281 17 q -279 47 -281 43 q -267 75 -278 58 l 386 929 q 442 957 407 957 q 476 944 463 957 q 489 913 489 931 q 468 863 489 892 l -179 19 q -203 -2 -189 6 q -233 -10 -218 -10 z "},"™":{"ha":826,"x_min":110,"x_max":899,"o":"m 253 583 q 217 597 231 583 q 204 631 204 610 q 206 643 204 639 l 242 813 l 157 813 q 123 826 136 813 q 110 860 110 840 q 132 909 110 888 q 182 931 154 931 l 463 931 q 498 918 485 931 q 511 886 511 906 q 489 835 511 857 q 438 813 467 813 l 361 813 l 325 643 q 298 601 319 618 q 253 583 276 583 m 822 582 q 774 622 779 582 l 761 711 l 699 618 q 639 583 675 583 q 589 624 594 583 l 576 715 l 515 621 q 489 595 506 604 q 454 586 472 586 q 420 599 433 586 q 407 632 407 613 q 417 665 407 650 l 565 896 q 628 931 588 931 q 659 921 646 931 q 675 893 672 911 l 689 799 l 754 896 q 815 931 778 931 q 863 892 857 931 l 894 667 q 876 608 899 633 q 822 582 854 582 z "},"−":{"ha":624,"x_min":69,"x_max":558,"o":"m 124 282 q 85 297 100 282 q 69 333 69 311 q 94 390 69 365 q 151 414 119 414 l 506 414 q 543 399 528 414 q 558 363 558 385 q 533 306 558 331 q 478 282 508 282 l 124 282 z "},"̦":{"ha":0,"x_min":-303,"x_max":-97,"o":"m -253 -319 q -290 -306 -276 -319 q -303 -274 -303 -293 q -292 -236 -303 -256 l -254 -174 q -258 -150 -258 -164 q -242 -98 -258 -122 q -203 -58 -226 -74 q -157 -43 -179 -43 q -112 -60 -128 -43 q -97 -101 -97 -76 q -119 -167 -97 -125 q -178 -265 -142 -210 q -211 -306 -194 -292 q -253 -319 -228 -319 z "},"Ḿ":{"ha":1118,"x_min":-25,"x_max":1018,"o":"m 29 -8 q -11 8 3 -8 q -25 49 -25 25 q -18 82 -25 64 l 328 883 q 360 923 338 908 q 407 938 382 938 q 445 925 431 938 q 461 890 460 913 l 526 275 l 879 893 q 958 938 906 938 q 995 923 982 938 q 1008 883 1008 908 l 1018 74 q 999 14 1018 36 q 944 -8 979 -8 q 899 11 918 -8 q 879 60 879 31 l 874 625 l 538 40 q 461 -8 510 -8 q 424 6 440 -8 q 407 43 408 21 l 346 604 l 107 47 q 76 7 96 22 q 29 -8 56 -8 m 654 976 q 616 991 631 976 q 601 1029 601 1006 q 642 1094 601 1067 l 817 1217 q 883 1244 858 1244 q 928 1227 913 1244 q 944 1182 944 1210 q 932 1144 944 1164 q 901 1113 919 1124 l 710 997 q 654 976 675 976 z "},"Ẃ":{"ha":1176,"x_min":117,"x_max":1289,"o":"m 249 -8 q 209 6 221 -8 q 194 46 197 19 l 121 839 q 141 909 117 881 q 203 938 165 938 q 242 925 228 938 q 260 889 257 913 l 314 290 l 635 886 q 713 938 663 938 q 767 889 763 938 l 804 289 l 1157 904 q 1235 953 1186 953 q 1274 940 1258 953 q 1289 906 1289 926 q 1271 847 1289 878 l 806 36 q 776 3 794 15 q 735 -8 757 -8 q 678 42 682 -8 l 640 628 l 325 39 q 292 1 310 11 q 249 -8 274 -8 m 689 976 q 651 991 665 976 q 636 1029 636 1006 q 676 1094 636 1067 l 851 1217 q 918 1244 893 1244 q 963 1227 947 1244 q 979 1182 979 1210 q 967 1144 979 1164 q 936 1113 954 1124 l 744 997 q 689 976 710 976 z "},"Ŵ":{"ha":1176,"x_min":117,"x_max":1289,"o":"m 249 -8 q 209 6 221 -8 q 194 46 197 19 l 121 839 q 141 909 117 881 q 203 938 165 938 q 242 925 228 938 q 260 889 257 913 l 314 290 l 635 886 q 713 938 663 938 q 767 889 763 938 l 804 289 l 1157 904 q 1235 953 1186 953 q 1274 940 1258 953 q 1289 906 1289 926 q 1271 847 1289 878 l 806 36 q 776 3 794 15 q 735 -8 757 -8 q 678 42 682 -8 l 640 628 l 325 39 q 292 1 310 11 q 249 -8 274 -8 z "},"Ẅ":{"ha":1176,"x_min":117,"x_max":1289,"o":"m 249 -8 q 209 6 221 -8 q 194 46 197 19 l 121 839 q 141 909 117 881 q 203 938 165 938 q 242 925 228 938 q 260 889 257 913 l 314 290 l 635 886 q 713 938 663 938 q 767 889 763 938 l 804 289 l 1157 904 q 1235 953 1186 953 q 1274 940 1258 953 q 1289 906 1289 926 q 1271 847 1289 878 l 806 36 q 776 3 794 15 q 735 -8 757 -8 q 678 42 682 -8 l 640 628 l 325 39 q 292 1 310 11 q 249 -8 274 -8 z "},"Ẁ":{"ha":1176,"x_min":117,"x_max":1289,"o":"m 249 -8 q 209 6 221 -8 q 194 46 197 19 l 121 839 q 141 909 117 881 q 203 938 165 938 q 242 925 228 938 q 260 889 257 913 l 314 290 l 635 886 q 713 938 663 938 q 767 889 763 938 l 804 289 l 1157 904 q 1235 953 1186 953 q 1274 940 1258 953 q 1289 906 1289 926 q 1271 847 1289 878 l 806 36 q 776 3 794 15 q 735 -8 757 -8 q 678 42 682 -8 l 640 628 l 325 39 q 292 1 310 11 q 249 -8 274 -8 m 800 976 q 750 994 779 976 l 569 1108 q 530 1139 543 1125 q 517 1176 517 1153 q 538 1224 517 1204 q 586 1243 560 1243 q 608 1239 599 1243 q 626 1228 617 1235 q 640 1218 636 1221 l 835 1078 q 857 1035 857 1061 q 839 995 857 1014 q 800 976 821 976 z "},"Ŷ":{"ha":808,"x_min":128,"x_max":922,"o":"m 186 -8 q 146 8 161 -8 q 131 47 131 24 q 151 99 131 72 l 328 313 l 133 836 q 128 861 128 849 q 150 916 128 894 q 200 938 172 938 q 232 928 218 938 q 251 903 246 919 l 425 438 l 800 904 q 867 938 828 938 q 906 922 889 938 q 922 883 922 907 q 897 825 922 856 l 253 26 q 186 -8 225 -8 z "},"Ỳ":{"ha":808,"x_min":128,"x_max":922,"o":"m 186 -8 q 146 8 161 -8 q 131 47 131 24 q 151 99 131 72 l 328 313 l 133 836 q 128 861 128 849 q 150 916 128 894 q 200 938 172 938 q 232 928 218 938 q 251 903 246 919 l 425 438 l 800 904 q 867 938 828 938 q 906 922 889 938 q 922 883 922 907 q 897 825 922 856 l 253 26 q 186 -8 225 -8 m 615 976 q 565 994 594 976 l 385 1108 q 345 1139 358 1125 q 332 1176 332 1153 q 353 1224 332 1204 q 401 1243 375 1243 q 423 1239 414 1243 q 442 1228 432 1235 q 456 1218 451 1221 l 650 1078 q 672 1035 672 1061 q 654 995 672 1014 q 615 976 636 976 z "},"ı":{"ha":336,"x_min":36,"x_max":299,"o":"m 92 -8 q 52 7 68 -8 q 36 46 36 22 q 38 60 36 54 l 161 613 q 192 660 167 640 q 244 681 217 681 q 284 666 269 681 q 299 628 299 651 q 297 613 299 618 l 174 60 q 144 12 168 32 q 92 -8 119 -8 z "},"ȷ":{"ha":389,"x_min":-194,"x_max":346,"o":"m -15 -236 q -106 -207 -65 -236 q -171 -129 -147 -178 q -194 -26 -194 -81 q -171 31 -194 8 q -115 54 -147 54 q -61 7 -65 54 q -40 -76 -57 -42 q 8 -110 -22 -110 q 53 -79 36 -110 q 83 14 71 -49 l 206 619 q 235 668 213 649 q 286 688 257 688 q 328 666 311 688 q 340 621 346 644 l 217 21 q 131 -169 192 -101 q -15 -236 71 -236 z "},"ḿ":{"ha":1106,"x_min":36,"x_max":1051,"o":"m 90 -8 q 51 6 67 -8 q 36 43 36 21 q 38 57 36 53 l 157 618 q 187 665 163 644 q 238 685 211 685 q 281 665 265 685 q 290 618 296 644 l 269 521 q 533 685 392 685 q 626 651 590 685 q 665 551 661 618 q 910 685 782 685 q 1015 644 978 685 q 1051 521 1051 603 q 1040 421 1051 471 l 963 57 q 933 11 957 31 q 882 -8 908 -8 q 843 6 858 -8 q 828 43 828 21 q 829 57 828 53 l 908 429 q 915 489 915 458 q 902 540 915 524 q 860 557 889 557 q 772 525 819 557 q 688 438 725 493 q 636 315 651 382 l 582 57 q 552 10 575 29 q 501 -8 529 -8 q 463 6 478 -8 q 447 43 447 21 q 449 57 447 53 l 528 429 q 536 494 536 469 q 524 542 536 526 q 486 557 513 557 q 392 522 442 557 q 299 436 342 486 q 213 261 233 354 l 171 57 q 142 11 165 31 q 90 -8 118 -8 z "},"ţ":{"ha":471,"x_min":10,"x_max":546,"o":"m 160 -10 q 117 10 133 -10 q 107 56 101 29 l 213 557 l 96 557 q 56 572 71 557 q 42 610 42 588 q 68 661 42 639 q 128 683 94 683 l 242 683 l 274 835 q 303 882 279 861 q 354 903 328 903 q 394 887 379 903 q 408 849 408 871 q 407 835 408 839 l 375 683 l 493 683 q 531 669 517 683 q 546 633 546 656 q 520 580 546 603 q 464 557 494 557 l 346 557 l 240 56 q 210 9 235 28 q 160 -10 186 -10 m 60 -319 q 23 -306 36 -319 q 10 -274 10 -293 q 21 -236 10 -256 l 58 -174 q 54 -150 54 -164 q 70 -98 54 -122 q 110 -58 86 -74 q 156 -43 133 -43 q 200 -60 185 -43 q 215 -101 215 -76 q 193 -167 215 -125 q 135 -265 171 -210 q 101 -306 118 -292 q 60 -319 85 -319 z "},"ẃ":{"ha":829,"x_min":75,"x_max":868,"o":"m 131 -11 q 75 46 75 -11 l 76 615 q 101 666 76 643 q 157 689 126 689 q 197 674 183 689 q 210 632 210 658 l 206 279 l 407 638 q 441 674 419 660 q 485 688 463 688 q 540 638 539 688 l 549 272 l 738 635 q 770 673 749 658 q 814 688 792 688 q 853 673 838 688 q 868 636 868 658 q 857 597 868 619 l 560 42 q 486 -11 531 -11 q 447 5 461 -11 q 431 51 432 21 l 415 407 l 204 40 q 131 -11 174 -11 z "},"ŵ":{"ha":829,"x_min":75,"x_max":868,"o":"m 131 -11 q 75 46 75 -11 l 76 615 q 101 666 76 643 q 157 689 126 689 q 197 674 183 689 q 210 632 210 658 l 206 279 l 407 638 q 441 674 419 660 q 485 688 463 688 q 540 638 539 688 l 549 272 l 738 635 q 770 673 749 658 q 814 688 792 688 q 853 673 838 688 q 868 636 868 658 q 857 597 868 619 l 560 42 q 486 -11 531 -11 q 447 5 461 -11 q 431 51 432 21 l 415 407 l 204 40 q 131 -11 174 -11 z "},"ẅ":{"ha":829,"x_min":75,"x_max":868,"o":"m 131 -11 q 75 46 75 -11 l 76 615 q 101 666 76 643 q 157 689 126 689 q 197 674 183 689 q 210 632 210 658 l 206 279 l 407 638 q 441 674 419 660 q 485 688 463 688 q 540 638 539 688 l 549 272 l 738 635 q 770 673 749 658 q 814 688 792 688 q 853 673 838 688 q 868 636 868 658 q 857 597 868 619 l 560 42 q 486 -11 531 -11 q 447 5 461 -11 q 431 51 432 21 l 415 407 l 204 40 q 131 -11 174 -11 z "},"ẁ":{"ha":829,"x_min":75,"x_max":868,"o":"m 131 -11 q 75 46 75 -11 l 76 615 q 101 666 76 643 q 157 689 126 689 q 197 674 183 689 q 210 632 210 658 l 206 279 l 407 638 q 441 674 419 660 q 485 688 463 688 q 540 638 539 688 l 549 272 l 738 635 q 770 673 749 658 q 814 688 792 688 q 853 673 838 688 q 868 636 868 658 q 857 597 868 619 l 560 42 q 486 -11 531 -11 q 447 5 461 -11 q 431 51 432 21 l 415 407 l 204 40 q 131 -11 174 -11 z "},"ŷ":{"ha":638,"x_min":11,"x_max":692,"o":"m 64 -257 q 26 -242 42 -257 q 11 -204 11 -228 q 16 -178 11 -189 q 33 -147 21 -167 l 199 100 l 68 560 q 58 606 58 594 q 85 662 58 638 q 142 686 111 686 q 175 674 161 686 q 193 644 189 661 l 304 257 l 564 644 q 597 676 578 665 q 638 688 617 688 q 676 672 661 688 q 692 633 692 657 q 678 592 692 613 l 136 -214 q 105 -244 124 -232 q 64 -257 86 -257 z "},"ỳ":{"ha":638,"x_min":11,"x_max":692,"o":"m 64 -257 q 26 -242 42 -257 q 11 -204 11 -228 q 16 -178 11 -189 q 33 -147 21 -167 l 199 100 l 68 560 q 58 606 58 594 q 85 662 58 638 q 142 686 111 686 q 175 674 161 686 q 193 644 189 661 l 304 257 l 564 644 q 597 676 578 665 q 638 688 617 688 q 676 672 661 688 q 692 633 692 657 q 678 592 692 613 l 136 -214 q 105 -244 124 -232 q 64 -257 86 -257 z "},"⁴":{"ha":507,"x_min":153,"x_max":549,"o":"m 381 550 q 344 569 358 550 q 335 606 331 589 l 351 669 l 200 669 q 165 681 178 669 q 153 714 153 692 q 172 760 153 738 l 447 1078 q 470 1098 458 1092 q 500 1104 482 1104 q 536 1087 524 1104 q 544 1049 549 1069 l 486 776 q 504 769 501 772 q 522 738 522 761 q 511 699 522 718 q 485 674 500 681 q 463 667 471 667 l 449 606 q 422 567 443 583 q 381 550 401 550 m 393 850 l 319 781 l 374 779 l 393 850 z "},"­":{"ha":568,"x_min":63,"x_max":508,"o":"m 115 282 q 78 297 93 282 q 63 335 63 313 q 88 388 63 364 q 143 413 114 413 l 456 413 q 494 397 479 413 q 508 360 508 382 q 483 306 508 331 q 428 282 457 282 l 115 282 z "},"«":{"ha":769,"x_min":53,"x_max":779,"o":"m 276 96 q 236 113 250 96 l 65 297 q 53 333 53 311 q 63 371 53 353 q 88 399 74 389 l 353 592 q 403 611 378 611 q 442 596 426 611 q 457 557 457 581 q 422 493 457 519 l 207 338 l 332 203 q 349 167 349 186 q 327 117 349 138 q 276 96 306 96 m 599 96 q 558 113 572 96 l 388 297 q 375 333 375 311 q 385 371 375 353 q 410 399 396 389 l 675 592 q 725 611 700 611 q 764 596 749 611 q 779 557 779 581 q 744 493 779 519 l 529 338 l 654 203 q 671 167 671 186 q 649 117 671 138 q 599 96 628 96 z "},"»":{"ha":735,"x_min":7,"x_max":685,"o":"m 61 97 q 23 113 39 97 q 7 151 7 129 q 17 188 7 171 q 42 214 26 204 l 233 357 l 96 503 q 79 539 79 519 q 101 590 79 569 q 151 611 122 611 q 172 608 164 611 q 190 594 181 604 l 371 403 q 392 358 392 382 q 382 326 392 343 q 356 297 372 308 l 117 118 q 90 102 101 107 q 61 97 78 97 m 354 97 q 316 113 332 97 q 300 151 300 129 q 310 188 300 171 q 335 214 319 204 l 526 357 l 389 503 q 372 539 372 519 q 394 590 372 569 q 444 611 415 611 q 465 608 457 611 q 483 594 474 604 l 664 403 q 685 358 685 382 q 675 326 685 343 q 649 297 665 308 l 410 118 q 383 102 394 107 q 354 97 371 97 z "}," ":{"ha":494,"x_min":0,"x_max":0,"o":""},"€":{"ha":792,"x_min":15,"x_max":853,"o":"m 803 879 q 841 847 829 861 q 853 815 853 833 q 828 758 853 782 q 774 733 803 733 q 750 738 760 733 q 729 753 740 743 q 606 796 683 796 q 472 750 539 796 q 351 629 406 704 l 549 629 q 588 616 574 629 q 603 582 603 603 q 577 526 603 550 q 519 503 551 503 l 279 503 q 254 431 264 463 l 506 429 q 546 416 531 429 q 561 382 561 403 q 535 327 561 351 q 476 303 510 303 l 240 304 q 278 201 246 242 q 356 141 311 160 q 443 122 401 122 q 554 143 483 122 q 586 153 565 146 q 615 160 607 160 q 653 145 639 160 q 667 110 667 131 q 653 65 667 85 q 614 33 639 44 q 422 -8 515 -8 q 260 30 332 -8 q 147 134 188 68 q 106 279 106 200 l 106 304 l 69 304 q 31 319 46 304 q 15 354 15 333 q 41 406 15 382 q 97 431 67 431 l 126 431 q 151 503 139 471 l 111 503 q 72 517 88 503 q 57 553 57 532 q 83 605 57 581 q 140 629 108 629 l 214 629 q 407 843 293 760 q 636 926 521 926 q 803 879 733 926 z "},"∕":{"ha":547,"x_min":-67,"x_max":629,"o":"m -22 -275 q -55 -263 -43 -275 q -67 -233 -67 -251 q -65 -221 -67 -225 q -60 -205 -62 -210 q -54 -194 -57 -200 l 533 1013 q 555 1032 539 1025 q 586 1039 571 1039 q 617 1027 606 1039 q 629 999 629 1015 q 621 965 629 978 q 611 949 613 951 l 32 -244 q 9 -267 25 -258 q -22 -275 -7 -275 z "},"µ":{"ha":722,"x_min":11,"x_max":690,"o":"m 632 686 q 673 672 656 686 q 685 636 690 658 l 564 58 q 533 12 558 32 q 482 -8 508 -8 q 440 6 457 -8 q 422 42 422 21 q 428 75 422 53 q 344 12 393 35 q 244 -11 294 -11 q 192 0 218 -11 q 147 33 165 11 q 144 -160 144 -50 q 123 -212 144 -189 q 65 -236 101 -236 q 26 -220 42 -236 q 11 -175 11 -204 q 26 -44 11 -149 q 44 90 42 64 q 79 342 64 258 q 153 615 104 486 q 186 672 167 657 q 235 686 206 686 q 275 674 261 686 q 289 640 289 661 q 276 582 289 625 q 261 529 264 539 q 218 379 231 429 q 198 276 207 329 q 189 189 189 222 q 207 130 189 147 q 271 113 225 113 q 365 139 310 113 q 442 186 421 165 q 463 226 457 204 l 554 622 q 583 668 560 650 q 632 686 607 686 z "},"̈":{"ha":0,"x_min":-315,"x_max":117,"o":"m -242 785 q -295 803 -275 785 q -315 850 -315 821 q -279 926 -315 892 q -197 960 -243 960 q -146 940 -167 960 q -125 892 -125 921 q -161 817 -125 850 q -242 785 -197 785 m -1 785 q -53 803 -33 785 q -72 850 -72 821 q -37 926 -72 892 q 44 960 -1 960 q 96 940 75 960 q 117 892 117 921 q 81 817 117 850 q -1 785 44 785 z "},"̇":{"ha":0,"x_min":-86,"x_max":114,"o":"m -11 774 q -65 792 -44 774 q -86 840 -86 810 q -47 919 -86 883 q 39 956 -8 956 q 92 936 71 956 q 114 888 114 917 q 76 808 114 842 q -11 774 38 774 z "},"̀":{"ha":0,"x_min":-229,"x_max":93,"o":"m 39 733 q -12 754 11 733 l -194 908 q -229 974 -229 938 q -212 1018 -229 1000 q -168 1036 -194 1036 q -133 1028 -151 1036 q -100 1006 -114 1019 l 67 840 q 87 815 81 826 q 93 788 93 803 q 78 749 93 765 q 39 733 63 733 z "},"́":{"ha":0,"x_min":-187,"x_max":135,"o":"m -133 733 q -172 749 -157 733 q -187 788 -187 765 q -181 815 -187 803 q -161 840 -175 826 l 6 1006 q 38 1028 19 1019 q 74 1036 56 1036 q 117 1018 100 1036 q 135 974 135 1000 q 100 908 135 938 l -82 754 q -133 733 -104 733 z "},"̋":{"ha":0,"x_min":-431,"x_max":132,"o":"m -378 736 q -416 750 -401 736 q -431 788 -431 764 q -423 818 -431 803 q -404 844 -415 833 l -250 999 q -169 1036 -212 1036 q -128 1020 -143 1036 q -114 978 -114 1004 q -124 940 -114 956 q -151 908 -133 924 l -321 764 q -333 754 -324 763 q -354 741 -343 746 q -378 736 -365 736 m -147 736 q -181 750 -168 736 q -194 785 -194 764 q -164 846 -194 818 l -1 992 q 69 1026 39 1026 q 115 1010 99 1026 q 132 965 132 993 q 90 896 132 928 l -89 758 q -119 742 -103 747 q -147 736 -135 736 z "},"̂":{"ha":0,"x_min":-329,"x_max":101,"o":"m -282 742 q -317 756 -304 742 q -329 793 -329 771 q -293 857 -329 831 l -96 996 q -50 1013 -74 1013 q -26 1006 -39 1013 q -4 988 -12 999 l 90 854 q 101 817 101 838 q 78 765 101 789 q 28 742 54 742 q -12 758 1 742 l -89 850 l -240 754 q -251 747 -242 753 q -282 742 -261 742 z "},"̌":{"ha":0,"x_min":-300,"x_max":131,"o":"m -142 742 q -187 767 -168 742 l -287 899 q -300 933 -300 915 q -275 988 -300 964 q -222 1013 -250 1013 q -198 1008 -207 1013 q -181 994 -189 1004 l -103 904 l 33 997 q 56 1010 47 1007 q 79 1013 65 1013 q 116 999 101 1013 q 131 963 131 985 q 122 927 131 944 q 94 897 113 910 l -96 758 q -142 742 -118 742 z "},"̆":{"ha":0,"x_min":-311,"x_max":128,"o":"m -125 751 q -262 799 -212 751 q -311 915 -311 847 q -292 966 -311 947 q -246 985 -272 985 q -217 974 -226 985 q -200 942 -207 964 q -160 890 -189 907 q -97 874 -131 874 q 21 944 -21 874 q 51 981 36 969 q 88 992 65 992 q 117 979 106 992 q 128 949 128 967 q 93 867 128 914 q 0 785 58 819 q -125 751 -58 751 z "},"̊":{"ha":0,"x_min":-240,"x_max":124,"o":"m -110 729 q -203 763 -167 729 q -240 850 -240 797 q -206 948 -240 901 q -117 1024 -171 994 q -7 1053 -62 1053 q 86 1018 49 1053 q 124 932 124 983 q 89 833 124 881 q 0 758 54 786 q -110 729 -54 729 m -74 846 q -13 864 -39 846 q 13 904 13 882 q -2 928 13 919 q -43 936 -17 936 q -103 918 -78 936 q -129 878 -129 900 q -115 854 -129 863 q -74 846 -100 846 z "},"̃":{"ha":0,"x_min":-414,"x_max":132,"o":"m -379 763 q -403 773 -393 763 q -414 797 -414 783 q -379 876 -414 828 q -292 958 -339 932 q -203 985 -246 985 q -145 970 -167 985 q -101 924 -124 956 q -66 877 -78 889 q -39 865 -54 865 q -1 890 -22 865 q 39 957 19 914 q 96 996 56 996 q 122 986 111 996 q 132 960 132 976 q 85 863 132 925 q -81 754 1 754 q -183 818 -136 754 q -201 844 -189 826 q -224 867 -214 861 q -246 874 -233 874 q -329 794 -287 874 q -379 763 -346 763 z "},"̄":{"ha":0,"x_min":-281,"x_max":111,"o":"m -231 790 q -267 803 -253 790 q -281 839 -281 815 q -256 895 -281 872 q -203 918 -231 918 l 61 918 q 98 904 85 918 q 111 868 111 890 q 87 813 111 836 q 33 790 63 790 l -231 790 z "},"̧":{"ha":0,"x_min":-372,"x_max":-103,"o":"m -165 -56 q -103 -137 -103 -79 q -151 -240 -103 -200 q -262 -281 -199 -281 q -342 -263 -312 -281 q -372 -214 -372 -246 q -356 -176 -372 -192 q -319 -160 -340 -160 q -293 -165 -303 -160 q -275 -179 -283 -169 q -243 -194 -264 -194 q -215 -182 -226 -194 q -203 -151 -203 -169 q -237 -115 -203 -122 q -271 -111 -262 -111 l -282 -111 q -314 -85 -314 -111 q -302 -51 -314 -78 q -272 7 -290 -24 q -248 40 -258 32 q -225 49 -237 49 q -205 41 -211 49 q -199 18 -199 33 q -207 -46 -199 4 q -165 -56 -187 -49 z "},"̨":{"ha":0,"x_min":-376,"x_max":-112,"o":"m -262 -281 q -346 -251 -315 -281 q -376 -175 -376 -222 q -324 -51 -376 -107 q -217 39 -272 6 q -182 56 -194 51 q -157 61 -169 61 q -131 52 -142 61 q -121 29 -121 43 q -136 -6 -121 13 q -179 -40 -151 -24 q -244 -90 -217 -61 q -271 -146 -271 -118 q -262 -172 -271 -162 q -239 -181 -253 -181 q -194 -165 -217 -181 q -153 -146 -167 -146 q -124 -158 -135 -146 q -112 -192 -112 -171 q -134 -231 -112 -210 q -190 -266 -156 -251 q -262 -281 -225 -281 z "}}}
